<svg xmlns="http://www.w3.org/2000/svg" xmlns:xlink="http://www.w3.org/1999/xlink" viewBox="0 0 473.35 478.95"><defs><style>.cls-1{fill:#4d4d4d;}.cls-2{fill:#03fff2;}.cls-3{fill:#fff;}.cls-4{fill:url(#Unbenannter_Verlauf_19);}</style><linearGradient id="Unbenannter_Verlauf_19" x1="-2401.09" y1="92.57" x2="-2148.04" y2="92.57" gradientTransform="translate(2570.41)" gradientUnits="userSpaceOnUse"><stop offset="0" stop-color="#f2c35f"/><stop offset="0.19" stop-color="#dbb37f" stop-opacity="0.74"/><stop offset="0.41" stop-color="#c4a29f" stop-opacity="0.48"/><stop offset="0.6" stop-color="#b295b9" stop-opacity="0.27"/><stop offset="0.77" stop-color="#a58bcc" stop-opacity="0.12"/><stop offset="0.91" stop-color="#9d85d7" stop-opacity="0.03"/><stop offset="1" stop-color="#9a83db" stop-opacity="0"/></linearGradient></defs><g id="Ebene_2" data-name="Ebene 2"><g id="Ebene_1-2" data-name="Ebene 1"><path class="cls-1" d="M442.23,98.07c-3.74-.77-8.06,2.25-12,5-10.7,7.48-14,19.06-15,22.68-3.94,14.4,1.9,19.91,1.71,39.83-.09,10.2-1.71,17.31-4.09,27.82-4.5,19.87-10.89,48.06-33.36,70a91.94,91.94,0,0,1-31.91,21.1c-21.11,8.07-39.19,5.13-55.39,20.05-5.43,5-5.51,7.29-5.27,8.44,1.79,8.47,32.69,9.54,51.69,7.91,15.22-1.31,45.59-3.93,72-25.06,36-28.79,40.61-72.76,44.57-110.5C459.2,146.86,455,100.68,442.23,98.07Z"/><path class="cls-2" d="M442.55,124.48l-.14,0a94.55,94.55,0,0,0-4.71-33.46c8.87-16,11.9-36.67,2.48-53.88-1.37-2.5-13.87-24.47-36.93-24.79-19.35-.27-31.4,14.91-32.7,16.61-11.87,15.48-8.41,34.33-6.33,45.63a82,82,0,0,0,6.26,19.62,5.26,5.26,0,0,0-5.64,3.47l-30.69,70.52a5.46,5.46,0,0,0-.33,2.24L279.94,172a5.17,5.17,0,0,0-5.44,4.86l-.15,5.4a5.18,5.18,0,0,0,5.18,5.14l76.66,6.22a5.51,5.51,0,0,0,2.15-.38,3.65,3.65,0,0,0,1.53-.32L389,182.69a269,269,0,0,1-25.33,34.1,158.14,158.14,0,0,1-23.81,21.73l-88.15,11.57a24.39,24.39,0,0,0-21,22.1,16.68,16.68,0,0,0-1.94,4.1L184.46,435.66,162.79,448c-1.11.43-1.11,3.13,0,6l2.19,5.62c1.11,2.87,2.94,4.87,4.05,4.44l27.19-6.17a6.74,6.74,0,0,0,3.64-.83l.14,0a.83.83,0,0,0,.36-.26,14.51,14.51,0,0,0,5.81-8L256.92,309s0,0,0,0L339.17,441.9,321,452.24c-1.11.43-1.11,3.13,0,6l2.19,5.62c1.11,2.87,2.94,4.87,4,4.44l28.79-6.54a5.87,5.87,0,0,0,3.82-.63l7.45-4.22c3.8-2.15,4.28-8.56,1.07-14.23l-63.63-123.1,72.48-31.73A24.48,24.48,0,0,0,387.79,279a141.25,141.25,0,0,0,45.79-53C456.45,179.69,445.71,135.86,442.55,124.48ZM378,107.34a96.53,96.53,0,0,0,13.42,15.56,67.71,67.71,0,0,0,27.7-11,45,45,0,0,1,.6,21.87,3.92,3.92,0,0,0-2,.3l-58,32Z"/><rect class="cls-1" x="366.2" y="326.51" width="19.78" height="103.38" rx="9.89"/><rect class="cls-1" x="399.3" y="400.59" width="17.26" height="81.25" rx="8.21" transform="translate(-178.14 573.88) rotate(-60)"/><rect class="cls-1" x="367.65" y="375.54" width="17.26" height="81.25" rx="8.21"/><rect class="cls-1" x="338.11" y="400.59" width="17.26" height="81.25" rx="8.21" transform="translate(138 962.11) rotate(-120)"/><circle class="cls-3" cx="375.96" cy="455.74" r="10.55"/><circle class="cls-3" cx="440.04" cy="468.4" r="10.55"/><circle class="cls-3" cx="314.51" cy="468.4" r="10.55"/><path class="cls-3" d="M446.37,95.74a11.7,11.7,0,0,0-8.44,3.16c-1.83,2-2.37,4.45-2.63,7.12-.62,6.27-.92,9.4,1.84,16.62,4.29,11.19,16.8,74.21-6.06,99.69-7.71,8.58-24.83,11.09-59.08,16.09a517.83,517.83,0,0,1-61.45,5.27c-4.92,2.05-7.8,6.92-7.12,11.61.77,5.34,5.77,7.84,6.2,8a347.76,347.76,0,0,0,46.55,5.93,346.3,346.3,0,0,0,47.93-.46,84.37,84.37,0,0,1-23.93,27.63c-30.88,22.58-71,17.24-86.64,15.16-3.18-.42-5.78-.86-7.52-1.18a22.57,22.57,0,0,0,.53,15.82c4.32,10.1,14.69,12.66,15.82,12.92C315.25,342.7,352.1,351,391,333.63c51.43-22.95,68-73.56,73.58-90.47C488.46,170.35,457.19,96.06,446.37,95.74Z"/><rect y="189.89" width="336.66" height="20.57" rx="10.29"/><rect x="31.15" y="323.31" width="271.19" height="20.57" rx="9.23" transform="translate(500.34 166.85) rotate(90)"/><path d="M63.49,208.09c-.09,1.94,29.66.19,56.38,19.38a93.48,93.48,0,0,1,27.49,31.85,96.72,96.72,0,0,1,10.29,56l2-108.4C83.33,205.45,63.57,206.51,63.49,208.09Z"/><path d="M270.79,208.09c.1,1.94-29.65.19-56.37,19.38a93.36,93.36,0,0,0-27.5,31.85,96.77,96.77,0,0,0-10.28,56l-2-108.4C251,205.45,270.71,206.51,270.79,208.09Z"/><rect x="132.92" y="462.99" width="68.04" height="6.2" rx="2.93"/><rect class="cls-3" x="181.15" y="79.62" width="7.68" height="114.28" rx="3.84" transform="translate(-31.85 59.92) rotate(-16.96)"/><rect class="cls-3" x="251.02" y="131.3" width="7.38" height="114.28" rx="3.69" transform="translate(66.27 443.15) rotate(-90)"/><path class="cls-4" d="M169.32,84.66,365.14,0c12.1,7.24,32.07,21.75,45.1,47.08C442.09,109,401.44,175,398.77,179.21l-198.2,5.93Q184.94,134.91,169.32,84.66Z"/></g></g></svg>