<svg xmlns="http://www.w3.org/2000/svg" xmlns:xlink="http://www.w3.org/1999/xlink" viewBox="0 0 473.35 478.95"><defs><style>.cls-1{fill:#4d4d4d;}.cls-2{fill:#8161dc;}.cls-3{fill:#fff;}.cls-4{fill:url(#Unbenannter_Verlauf_19);}</style><linearGradient id="Unbenannter_Verlauf_19" x1="860.89" y1="92.57" x2="1113.95" y2="92.57" gradientTransform="matrix(-1, 0, 0, 1, 1164.93, 0)" gradientUnits="userSpaceOnUse"><stop offset="0" stop-color="#f2c35f"/><stop offset="0.19" stop-color="#dbb37f" stop-opacity="0.74"/><stop offset="0.41" stop-color="#c4a29f" stop-opacity="0.48"/><stop offset="0.6" stop-color="#b295b9" stop-opacity="0.27"/><stop offset="0.77" stop-color="#a58bcc" stop-opacity="0.12"/><stop offset="0.91" stop-color="#9d85d7" stop-opacity="0.03"/><stop offset="1" stop-color="#9a83db" stop-opacity="0"/></linearGradient></defs><g id="Ebene_2" data-name="Ebene 2"><g id="Ebene_1-2" data-name="Ebene 1"><path class="cls-1" d="M31.12,98.07c3.74-.77,8.06,2.25,12,5,10.7,7.48,14,19.06,15,22.68,3.94,14.4-1.9,19.91-1.71,39.83.1,10.2,1.71,17.31,4.09,27.82,4.5,19.87,10.89,48.06,33.36,70a91.94,91.94,0,0,0,31.91,21.1c21.11,8.07,39.2,5.13,55.39,20.05,5.43,5,5.51,7.29,5.27,8.44-1.78,8.47-32.69,9.54-51.69,7.91-15.21-1.31-45.59-3.93-72-25.06-36-28.79-40.61-72.76-44.57-110.5C14.15,146.86,18.4,100.68,31.12,98.07Z"/><path class="cls-2" d="M39.77,226a141.25,141.25,0,0,0,45.79,53,24.54,24.54,0,0,0,10.54,8.81l72.48,31.73L105,442.68c-3.21,5.67-2.73,12.08,1.07,14.23l7.45,4.22a5.87,5.87,0,0,0,3.82.63l28.79,6.54c1.11.43,2.94-1.57,4-4.44l2.19-5.62c1.11-2.87,1.11-5.57,0-6L134.18,441.9l82.23-132.84,0,0,50.75,139.8a14.51,14.51,0,0,0,5.81,8,.9.9,0,0,0,.36.26l.15,0a6.69,6.69,0,0,0,3.63.83l27.19,6.17c1.11.43,2.94-1.57,4.05-4.44l2.19-5.62c1.11-2.87,1.11-5.57,0-6l-21.67-12.36L244.61,276.29a17,17,0,0,0-1.93-4.1,24.41,24.41,0,0,0-21.06-22.1l-88.15-11.57a158.14,158.14,0,0,1-23.81-21.73,269,269,0,0,1-25.33-34.1l29.15,10.22a3.69,3.69,0,0,0,1.53.32,5.51,5.51,0,0,0,2.15.38l76.66-6.22a5.18,5.18,0,0,0,5.18-5.14l-.15-5.4a5.17,5.17,0,0,0-5.44-4.86l-53.88-1.5a5.46,5.46,0,0,0-.33-2.24L108.51,97.73a5.26,5.26,0,0,0-5.64-3.47,82,82,0,0,0,6.26-19.62c2.08-11.3,5.54-30.15-6.33-45.63-1.3-1.7-13.35-16.88-32.7-16.61C47,12.72,34.54,34.69,33.17,37.19c-9.42,17.21-6.39,37.88,2.48,53.88a94.55,94.55,0,0,0-4.71,33.46l-.14,0C27.64,135.86,16.9,179.69,39.77,226Zm73.91-59.94-58-32a3.92,3.92,0,0,0-2-.3,44.85,44.85,0,0,1,.61-21.87A67.63,67.63,0,0,0,82,122.9a96.53,96.53,0,0,0,13.42-15.56Z"/><rect class="cls-1" x="87.37" y="326.51" width="19.78" height="103.38" rx="9.89" transform="translate(194.53 756.4) rotate(-180)"/><rect class="cls-1" x="56.8" y="400.59" width="17.26" height="81.25" rx="8.21" transform="translate(-283.96 718.49) rotate(-120)"/><rect class="cls-1" x="88.45" y="375.54" width="17.26" height="81.25" rx="8.21" transform="translate(194.15 832.32) rotate(-180)"/><rect class="cls-1" x="117.99" y="400.59" width="17.26" height="81.25" rx="8.21" transform="translate(-318.8 330.26) rotate(-60)"/><circle class="cls-3" cx="97.39" cy="455.74" r="10.55"/><circle class="cls-3" cx="33.31" cy="468.4" r="10.55"/><circle class="cls-3" cx="158.85" cy="468.4" r="10.55"/><path class="cls-3" d="M27,95.74a11.7,11.7,0,0,1,8.44,3.16c1.83,2,2.37,4.45,2.63,7.12.62,6.27.92,9.4-1.84,16.62-4.29,11.19-16.8,74.21,6.06,99.69,7.71,8.58,24.83,11.09,59.08,16.09a518,518,0,0,0,61.45,5.27c4.92,2.05,7.8,6.92,7.12,11.61-.77,5.34-5.77,7.84-6.2,8a347.76,347.76,0,0,1-46.55,5.93,346.3,346.3,0,0,1-47.93-.46,84.37,84.37,0,0,0,23.93,27.63c30.88,22.58,71,17.24,86.64,15.16,3.18-.42,5.78-.86,7.52-1.18a22.57,22.57,0,0,1-.53,15.82c-4.32,10.1-14.69,12.66-15.82,12.92-12.88,3.54-49.72,11.82-88.62-5.53-51.43-22.95-68-73.56-73.58-90.47C-15.11,170.35,16.16,96.06,27,95.74Z"/><rect x="136.69" y="189.89" width="336.66" height="20.57" rx="10.29" transform="translate(610.04 400.35) rotate(180)"/><rect x="171.01" y="323.31" width="271.19" height="20.57" rx="9.23" transform="translate(640.2 26.99) rotate(90)"/><path d="M409.86,208.09c.09,1.94-29.66.19-56.38,19.38A93.48,93.48,0,0,0,326,259.32a96.72,96.72,0,0,0-10.29,56l-2-108.4C390,205.45,409.78,206.51,409.86,208.09Z"/><path d="M202.56,208.09c-.1,1.94,29.65.19,56.37,19.38a93.36,93.36,0,0,1,27.5,31.85,96.77,96.77,0,0,1,10.28,56l2-108.4C222.4,205.45,202.64,206.51,202.56,208.09Z"/><rect x="272.38" y="462.99" width="68.04" height="6.2" rx="2.93" transform="translate(612.81 932.18) rotate(180)"/><rect class="cls-3" x="284.52" y="79.62" width="7.68" height="114.28" rx="3.84" transform="translate(524.27 351.71) rotate(-163.04)"/><rect class="cls-3" x="214.95" y="131.3" width="7.38" height="114.28" rx="3.69" transform="translate(30.2 407.08) rotate(-90)"/><path class="cls-4" d="M304,84.66,108.21,0c-12.1,7.24-32.07,21.75-45.1,47.08C31.26,109,71.91,175,74.58,179.21l198.2,5.93Q288.41,134.91,304,84.66Z"/></g></g></svg>
