<svg xmlns="http://www.w3.org/2000/svg" viewBox="0 0 239.69 670.06"><defs><style>.cls-1{fill:#03fff2;}</style></defs><g id="Ebene_2" data-name="Ebene 2"><g id="Ebene_1-2" data-name="Ebene 1"><path class="cls-1" d="M1,598.69,51.36,465.85A11.32,11.32,0,0,1,53.1,463l4.37-73.24-6.18-18.86a5,5,0,0,1,0-2.56,11.45,11.45,0,0,1-.23-2.28L41.93,200,2.87,108.57a8.34,8.34,0,0,1-.18-6.31,9,9,0,0,1,.27-1.9l26-93.46A9.16,9.16,0,0,1,40,.28L42.85,1a9.17,9.17,0,0,1,6.63,11.1L30,100.65l35.06,68.58a76.82,76.82,0,0,0,4.42-12,77.08,77.08,0,0,0,2.77-20.1,58.3,58.3,0,0,1-7.72-22.63C63.89,108.94,61,85.41,78,69.41c2.2-2.08,17-15.55,36.79-11.67,18.93,3.72,27.54,20.38,29.27,23.74,8,15.55,4.63,30.8,2.38,40.94-5.3,23.76-19.69,39.28-27.5,46.49a65.46,65.46,0,0,1-26.5-10.29c-.4-.27-1-.65-1.64-1.15a27.18,27.18,0,0,0-1.13,8.86,26.78,26.78,0,0,0,1.06,6.53h13.79a11.88,11.88,0,0,1,3.88.66,9.07,9.07,0,0,1,8.31,3.12l58.51,80.42,61.09,34.34c3.48,1.82,4.41,7,2.08,11.41l-1.34,2.57c-2.33,4.46-7.09,6.61-10.56,4.79L160.69,279a8.5,8.5,0,0,1-6.13-3.14l-38-45.35V364.81a5.25,5.25,0,0,1,.35,2.5l-3.42,20.05,16.63,78.58a5.09,5.09,0,0,1-.16,3.06,17,17,0,0,1,1.63,6.07l9.93,175.79c.72,9.08-5.61,17.39-14,18.46l-4.88.63c-8.44,1.07-15.93-5.49-16.64-14.57L87.61,486a13.22,13.22,0,0,1-.93,3.75l-57.44,128c-2.81,6.74-10.6,8.54-17.29,4l-3.87-2.62C1.38,614.65-1.79,605.43,1,598.69Z"/></g></g></svg>