<?xml version="1.0" encoding="utf-8"?>
<!-- Generator: Adobe Illustrator 25.3.1, SVG Export Plug-In . SVG Version: 6.00 Build 0)  -->
<svg version="1.1" id="Ebene_1" xmlns="http://www.w3.org/2000/svg" xmlns:xlink="http://www.w3.org/1999/xlink" x="0px" y="0px"
	 viewBox="0 0 473.4 479" style="enable-background:new 0 0 473.4 479;" xml:space="preserve">
<style type="text/css">
	.st0{fill:#4D4D4D;}
	.st1{fill:#FFFFFF;}
</style>
<g id="Ebene_2_1_">
	<g id="Ebene_1-2">
		<path class="st0" d="M442.2,98.1c-3.7-0.8-8.1,2.2-12,5c-10.7,7.5-14,19.1-15,22.7c-3.9,14.4,1.9,19.9,1.7,39.8
			c-0.1,10.2-1.7,17.3-4.1,27.8c-4.5,19.9-10.9,48.1-33.4,70c-9,9.2-19.9,16.4-31.9,21.1c-21.1,8.1-39.2,5.1-55.4,20
			c-5.4,5-5.5,7.3-5.3,8.4c1.8,8.5,32.7,9.5,51.7,7.9c15.2-1.3,45.6-3.9,72-25.1c36-28.8,40.6-72.8,44.6-110.5
			C459.2,146.9,455,100.7,442.2,98.1z"/>
		<path class="st0" d="M376.1,326.5L376.1,326.5c5.5,0,9.9,4.4,9.9,9.9V420c0,5.5-4.4,9.9-9.9,9.9h0c-5.5,0-9.9-4.4-9.9-9.9v-83.6
			C366.2,330.9,370.6,326.5,376.1,326.5z"/>
		<path class="st0" d="M372.5,421.3l0.4-0.7c2.3-3.9,7.3-5.3,11.2-3l56.1,32.4c3.9,2.3,5.3,7.3,3,11.2l-0.4,0.7
			c-2.3,3.9-7.3,5.3-11.2,3l-56.1-32.4C371.6,430.2,370.3,425.2,372.5,421.3z"/>
		<path class="st0" d="M375.9,375.5h0.8c4.5,0,8.2,3.7,8.2,8.2v64.8c0,4.5-3.7,8.2-8.2,8.2h-0.8c-4.5,0-8.2-3.7-8.2-8.2v-64.8
			C367.6,379.2,371.3,375.5,375.9,375.5z"/>
		<path class="st0" d="M311.8,461.9l-0.4-0.7c-2.3-3.9-0.9-8.9,3-11.2l56.1-32.4c3.9-2.3,8.9-0.9,11.2,3l0.4,0.7
			c2.3,3.9,0.9,8.9-3,11.2L323,464.9C319,467.2,314,465.8,311.8,461.9z"/>
		<circle class="st1" cx="376" cy="455.7" r="10.5"/>
		<circle class="st1" cx="440" cy="468.4" r="10.5"/>
		<circle class="st1" cx="314.5" cy="468.4" r="10.5"/>
		<path class="st1" d="M446.4,95.7c-3.1-0.1-6.2,1-8.4,3.2c-1.8,2-2.4,4.4-2.6,7.1c-0.6,6.3-0.9,9.4,1.8,16.6
			c4.3,11.2,16.8,74.2-6.1,99.7c-7.7,8.6-24.8,11.1-59.1,16.1c-20.4,3-40.9,4.7-61.5,5.3c-4.9,2.1-7.8,6.9-7.1,11.6
			c0.8,5.3,5.8,7.8,6.2,8c15.4,3,30.9,5,46.5,5.9c16,1,32,0.8,47.9-0.5c-5.9,10.8-14,20.3-23.9,27.6c-30.9,22.6-71,17.2-86.6,15.2
			c-3.2-0.4-5.8-0.9-7.5-1.2c-1.7,5.2-1.6,10.8,0.5,15.8c4.3,10.1,14.7,12.7,15.8,12.9c12.9,3.6,49.7,11.9,88.6-5.5
			c51.4-23,68-73.6,73.6-90.5C488.5,170.4,457.2,96.1,446.4,95.7z"/>
		<path d="M10.3,189.9h316.1c5.7,0,10.3,4.6,10.3,10.3v0c0,5.7-4.6,10.3-10.3,10.3H10.3c-5.7,0-10.3-4.6-10.3-10.3v0
			C0,194.5,4.6,189.9,10.3,189.9z"/>
		<path d="M177,207.2V460c0,5.1-4.1,9.2-9.2,9.2h-2.1c-5.1,0-9.2-4.1-9.2-9.2V207.2c0-5.1,4.1-9.2,9.2-9.2h2.1
			C172.9,198,177,202.1,177,207.2z"/>
		<path d="M63.5,208.1c-0.1,1.9,29.7,0.2,56.4,19.4c11.5,8.4,20.9,19.3,27.5,31.9c9,17.2,12.6,36.7,10.3,56l2-108.4
			C83.3,205.4,63.6,206.5,63.5,208.1z"/>
		<path d="M270.8,208.1c0.1,1.9-29.6,0.2-56.4,19.4c-11.5,8.4-20.9,19.3-27.5,31.9c-9,17.2-12.5,36.7-10.3,56l-2-108.4
			C251,205.4,270.7,206.5,270.8,208.1z"/>
		<path d="M135.8,463H198c1.6,0,2.9,1.3,2.9,2.9v0.3c0,1.6-1.3,2.9-2.9,2.9h-62.2c-1.6,0-2.9-1.3-2.9-2.9v-0.3
			C132.9,464.3,134.2,463,135.8,463z"/>
		<path class="st1" d="M311.6,185.4L311.6,185.4c0.1,2.1-1.6,3.9-3.7,4l-106.5,4.3c-2.1,0.1-3.9-1.6-4-3.7l0,0
			c-0.1-2.1,1.6-3.9,3.7-4l106.5-4.3C309.7,181.7,311.5,183.3,311.6,185.4z"/>
		<path class="st1" d="M197.6,188.4L197.6,188.4c0-2,1.7-3.7,3.7-3.7h106.9c2,0,3.7,1.7,3.7,3.7v0c0,2-1.7,3.7-3.7,3.7H201.3
			C199.2,192.1,197.6,190.5,197.6,188.4z"/>
	</g>
</g>
</svg>
