<svg xmlns="http://www.w3.org/2000/svg" xmlns:xlink="http://www.w3.org/1999/xlink" viewBox="0 0 431.16 431.16"><defs><style>.cls-1{isolation:isolate;}.cls-2{fill:#1c1b21;}.cls-3{mix-blend-mode:screen;opacity:0.33;}.cls-4{fill:url(#Unbenannter_Verlauf_186);}.cls-5{fill:url(#Unbenannter_Verlauf_186-2);}.cls-6{fill:url(#Unbenannter_Verlauf_186-3);}.cls-7{fill:url(#Unbenannter_Verlauf_186-4);}.cls-8{fill:url(#Unbenannter_Verlauf_186-5);}.cls-9{fill:url(#Unbenannter_Verlauf_186-6);}.cls-10{fill:url(#Unbenannter_Verlauf_186-7);}.cls-11{fill:url(#Unbenannter_Verlauf_186-8);}.cls-12{fill:url(#Unbenannter_Verlauf_186-9);}.cls-13{fill:url(#Unbenannter_Verlauf_186-10);}.cls-14{fill:url(#Unbenannter_Verlauf_186-11);}.cls-15{fill:url(#Unbenannter_Verlauf_186-12);}.cls-16{fill:url(#Unbenannter_Verlauf_186-13);}.cls-17{fill:url(#Unbenannter_Verlauf_186-14);}.cls-18{fill:url(#Unbenannter_Verlauf_186-15);}.cls-19{fill:url(#Unbenannter_Verlauf_186-16);}.cls-20{fill:url(#Unbenannter_Verlauf_186-17);}.cls-21{fill:url(#Unbenannter_Verlauf_186-18);}.cls-22{fill:url(#Unbenannter_Verlauf_186-19);}.cls-23{fill:url(#Unbenannter_Verlauf_186-20);}.cls-24{fill:url(#Unbenannter_Verlauf_186-21);}.cls-25{fill:url(#Unbenannter_Verlauf_186-22);}.cls-26{fill:url(#Unbenannter_Verlauf_186-23);}.cls-27{fill:url(#Unbenannter_Verlauf_186-24);}.cls-28{fill:url(#Unbenannter_Verlauf_186-25);}.cls-29{fill:url(#Unbenannter_Verlauf_186-26);}.cls-30{fill:url(#Unbenannter_Verlauf_186-27);}.cls-31{fill:url(#Unbenannter_Verlauf_186-28);}.cls-32{fill:url(#Unbenannter_Verlauf_186-29);}.cls-33{fill:url(#Unbenannter_Verlauf_186-30);}.cls-34{fill:url(#Unbenannter_Verlauf_186-31);}.cls-35{fill:url(#Unbenannter_Verlauf_186-32);}.cls-36{fill:url(#Unbenannter_Verlauf_186-33);}.cls-37{fill:url(#Unbenannter_Verlauf_186-34);}.cls-38{fill:url(#Unbenannter_Verlauf_186-35);}.cls-39{fill:url(#Unbenannter_Verlauf_186-36);}.cls-40{fill:url(#Unbenannter_Verlauf_186-37);}.cls-41{fill:url(#Unbenannter_Verlauf_186-38);}.cls-42{fill:url(#Unbenannter_Verlauf_186-39);}.cls-43{fill:url(#Unbenannter_Verlauf_186-40);}.cls-44{fill:url(#Unbenannter_Verlauf_186-41);}.cls-45{fill:url(#Unbenannter_Verlauf_186-42);}.cls-46{fill:url(#Unbenannter_Verlauf_186-43);}.cls-47{fill:url(#Unbenannter_Verlauf_186-44);}.cls-48{fill:url(#Unbenannter_Verlauf_186-45);}.cls-49{fill:url(#Unbenannter_Verlauf_186-46);}.cls-50{fill:url(#Unbenannter_Verlauf_186-47);}.cls-51{fill:url(#Unbenannter_Verlauf_186-48);}.cls-52{fill:url(#Unbenannter_Verlauf_186-49);}.cls-53{fill:url(#Unbenannter_Verlauf_186-50);}.cls-54{fill:url(#Unbenannter_Verlauf_186-51);}.cls-55{fill:url(#Unbenannter_Verlauf_186-52);}.cls-56{fill:url(#Unbenannter_Verlauf_186-53);}.cls-57{fill:url(#Unbenannter_Verlauf_186-54);}.cls-58{fill:url(#Unbenannter_Verlauf_186-55);}.cls-59{fill:url(#Unbenannter_Verlauf_186-56);}.cls-60{fill:url(#Unbenannter_Verlauf_186-57);}.cls-61{fill:url(#Unbenannter_Verlauf_186-58);}.cls-62{fill:url(#Unbenannter_Verlauf_186-59);}.cls-63{fill:url(#Unbenannter_Verlauf_186-60);}.cls-64{fill:url(#Unbenannter_Verlauf_186-61);}.cls-65{fill:url(#Unbenannter_Verlauf_186-62);}.cls-66{fill:url(#Unbenannter_Verlauf_186-63);}.cls-67{fill:url(#Unbenannter_Verlauf_186-64);}.cls-68{fill:url(#Unbenannter_Verlauf_186-65);}.cls-69{fill:url(#Unbenannter_Verlauf_186-66);}.cls-70{fill:url(#Unbenannter_Verlauf_186-67);}.cls-71{fill:url(#Unbenannter_Verlauf_186-68);}.cls-72{fill:url(#Unbenannter_Verlauf_186-69);}.cls-73{fill:url(#Unbenannter_Verlauf_186-70);}.cls-74{fill:url(#Unbenannter_Verlauf_186-71);}.cls-75{fill:url(#Unbenannter_Verlauf_186-72);}.cls-76{fill:url(#Unbenannter_Verlauf_186-73);}.cls-77{fill:url(#Unbenannter_Verlauf_186-74);}.cls-78{fill:url(#Unbenannter_Verlauf_186-75);}.cls-79{fill:url(#Unbenannter_Verlauf_186-76);}.cls-80{fill:url(#Unbenannter_Verlauf_186-77);}.cls-81{fill:url(#Unbenannter_Verlauf_186-78);}.cls-82{fill:url(#Unbenannter_Verlauf_186-79);}.cls-83{fill:url(#Unbenannter_Verlauf_186-80);}.cls-84{fill:url(#Unbenannter_Verlauf_186-81);}.cls-85{fill:url(#Unbenannter_Verlauf_186-82);}.cls-86{fill:url(#Unbenannter_Verlauf_186-83);}.cls-87{fill:url(#Unbenannter_Verlauf_186-84);}.cls-88{fill:url(#Unbenannter_Verlauf_186-85);}.cls-89{fill:url(#Unbenannter_Verlauf_186-86);}.cls-90{fill:url(#Unbenannter_Verlauf_186-87);}.cls-91{fill:url(#Unbenannter_Verlauf_186-88);}.cls-92{fill:url(#Unbenannter_Verlauf_186-89);}.cls-93{fill:url(#Unbenannter_Verlauf_186-90);}.cls-94{fill:url(#Unbenannter_Verlauf_186-91);}.cls-95{fill:url(#Unbenannter_Verlauf_186-92);}.cls-96{fill:url(#Unbenannter_Verlauf_186-93);}.cls-97{fill:url(#Unbenannter_Verlauf_186-94);}.cls-98{fill:url(#Unbenannter_Verlauf_186-95);}.cls-99{fill:url(#Unbenannter_Verlauf_186-96);}.cls-100{fill:url(#Unbenannter_Verlauf_186-97);}.cls-101{fill:url(#Unbenannter_Verlauf_186-98);}.cls-102{fill:url(#Unbenannter_Verlauf_186-99);}.cls-103{fill:url(#Unbenannter_Verlauf_186-100);}.cls-104{fill:url(#Unbenannter_Verlauf_186-101);}.cls-105{fill:url(#Unbenannter_Verlauf_186-102);}.cls-106{fill:url(#Unbenannter_Verlauf_186-103);}.cls-107{fill:url(#Unbenannter_Verlauf_186-104);}.cls-108{fill:url(#Unbenannter_Verlauf_186-105);}.cls-109{fill:url(#Unbenannter_Verlauf_186-106);}.cls-110{fill:url(#Unbenannter_Verlauf_186-107);}.cls-111{fill:url(#Unbenannter_Verlauf_186-108);}.cls-112{fill:url(#Unbenannter_Verlauf_186-109);}.cls-113{fill:url(#Unbenannter_Verlauf_186-110);}.cls-114{fill:url(#Unbenannter_Verlauf_186-111);}.cls-115{fill:url(#Unbenannter_Verlauf_186-112);}.cls-116{fill:url(#Unbenannter_Verlauf_186-113);}.cls-117{fill:url(#Unbenannter_Verlauf_186-114);}.cls-118{fill:url(#Unbenannter_Verlauf_186-115);}.cls-119{fill:url(#Unbenannter_Verlauf_186-116);}.cls-120{fill:url(#Unbenannter_Verlauf_186-117);}.cls-121{fill:url(#Unbenannter_Verlauf_186-118);}.cls-122{fill:url(#Unbenannter_Verlauf_186-119);}.cls-123{fill:url(#Unbenannter_Verlauf_186-120);}</style><linearGradient id="Unbenannter_Verlauf_186" x1="-194.92" y1="-155.9" x2="-192.18" y2="-155.9" gradientTransform="translate(328.91 191.42)" gradientUnits="userSpaceOnUse"><stop offset="0" stop-color="gray"/><stop offset="1"/></linearGradient><linearGradient id="Unbenannter_Verlauf_186-2" x1="-239.85" y1="-189.25" x2="-237.11" y2="-189.25" gradientTransform="translate(364.54 229.22)" xlink:href="#Unbenannter_Verlauf_186"/><linearGradient id="Unbenannter_Verlauf_186-3" x1="-282.98" y1="-224.92" x2="-280.24" y2="-224.92" gradientTransform="translate(398.6 269.81)" xlink:href="#Unbenannter_Verlauf_186"/><linearGradient id="Unbenannter_Verlauf_186-4" x1="-324.18" y1="-262.79" x2="-321.44" y2="-262.79" gradientTransform="translate(431 313.07)" xlink:href="#Unbenannter_Verlauf_186"/><linearGradient id="Unbenannter_Verlauf_186-5" x1="-363.35" y1="-302.77" x2="-360.61" y2="-302.77" gradientTransform="translate(461.66 358.9)" xlink:href="#Unbenannter_Verlauf_186"/><linearGradient id="Unbenannter_Verlauf_186-6" x1="-400.37" y1="-344.74" x2="-397.63" y2="-344.74" gradientTransform="translate(490.49 407.16)" xlink:href="#Unbenannter_Verlauf_186"/><linearGradient id="Unbenannter_Verlauf_186-7" x1="-435.14" y1="-388.59" x2="-432.4" y2="-388.59" gradientTransform="translate(517.42 457.71)" xlink:href="#Unbenannter_Verlauf_186"/><linearGradient id="Unbenannter_Verlauf_186-8" x1="-467.56" y1="-434.2" x2="-464.82" y2="-434.2" gradientTransform="translate(542.37 510.43)" xlink:href="#Unbenannter_Verlauf_186"/><linearGradient id="Unbenannter_Verlauf_186-9" x1="-497.56" y1="-481.45" x2="-494.82" y2="-481.45" gradientTransform="translate(565.26 565.16)" xlink:href="#Unbenannter_Verlauf_186"/><linearGradient id="Unbenannter_Verlauf_186-10" x1="-525.04" y1="-530.2" x2="-522.3" y2="-530.2" gradientTransform="translate(586.04 621.76)" xlink:href="#Unbenannter_Verlauf_186"/><linearGradient id="Unbenannter_Verlauf_186-11" x1="-549.94" y1="-580.32" x2="-547.2" y2="-580.32" gradientTransform="translate(604.65 680.07)" xlink:href="#Unbenannter_Verlauf_186"/><linearGradient id="Unbenannter_Verlauf_186-12" x1="-572.17" y1="-631.68" x2="-569.43" y2="-631.68" gradientTransform="translate(621.04 739.94)" xlink:href="#Unbenannter_Verlauf_186"/><linearGradient id="Unbenannter_Verlauf_186-13" x1="-591.69" y1="-684.13" x2="-588.95" y2="-684.13" gradientTransform="translate(635.17 801.19)" xlink:href="#Unbenannter_Verlauf_186"/><linearGradient id="Unbenannter_Verlauf_186-14" x1="-608.44" y1="-737.53" x2="-605.7" y2="-737.53" gradientTransform="translate(647 863.66)" xlink:href="#Unbenannter_Verlauf_186"/><linearGradient id="Unbenannter_Verlauf_186-15" x1="-622.37" y1="-791.73" x2="-619.63" y2="-791.73" gradientTransform="translate(656.49 927.18)" xlink:href="#Unbenannter_Verlauf_186"/><linearGradient id="Unbenannter_Verlauf_186-16" x1="-633.44" y1="-846.59" x2="-630.7" y2="-846.59" gradientTransform="translate(663.61 991.57)" xlink:href="#Unbenannter_Verlauf_186"/><linearGradient id="Unbenannter_Verlauf_186-17" x1="-641.63" y1="-901.95" x2="-638.88" y2="-901.95" gradientTransform="translate(668.35 1056.66)" xlink:href="#Unbenannter_Verlauf_186"/><linearGradient id="Unbenannter_Verlauf_186-18" x1="-646.9" y1="-957.67" x2="-644.16" y2="-957.67" gradientTransform="translate(670.7 1122.27)" xlink:href="#Unbenannter_Verlauf_186"/><linearGradient id="Unbenannter_Verlauf_186-19" x1="-649.26" y1="-1013.58" x2="-646.52" y2="-1013.58" gradientTransform="translate(670.65 1188.22)" xlink:href="#Unbenannter_Verlauf_186"/><linearGradient id="Unbenannter_Verlauf_186-20" x1="-648.68" y1="-1069.54" x2="-645.94" y2="-1069.54" gradientTransform="translate(668.2 1254.33)" xlink:href="#Unbenannter_Verlauf_186"/><linearGradient id="Unbenannter_Verlauf_186-21" x1="-645.18" y1="-1125.4" x2="-642.44" y2="-1125.4" gradientTransform="translate(663.35 1320.42)" xlink:href="#Unbenannter_Verlauf_186"/><linearGradient id="Unbenannter_Verlauf_186-22" x1="-638.76" y1="-1180.99" x2="-636.02" y2="-1180.99" gradientTransform="translate(656.12 1386.3)" xlink:href="#Unbenannter_Verlauf_186"/><linearGradient id="Unbenannter_Verlauf_186-23" x1="-629.44" y1="-1236.17" x2="-626.7" y2="-1236.17" gradientTransform="translate(646.53 1451.8)" xlink:href="#Unbenannter_Verlauf_186"/><linearGradient id="Unbenannter_Verlauf_186-24" x1="-617.24" y1="-1290.79" x2="-614.5" y2="-1290.79" gradientTransform="translate(634.61 1516.73)" xlink:href="#Unbenannter_Verlauf_186"/><linearGradient id="Unbenannter_Verlauf_186-25" x1="-602.2" y1="-1344.7" x2="-599.46" y2="-1344.7" gradientTransform="translate(620.37 1580.93)" xlink:href="#Unbenannter_Verlauf_186"/><linearGradient id="Unbenannter_Verlauf_186-26" x1="-584.36" y1="-1397.74" x2="-581.62" y2="-1397.74" gradientTransform="translate(603.9 1644.2)" xlink:href="#Unbenannter_Verlauf_186"/><linearGradient id="Unbenannter_Verlauf_186-27" x1="-563.77" y1="-1449.78" x2="-561.03" y2="-1449.78" gradientTransform="translate(585.18 1706.38)" xlink:href="#Unbenannter_Verlauf_186"/><linearGradient id="Unbenannter_Verlauf_186-28" x1="-540.48" y1="-1500.67" x2="-537.74" y2="-1500.67" gradientTransform="translate(564.3 1767.31)" xlink:href="#Unbenannter_Verlauf_186"/><linearGradient id="Unbenannter_Verlauf_186-29" x1="-514.56" y1="-1550.27" x2="-511.82" y2="-1550.27" gradientTransform="translate(541.32 1826.8)" xlink:href="#Unbenannter_Verlauf_186"/><linearGradient id="Unbenannter_Verlauf_186-30" x1="-486.09" y1="-1598.45" x2="-483.35" y2="-1598.45" gradientTransform="translate(516.3 1884.7)" xlink:href="#Unbenannter_Verlauf_186"/><linearGradient id="Unbenannter_Verlauf_186-31" x1="-455.13" y1="-1645.07" x2="-452.38" y2="-1645.07" gradientTransform="translate(489.28 1940.86)" xlink:href="#Unbenannter_Verlauf_186"/><linearGradient id="Unbenannter_Verlauf_186-32" x1="-421.77" y1="-1690" x2="-419.03" y2="-1690" gradientTransform="translate(460.37 1995.11)" xlink:href="#Unbenannter_Verlauf_186"/><linearGradient id="Unbenannter_Verlauf_186-33" x1="-386.1" y1="-1733.13" x2="-383.36" y2="-1733.13" gradientTransform="translate(429.63 2047.3)" xlink:href="#Unbenannter_Verlauf_186"/><linearGradient id="Unbenannter_Verlauf_186-34" x1="-348.23" y1="-1774.33" x2="-345.49" y2="-1774.33" gradientTransform="translate(397.15 2097.3)" xlink:href="#Unbenannter_Verlauf_186"/><linearGradient id="Unbenannter_Verlauf_186-35" x1="-308.25" y1="-1813.5" x2="-305.51" y2="-1813.5" gradientTransform="translate(363.02 2144.97)" xlink:href="#Unbenannter_Verlauf_186"/><linearGradient id="Unbenannter_Verlauf_186-36" x1="-266.28" y1="-1850.52" x2="-263.54" y2="-1850.52" gradientTransform="translate(327.32 2190.18)" xlink:href="#Unbenannter_Verlauf_186"/><linearGradient id="Unbenannter_Verlauf_186-37" x1="-222.43" y1="-1885.29" x2="-219.69" y2="-1885.29" gradientTransform="translate(290.18 2232.79)" xlink:href="#Unbenannter_Verlauf_186"/><linearGradient id="Unbenannter_Verlauf_186-38" x1="-176.82" y1="-1917.72" x2="-174.08" y2="-1917.72" gradientTransform="translate(251.68 2272.7)" xlink:href="#Unbenannter_Verlauf_186"/><linearGradient id="Unbenannter_Verlauf_186-39" x1="-129.57" y1="-1947.71" x2="-126.83" y2="-1947.71" gradientTransform="translate(211.91 2309.8)" xlink:href="#Unbenannter_Verlauf_186"/><linearGradient id="Unbenannter_Verlauf_186-40" x1="-80.82" y1="-1975.19" x2="-78.08" y2="-1975.19" gradientTransform="translate(171.02 2343.99)" xlink:href="#Unbenannter_Verlauf_186"/><linearGradient id="Unbenannter_Verlauf_186-41" x1="-30.7" y1="-2000.09" x2="-27.96" y2="-2000.09" gradientTransform="translate(129.08 2375.16)" xlink:href="#Unbenannter_Verlauf_186"/><linearGradient id="Unbenannter_Verlauf_186-42" x1="20.66" y1="-2022.32" x2="23.4" y2="-2022.32" gradientTransform="translate(86.24 2403.24)" xlink:href="#Unbenannter_Verlauf_186"/><linearGradient id="Unbenannter_Verlauf_186-43" x1="73.11" y1="-2041.84" x2="75.85" y2="-2041.84" gradientTransform="translate(42.59 2428.15)" xlink:href="#Unbenannter_Verlauf_186"/><linearGradient id="Unbenannter_Verlauf_186-44" x1="126.51" y1="-2058.59" x2="129.25" y2="-2058.59" gradientTransform="translate(-1.75 2449.82)" xlink:href="#Unbenannter_Verlauf_186"/><linearGradient id="Unbenannter_Verlauf_186-45" x1="180.71" y1="-2072.52" x2="183.45" y2="-2072.52" gradientTransform="translate(-46.63 2468.19)" xlink:href="#Unbenannter_Verlauf_186"/><linearGradient id="Unbenannter_Verlauf_186-46" x1="235.57" y1="-2083.59" x2="238.31" y2="-2083.59" gradientTransform="translate(-91.95 2483.21)" xlink:href="#Unbenannter_Verlauf_186"/><linearGradient id="Unbenannter_Verlauf_186-47" x1="290.93" y1="-2091.78" x2="293.67" y2="-2091.78" gradientTransform="translate(-137.6 2494.83)" xlink:href="#Unbenannter_Verlauf_186"/><linearGradient id="Unbenannter_Verlauf_186-48" x1="346.65" y1="-2097.05" x2="349.39" y2="-2097.05" gradientTransform="translate(-183.42 2503.04)" xlink:href="#Unbenannter_Verlauf_186"/><linearGradient id="Unbenannter_Verlauf_186-49" x1="402.56" y1="-2099.41" x2="405.3" y2="-2099.41" gradientTransform="translate(-229.3 2507.8)" xlink:href="#Unbenannter_Verlauf_186"/><linearGradient id="Unbenannter_Verlauf_186-50" x1="458.52" y1="-2098.83" x2="461.26" y2="-2098.83" gradientTransform="translate(-275.11 2509.1)" xlink:href="#Unbenannter_Verlauf_186"/><linearGradient id="Unbenannter_Verlauf_186-51" x1="514.38" y1="-2095.33" x2="517.12" y2="-2095.33" gradientTransform="translate(-320.73 2506.95)" xlink:href="#Unbenannter_Verlauf_186"/><linearGradient id="Unbenannter_Verlauf_186-52" x1="569.97" y1="-2088.91" x2="572.71" y2="-2088.91" gradientTransform="translate(-366.04 2501.33)" xlink:href="#Unbenannter_Verlauf_186"/><linearGradient id="Unbenannter_Verlauf_186-53" x1="625.15" y1="-2079.59" x2="627.89" y2="-2079.59" gradientTransform="translate(-410.89 2492.28)" xlink:href="#Unbenannter_Verlauf_186"/><linearGradient id="Unbenannter_Verlauf_186-54" x1="679.77" y1="-2067.39" x2="682.51" y2="-2067.39" gradientTransform="translate(-455.21 2479.81)" xlink:href="#Unbenannter_Verlauf_186"/><linearGradient id="Unbenannter_Verlauf_186-55" x1="733.68" y1="-2052.35" x2="736.42" y2="-2052.35" gradientTransform="translate(-498.82 2463.96)" xlink:href="#Unbenannter_Verlauf_186"/><linearGradient id="Unbenannter_Verlauf_186-56" x1="786.72" y1="-2034.51" x2="789.46" y2="-2034.51" gradientTransform="translate(-541.64 2444.77)" xlink:href="#Unbenannter_Verlauf_186"/><linearGradient id="Unbenannter_Verlauf_186-57" x1="838.76" y1="-2013.92" x2="841.5" y2="-2013.92" gradientTransform="translate(-583.52 2422.3)" xlink:href="#Unbenannter_Verlauf_186"/><linearGradient id="Unbenannter_Verlauf_186-58" x1="889.65" y1="-1990.63" x2="892.39" y2="-1990.63" gradientTransform="translate(-624.38 2396.6)" xlink:href="#Unbenannter_Verlauf_186"/><linearGradient id="Unbenannter_Verlauf_186-59" x1="939.25" y1="-1964.72" x2="941.99" y2="-1964.72" gradientTransform="translate(-664.08 2367.75)" xlink:href="#Unbenannter_Verlauf_186"/><linearGradient id="Unbenannter_Verlauf_186-60" x1="987.43" y1="-1936.24" x2="990.17" y2="-1936.24" gradientTransform="translate(-702.54 2335.82)" xlink:href="#Unbenannter_Verlauf_186"/><linearGradient id="Unbenannter_Verlauf_186-61" x1="1034.05" y1="-1905.28" x2="1036.79" y2="-1905.28" gradientTransform="translate(-739.63 2300.9)" xlink:href="#Unbenannter_Verlauf_186"/><linearGradient id="Unbenannter_Verlauf_186-62" x1="1078.98" y1="-1871.92" x2="1081.72" y2="-1871.92" gradientTransform="translate(-775.25 2263.1)" xlink:href="#Unbenannter_Verlauf_186"/><linearGradient id="Unbenannter_Verlauf_186-63" x1="1122.11" y1="-1836.25" x2="1124.85" y2="-1836.25" gradientTransform="translate(-809.31 2222.51)" xlink:href="#Unbenannter_Verlauf_186"/><linearGradient id="Unbenannter_Verlauf_186-64" x1="1163.31" y1="-1798.38" x2="1166.05" y2="-1798.38" gradientTransform="translate(-841.71 2179.25)" xlink:href="#Unbenannter_Verlauf_186"/><linearGradient id="Unbenannter_Verlauf_186-65" x1="1202.38" y1="-1758.31" x2="1205.12" y2="-1758.31" gradientTransform="translate(-872.27 2133.33)" xlink:href="#Unbenannter_Verlauf_186"/><linearGradient id="Unbenannter_Verlauf_186-66" x1="1239.5" y1="-1716.43" x2="1242.24" y2="-1716.43" gradientTransform="translate(-901.21 2085.16)" xlink:href="#Unbenannter_Verlauf_186"/><linearGradient id="Unbenannter_Verlauf_186-67" x1="1274.27" y1="-1672.58" x2="1277.01" y2="-1672.58" gradientTransform="translate(-928.13 2034.61)" xlink:href="#Unbenannter_Verlauf_186"/><linearGradient id="Unbenannter_Verlauf_186-68" x1="1306.69" y1="-1626.97" x2="1309.44" y2="-1626.97" gradientTransform="translate(-953.07 1981.9)" xlink:href="#Unbenannter_Verlauf_186"/><linearGradient id="Unbenannter_Verlauf_186-69" x1="1336.69" y1="-1579.72" x2="1339.43" y2="-1579.72" gradientTransform="translate(-975.97 1927.16)" xlink:href="#Unbenannter_Verlauf_186"/><linearGradient id="Unbenannter_Verlauf_186-70" x1="1364.17" y1="-1530.97" x2="1366.91" y2="-1530.97" gradientTransform="translate(-996.76 1870.56)" xlink:href="#Unbenannter_Verlauf_186"/><linearGradient id="Unbenannter_Verlauf_186-71" x1="1389.07" y1="-1480.85" x2="1391.81" y2="-1480.85" gradientTransform="translate(-1015.37 1812.25)" xlink:href="#Unbenannter_Verlauf_186"/><linearGradient id="Unbenannter_Verlauf_186-72" x1="1411.3" y1="-1429.49" x2="1414.04" y2="-1429.49" gradientTransform="translate(-1031.76 1752.38)" xlink:href="#Unbenannter_Verlauf_186"/><linearGradient id="Unbenannter_Verlauf_186-73" x1="1430.82" y1="-1377.04" x2="1433.56" y2="-1377.04" gradientTransform="translate(-1045.89 1691.13)" xlink:href="#Unbenannter_Verlauf_186"/><linearGradient id="Unbenannter_Verlauf_186-74" x1="1447.57" y1="-1323.64" x2="1450.31" y2="-1323.64" gradientTransform="translate(-1057.71 1628.66)" xlink:href="#Unbenannter_Verlauf_186"/><linearGradient id="Unbenannter_Verlauf_186-75" x1="1461.5" y1="-1269.44" x2="1464.24" y2="-1269.44" gradientTransform="translate(-1067.2 1565.14)" xlink:href="#Unbenannter_Verlauf_186"/><linearGradient id="Unbenannter_Verlauf_186-76" x1="1472.57" y1="-1214.58" x2="1475.31" y2="-1214.58" gradientTransform="translate(-1074.32 1500.75)" xlink:href="#Unbenannter_Verlauf_186"/><linearGradient id="Unbenannter_Verlauf_186-77" x1="1480.76" y1="-1159.22" x2="1483.5" y2="-1159.22" gradientTransform="translate(-1079.06 1435.67)" xlink:href="#Unbenannter_Verlauf_186"/><linearGradient id="Unbenannter_Verlauf_186-78" x1="1486.03" y1="-1103.5" x2="1488.77" y2="-1103.5" gradientTransform="translate(-1081.42 1370.05)" xlink:href="#Unbenannter_Verlauf_186"/><linearGradient id="Unbenannter_Verlauf_186-79" x1="1488.39" y1="-1047.59" x2="1491.13" y2="-1047.59" gradientTransform="translate(-1081.37 1304.1)" xlink:href="#Unbenannter_Verlauf_186"/><linearGradient id="Unbenannter_Verlauf_186-80" x1="1487.81" y1="-991.63" x2="1490.55" y2="-991.63" gradientTransform="translate(-1078.91 1237.99)" xlink:href="#Unbenannter_Verlauf_186"/><linearGradient id="Unbenannter_Verlauf_186-81" x1="1484.31" y1="-935.77" x2="1487.05" y2="-935.77" gradientTransform="translate(-1074.06 1171.91)" xlink:href="#Unbenannter_Verlauf_186"/><linearGradient id="Unbenannter_Verlauf_186-82" x1="1477.89" y1="-880.18" x2="1480.63" y2="-880.18" gradientTransform="translate(-1066.83 1106.02)" xlink:href="#Unbenannter_Verlauf_186"/><linearGradient id="Unbenannter_Verlauf_186-83" x1="1468.57" y1="-825" x2="1471.31" y2="-825" gradientTransform="translate(-1057.25 1040.52)" xlink:href="#Unbenannter_Verlauf_186"/><linearGradient id="Unbenannter_Verlauf_186-84" x1="1456.37" y1="-770.38" x2="1459.11" y2="-770.38" gradientTransform="translate(-1045.32 975.58)" xlink:href="#Unbenannter_Verlauf_186"/><linearGradient id="Unbenannter_Verlauf_186-85" x1="1441.33" y1="-716.47" x2="1444.07" y2="-716.47" gradientTransform="translate(-1031.09 911.39)" xlink:href="#Unbenannter_Verlauf_186"/><linearGradient id="Unbenannter_Verlauf_186-86" x1="1423.49" y1="-663.43" x2="1426.23" y2="-663.43" gradientTransform="translate(-1014.6 848.12)" xlink:href="#Unbenannter_Verlauf_186"/><linearGradient id="Unbenannter_Verlauf_186-87" x1="1402.9" y1="-611.39" x2="1405.64" y2="-611.39" gradientTransform="translate(-995.89 785.93)" xlink:href="#Unbenannter_Verlauf_186"/><linearGradient id="Unbenannter_Verlauf_186-88" x1="1379.61" y1="-560.5" x2="1382.35" y2="-560.5" gradientTransform="translate(-975.02 725.01)" xlink:href="#Unbenannter_Verlauf_186"/><linearGradient id="Unbenannter_Verlauf_186-89" x1="1353.69" y1="-510.9" x2="1356.44" y2="-510.9" gradientTransform="translate(-952.03 665.51)" xlink:href="#Unbenannter_Verlauf_186"/><linearGradient id="Unbenannter_Verlauf_186-90" x1="1325.22" y1="-462.72" x2="1327.96" y2="-462.72" gradientTransform="translate(-927 607.61)" xlink:href="#Unbenannter_Verlauf_186"/><linearGradient id="Unbenannter_Verlauf_186-91" x1="1294.26" y1="-416.1" x2="1297" y2="-416.1" gradientTransform="translate(-899.99 551.46)" xlink:href="#Unbenannter_Verlauf_186"/><linearGradient id="Unbenannter_Verlauf_186-92" x1="1260.9" y1="-371.17" x2="1263.64" y2="-371.17" gradientTransform="translate(-871.08 497.21)" xlink:href="#Unbenannter_Verlauf_186"/><linearGradient id="Unbenannter_Verlauf_186-93" x1="1225.23" y1="-328.04" x2="1227.97" y2="-328.04" gradientTransform="translate(-840.34 445.01)" xlink:href="#Unbenannter_Verlauf_186"/><linearGradient id="Unbenannter_Verlauf_186-94" x1="1187.36" y1="-286.84" x2="1190.1" y2="-286.84" gradientTransform="translate(-807.86 395.02)" xlink:href="#Unbenannter_Verlauf_186"/><linearGradient id="Unbenannter_Verlauf_186-95" x1="1147.38" y1="-247.67" x2="1150.12" y2="-247.67" gradientTransform="translate(-773.73 347.35)" xlink:href="#Unbenannter_Verlauf_186"/><linearGradient id="Unbenannter_Verlauf_186-96" x1="1105.41" y1="-210.65" x2="1108.15" y2="-210.65" gradientTransform="translate(-738.04 302.14)" xlink:href="#Unbenannter_Verlauf_186"/><linearGradient id="Unbenannter_Verlauf_186-97" x1="1061.56" y1="-175.88" x2="1064.3" y2="-175.88" gradientTransform="translate(-700.89 259.53)" xlink:href="#Unbenannter_Verlauf_186"/><linearGradient id="Unbenannter_Verlauf_186-98" x1="1015.95" y1="-143.46" x2="1018.69" y2="-143.46" gradientTransform="translate(-662.39 219.61)" xlink:href="#Unbenannter_Verlauf_186"/><linearGradient id="Unbenannter_Verlauf_186-99" x1="968.7" y1="-113.46" x2="971.44" y2="-113.46" gradientTransform="translate(-622.63 182.51)" xlink:href="#Unbenannter_Verlauf_186"/><linearGradient id="Unbenannter_Verlauf_186-100" x1="919.95" y1="-85.98" x2="922.69" y2="-85.98" gradientTransform="translate(-581.73 148.33)" xlink:href="#Unbenannter_Verlauf_186"/><linearGradient id="Unbenannter_Verlauf_186-101" x1="869.83" y1="-61.08" x2="872.57" y2="-61.08" gradientTransform="translate(-539.79 117.16)" xlink:href="#Unbenannter_Verlauf_186"/><linearGradient id="Unbenannter_Verlauf_186-102" x1="818.47" y1="-38.85" x2="821.21" y2="-38.85" gradientTransform="translate(-496.94 89.08)" xlink:href="#Unbenannter_Verlauf_186"/><linearGradient id="Unbenannter_Verlauf_186-103" x1="766.02" y1="-19.33" x2="768.76" y2="-19.33" gradientTransform="translate(-453.29 64.17)" xlink:href="#Unbenannter_Verlauf_186"/><linearGradient id="Unbenannter_Verlauf_186-104" x1="712.62" y1="-2.58" x2="715.36" y2="-2.58" gradientTransform="translate(-408.96 42.51)" xlink:href="#Unbenannter_Verlauf_186"/><linearGradient id="Unbenannter_Verlauf_186-105" x1="658.42" y1="11.35" x2="661.16" y2="11.35" gradientTransform="translate(-364.07 24.14)" xlink:href="#Unbenannter_Verlauf_186"/><linearGradient id="Unbenannter_Verlauf_186-106" x1="603.56" y1="22.42" x2="606.3" y2="22.42" gradientTransform="translate(-318.75 9.12)" xlink:href="#Unbenannter_Verlauf_186"/><linearGradient id="Unbenannter_Verlauf_186-107" x1="548.2" y1="30.6" x2="550.94" y2="30.6" gradientTransform="translate(-273.12 -2.52)" xlink:href="#Unbenannter_Verlauf_186"/><linearGradient id="Unbenannter_Verlauf_186-108" x1="492.48" y1="35.88" x2="495.22" y2="35.88" gradientTransform="translate(-227.3 -10.72)" xlink:href="#Unbenannter_Verlauf_186"/><linearGradient id="Unbenannter_Verlauf_186-109" x1="436.57" y1="38.24" x2="439.31" y2="38.24" gradientTransform="translate(-181.42 -15.48)" xlink:href="#Unbenannter_Verlauf_186"/><linearGradient id="Unbenannter_Verlauf_186-110" x1="380.61" y1="37.66" x2="383.35" y2="37.66" gradientTransform="translate(-135.6 -16.78)" xlink:href="#Unbenannter_Verlauf_186"/><linearGradient id="Unbenannter_Verlauf_186-111" x1="324.75" y1="34.16" x2="327.49" y2="34.16" gradientTransform="translate(-89.98 -14.62)" xlink:href="#Unbenannter_Verlauf_186"/><linearGradient id="Unbenannter_Verlauf_186-112" x1="269.16" y1="27.74" x2="271.9" y2="27.74" gradientTransform="translate(-44.67 -9.01)" xlink:href="#Unbenannter_Verlauf_186"/><linearGradient id="Unbenannter_Verlauf_186-113" x1="213.98" y1="18.42" x2="216.72" y2="18.42" gradientTransform="translate(0.19 0.09) rotate(-0.01)" xlink:href="#Unbenannter_Verlauf_186"/><linearGradient id="Unbenannter_Verlauf_186-114" x1="159.36" y1="6.22" x2="162.1" y2="6.22" gradientTransform="translate(44.49 12.51)" xlink:href="#Unbenannter_Verlauf_186"/><linearGradient id="Unbenannter_Verlauf_186-115" x1="105.45" y1="-8.82" x2="108.19" y2="-8.82" gradientTransform="translate(88.11 28.37)" xlink:href="#Unbenannter_Verlauf_186"/><linearGradient id="Unbenannter_Verlauf_186-116" x1="52.41" y1="-26.66" x2="55.15" y2="-26.66" gradientTransform="translate(130.92 47.55)" xlink:href="#Unbenannter_Verlauf_186"/><linearGradient id="Unbenannter_Verlauf_186-117" x1="0.37" y1="-47.25" x2="3.11" y2="-47.25" gradientTransform="translate(172.82 70.03)" xlink:href="#Unbenannter_Verlauf_186"/><linearGradient id="Unbenannter_Verlauf_186-118" x1="-50.52" y1="-70.54" x2="-47.78" y2="-70.54" gradientTransform="translate(213.67 95.73)" xlink:href="#Unbenannter_Verlauf_186"/><linearGradient id="Unbenannter_Verlauf_186-119" x1="-100.12" y1="-96.46" x2="-97.38" y2="-96.46" gradientTransform="translate(253.38 124.58)" xlink:href="#Unbenannter_Verlauf_186"/><linearGradient id="Unbenannter_Verlauf_186-120" x1="-148.3" y1="-124.93" x2="-145.56" y2="-124.93" gradientTransform="translate(291.83 156.51)" xlink:href="#Unbenannter_Verlauf_186"/></defs><g class="cls-1"><g id="Ebene_2" data-name="Ebene 2"><g id="Mitarbeiter2"><path class="cls-2" d="M127.87,18.7C19.14,67.14-29.73,194.55,18.71,303.28S194.55,460.89,303.29,412.45,460.89,236.6,412.45,127.87,236.59-29.73,127.87,18.7ZM287.42,376.83a176.54,176.54,0,1,1,89.43-233.1C416.53,232.79,376.48,337.15,287.42,376.83Z"/><g class="cls-3"><rect class="cls-4" x="134" y="19.52" width="2.74" height="31.99" rx="1.37" transform="translate(-2.74 58.16) rotate(-24.01)"/><rect class="cls-5" x="124.68" y="23.97" width="2.74" height="31.99" rx="1.37" transform="translate(-4.4 61.61) rotate(-27.01)"/><rect class="cls-6" x="115.61" y="28.9" width="2.74" height="31.99" rx="1.37" transform="translate(-6.77 64.53) rotate(-30.01)"/><rect class="cls-7" x="106.82" y="34.29" width="2.74" height="31.99" rx="1.37" transform="translate(-9.93 67.06) rotate(-33.01)"/><rect class="cls-8" x="98.31" y="40.14" width="2.74" height="31.99" rx="1.37" transform="translate(-13.95 69.34) rotate(-36.01)"/><rect class="cls-9" x="90.13" y="46.42" width="2.74" height="31.99" rx="1.37" transform="translate(-18.89 71.52) rotate(-39.01)"/><rect class="cls-10" x="82.28" y="53.12" width="2.74" height="31.99" rx="1.37" transform="translate(-24.76 73.75) rotate(-42.01)"/><rect class="cls-11" x="74.8" y="60.23" width="2.74" height="31.99" rx="1.37" transform="translate(-31.59 76.21) rotate(-45.01)"/><rect class="cls-12" x="67.7" y="67.72" width="2.74" height="31.99" rx="1.37" transform="translate(-39.36 79.05) rotate(-48.01)"/><rect class="cls-13" x="61" y="75.57" width="2.74" height="31.99" rx="1.37" transform="translate(-48.04 82.43) rotate(-51.01)"/><rect class="cls-14" x="54.72" y="83.75" width="2.74" height="31.99" rx="1.37" transform="translate(-57.58 86.52) rotate(-54.01)"/><rect class="cls-15" x="48.87" y="92.26" width="2.74" height="31.99" rx="1.37" transform="translate(-67.92 91.46) rotate(-57.01)"/><rect class="cls-16" x="43.48" y="101.06" width="2.74" height="31.99" rx="1.37" transform="translate(-78.95 97.4) rotate(-60.01)"/><rect class="cls-17" x="38.56" y="110.13" width="2.74" height="31.99" rx="1.37" transform="translate(-90.58 104.47) rotate(-63.01)"/><rect class="cls-18" x="34.12" y="119.45" width="2.74" height="31.99" rx="1.37" transform="translate(-102.68 112.8) rotate(-66.01)"/><rect class="cls-19" x="30.17" y="128.98" width="2.74" height="31.99" rx="1.37" transform="translate(-115.11 122.5) rotate(-69.01)"/><rect class="cls-20" x="26.73" y="138.71" width="2.74" height="31.99" rx="1.37" transform="translate(-127.72 133.66) rotate(-72.01)"/><rect class="cls-21" x="23.8" y="148.61" width="2.74" height="31.99" rx="1.37" transform="matrix(0.26, -0.97, 0.97, 0.26, -140.34, 146.35)"/><rect class="cls-22" x="21.39" y="158.64" width="2.74" height="31.99" rx="1.37" transform="translate(-152.79 160.63) rotate(-78.01)"/><rect class="cls-23" x="19.52" y="168.79" width="2.74" height="31.99" rx="1.37" transform="translate(-164.89 176.55) rotate(-81.01)"/><rect class="cls-24" x="18.17" y="179.02" width="2.74" height="31.99" rx="1.37" transform="translate(-176.45 194.11) rotate(-84.01)"/><rect class="cls-25" x="17.36" y="189.31" width="2.74" height="31.99" rx="1.37" transform="translate(-187.27 213.31) rotate(-87.01)"/><rect class="cls-26" x="17.1" y="199.62" width="2.74" height="31.99" rx="1.37" transform="translate(-197.15 234.13) rotate(-90.01)"/><rect class="cls-27" x="17.37" y="209.94" width="2.74" height="31.99" rx="1.37" transform="translate(-205.9 256.52) rotate(-93.01)"/><rect class="cls-28" x="18.18" y="220.23" width="2.74" height="31.99" rx="1.37" transform="translate(-213.33 280.41) rotate(-96.01)"/><rect class="cls-29" x="19.53" y="230.46" width="2.74" height="31.99" rx="1.37" transform="matrix(-0.16, -0.99, 0.99, -0.16, -219.24, 305.7)"/><rect class="cls-30" x="21.41" y="240.61" width="2.74" height="31.99" rx="1.37" transform="translate(-223.46 332.29) rotate(-102.01)"/><rect class="cls-31" x="23.82" y="250.64" width="2.74" height="31.99" rx="1.37" transform="translate(-225.82 360.04) rotate(-105.01)"/><rect class="cls-32" x="26.76" y="260.53" width="2.74" height="31.99" rx="1.37" transform="translate(-226.15 388.79) rotate(-108.01)"/><rect class="cls-33" x="30.2" y="270.26" width="2.74" height="31.99" rx="1.37" transform="translate(-224.33 418.37) rotate(-111.01)"/><rect class="cls-34" x="34.15" y="279.79" width="2.74" height="31.99" rx="1.37" transform="translate(-220.21 448.61) rotate(-114.01)"/><rect class="cls-35" x="38.6" y="289.11" width="2.74" height="31.99" rx="1.37" transform="translate(-213.7 479.29) rotate(-117.01)"/><rect class="cls-36" x="43.53" y="298.18" width="2.74" height="31.99" rx="1.37" transform="translate(-204.69 510.19) rotate(-120.01)"/><rect class="cls-37" x="48.92" y="306.97" width="2.74" height="31.99" rx="1.37" transform="translate(-193.14 541.1) rotate(-123.01)"/><rect class="cls-38" x="54.77" y="315.48" width="2.74" height="31.99" rx="1.37" transform="translate(-178.98 571.78) rotate(-126.01)"/><rect class="cls-39" x="61.05" y="323.66" width="2.74" height="31.99" rx="1.37" transform="translate(-162.2 601.97) rotate(-129.01)"/><rect class="cls-40" x="67.75" y="331.51" width="2.74" height="31.99" rx="1.37" transform="translate(-142.8 631.45) rotate(-132.01)"/><rect class="cls-41" x="74.86" y="338.99" width="2.74" height="31.99" rx="1.37" transform="translate(-120.81 659.95) rotate(-135.01)"/><rect class="cls-42" x="82.35" y="346.09" width="2.74" height="31.99" rx="1.37" transform="translate(-96.28 687.24) rotate(-138.01)"/><rect class="cls-43" x="90.2" y="352.8" width="2.74" height="31.99" rx="1.37" transform="translate(-69.29 713.06) rotate(-141.01)"/><rect class="cls-44" x="98.38" y="359.08" width="2.74" height="31.99" rx="1.37" transform="translate(-39.92 737.18) rotate(-144.01)"/><rect class="cls-45" x="106.89" y="364.92" width="2.74" height="31.99" rx="1.37" transform="translate(-8.32 759.37) rotate(-147.01)"/><rect class="cls-46" x="115.69" y="370.31" width="2.74" height="31.99" rx="1.37" transform="matrix(-0.87, -0.5, 0.5, -0.87, 25.37, 779.41)"/><rect class="cls-47" x="124.76" y="375.23" width="2.74" height="31.99" rx="1.37" transform="translate(60.99 797.09) rotate(-153.01)"/><rect class="cls-48" x="134.08" y="379.67" width="2.74" height="31.99" rx="1.37" transform="translate(98.34 812.23) rotate(-156.01)"/><rect class="cls-49" x="143.61" y="383.62" width="2.74" height="31.99" rx="1.37" transform="translate(137.22 824.65) rotate(-159.01)"/><rect class="cls-50" x="153.34" y="387.06" width="2.74" height="31.99" rx="1.37" transform="translate(177.39 834.19) rotate(-162.01)"/><rect class="cls-51" x="163.24" y="389.99" width="2.74" height="31.99" rx="1.37" transform="translate(218.62 840.73) rotate(-165.01)"/><rect class="cls-52" x="173.27" y="392.4" width="2.74" height="31.99" rx="1.37" transform="translate(260.65 844.15) rotate(-168.01)"/><rect class="cls-53" x="183.42" y="394.28" width="2.74" height="31.99" rx="1.37" transform="matrix(-0.99, -0.16, 0.16, -0.99, 303.22, 844.37)"/><rect class="cls-54" x="193.65" y="395.62" width="2.74" height="31.99" rx="1.37" transform="translate(346.04 841.33) rotate(-174.01)"/><rect class="cls-55" x="203.94" y="396.43" width="2.74" height="31.99" rx="1.37" transform="translate(388.85 834.99) rotate(-177.01)"/><rect class="cls-56" x="214.25" y="396.7" width="2.74" height="31.99" rx="1.37" transform="translate(431.34 825.34) rotate(179.99)"/><rect class="cls-57" x="224.57" y="396.42" width="2.74" height="31.99" rx="1.37" transform="translate(473.24 812.39) rotate(176.99)"/><rect class="cls-58" x="234.86" y="395.61" width="2.74" height="31.99" rx="1.37" transform="matrix(-0.99, 0.1, -0.1, -0.99, 514.27, 796.21)"/><rect class="cls-59" x="245.09" y="394.26" width="2.74" height="31.99" rx="1.37" transform="matrix(-0.99, 0.16, -0.16, -0.99, 554.15, 776.84)"/><rect class="cls-60" x="255.24" y="392.38" width="2.74" height="31.99" rx="1.37" transform="translate(592.59 754.4) rotate(167.99)"/><rect class="cls-61" x="265.27" y="389.97" width="2.74" height="31.99" rx="1.37" transform="translate(629.34 729) rotate(164.99)"/><rect class="cls-62" x="275.16" y="387.03" width="2.74" height="31.99" rx="1.37" transform="translate(664.14 700.8) rotate(161.99)"/><rect class="cls-63" x="284.89" y="383.59" width="2.74" height="31.99" rx="1.37" transform="translate(696.77 669.95) rotate(158.99)"/><rect class="cls-64" x="294.42" y="379.64" width="2.74" height="31.99" rx="1.37" transform="translate(726.99 636.65) rotate(155.99)"/><rect class="cls-65" x="303.74" y="375.19" width="2.74" height="31.99" rx="1.37" transform="translate(754.6 601.12) rotate(152.99)"/><rect class="cls-66" x="312.81" y="370.27" width="2.74" height="31.99" rx="1.37" transform="translate(779.43 563.58) rotate(149.99)"/><rect class="cls-67" x="321.6" y="364.87" width="2.74" height="31.99" rx="1.37" transform="matrix(-0.84, 0.54, -0.54, -0.84, 801.31, 524.28)"/><rect class="cls-68" x="330.11" y="359.02" width="2.74" height="31.99" rx="1.37" transform="translate(820.1 483.47) rotate(143.99)"/><rect class="cls-69" x="338.29" y="352.74" width="2.74" height="31.99" rx="1.37" transform="translate(835.7 441.43) rotate(140.99)"/><rect class="cls-70" x="346.14" y="346.04" width="2.74" height="31.99" rx="1.37" transform="translate(848.01 398.44) rotate(137.99)"/><rect class="cls-71" x="353.62" y="338.93" width="2.74" height="31.99" rx="1.37" transform="translate(856.98 354.77) rotate(134.99)"/><rect class="cls-72" x="360.72" y="331.44" width="2.74" height="31.99" rx="1.37" transform="translate(862.57 310.72) rotate(131.99)"/><rect class="cls-73" x="367.42" y="323.6" width="2.74" height="31.99" rx="1.37" transform="translate(864.78 266.58) rotate(128.99)"/><rect class="cls-74" x="373.71" y="315.41" width="2.74" height="31.99" rx="1.37" transform="translate(863.63 222.64) rotate(125.99)"/><rect class="cls-75" x="379.55" y="306.9" width="2.74" height="31.99" rx="1.37" transform="translate(859.15 179.19) rotate(122.99)"/><rect class="cls-76" x="384.94" y="298.1" width="2.74" height="31.99" rx="1.37" transform="translate(851.44 136.49) rotate(119.99)"/><rect class="cls-77" x="389.86" y="289.03" width="2.74" height="31.99" rx="1.37" transform="translate(840.58 94.82) rotate(116.99)"/><rect class="cls-78" x="394.3" y="279.71" width="2.74" height="31.99" rx="1.37" transform="translate(826.7 54.43) rotate(113.99)"/><rect class="cls-79" x="398.25" y="270.18" width="2.74" height="31.99" rx="1.37" transform="translate(809.94 15.56) rotate(110.99)"/><rect class="cls-80" x="401.69" y="260.45" width="2.74" height="31.99" rx="1.37" transform="translate(790.47 -21.55) rotate(107.99)"/><rect class="cls-81" x="404.62" y="250.56" width="2.74" height="31.99" rx="1.37" transform="matrix(-0.26, 0.97, -0.97, -0.26, 768.46, -56.7)"/><rect class="cls-82" x="407.03" y="240.52" width="2.74" height="31.99" rx="1.37" transform="translate(744.14 -89.7) rotate(101.99)"/><rect class="cls-83" x="408.91" y="230.37" width="2.74" height="31.99" rx="1.37" transform="translate(717.71 -120.38) rotate(98.99)"/><rect class="cls-84" x="410.25" y="220.14" width="2.74" height="31.99" rx="1.37" transform="translate(689.4 -148.61) rotate(95.99)"/><rect class="cls-85" x="411.06" y="209.85" width="2.74" height="31.99" rx="1.37" transform="translate(659.46 -174.25) rotate(92.99)"/><rect class="cls-86" x="411.33" y="199.54" width="2.74" height="31.99" rx="1.37" transform="translate(628.13 -197.21) rotate(89.99)"/><rect class="cls-87" x="411.05" y="189.22" width="2.74" height="31.99" rx="1.37" transform="translate(595.68 -217.42) rotate(86.99)"/><rect class="cls-88" x="410.24" y="178.93" width="2.74" height="31.99" rx="1.37" transform="translate(562.35 -234.84) rotate(83.99)"/><rect class="cls-89" x="408.89" y="168.7" width="2.74" height="31.99" rx="1.37" transform="translate(528.41 -249.43) rotate(80.99)"/><rect class="cls-90" x="407.01" y="158.56" width="2.74" height="31.99" rx="1.37" transform="translate(494.11 -261.21) rotate(77.99)"/><rect class="cls-91" x="404.6" y="148.52" width="2.74" height="31.99" rx="1.37" transform="translate(459.71 -270.21) rotate(74.99)"/><rect class="cls-92" x="401.66" y="138.63" width="2.74" height="31.99" rx="1.37" transform="translate(425.45 -276.47) rotate(71.99)"/><rect class="cls-93" x="398.22" y="128.9" width="2.74" height="31.99" rx="1.37" transform="translate(391.56 -280.08) rotate(68.99)"/><rect class="cls-94" x="394.27" y="119.37" width="2.74" height="31.99" rx="1.37" transform="translate(358.28 -281.12) rotate(65.99)"/><rect class="cls-95" x="389.82" y="110.05" width="2.74" height="31.99" rx="1.37" transform="translate(325.81 -279.72) rotate(62.99)"/><rect class="cls-96" x="384.89" y="100.99" width="2.74" height="31.99" rx="1.37" transform="translate(294.35 -276) rotate(59.99)"/><rect class="cls-97" x="379.5" y="92.19" width="2.74" height="31.99" rx="1.37" transform="translate(264.08 -270.14) rotate(56.99)"/><rect class="cls-98" x="373.65" y="83.68" width="2.74" height="31.99" rx="1.37" transform="translate(235.15 -262.28) rotate(53.99)"/><rect class="cls-99" x="367.37" y="75.5" width="2.74" height="31.99" rx="1.37" transform="translate(207.71 -252.61) rotate(50.99)"/><rect class="cls-100" x="360.67" y="67.65" width="2.74" height="31.99" rx="1.37" transform="translate(181.88 -241.33) rotate(47.99)"/><rect class="cls-101" x="353.56" y="60.17" width="2.74" height="31.99" rx="1.37" transform="translate(157.74 -228.62) rotate(44.99)"/><rect class="cls-102" x="346.07" y="53.07" width="2.74" height="31.99" rx="1.37" transform="translate(135.39 -214.7) rotate(41.99)"/><rect class="cls-103" x="338.22" y="46.37" width="2.74" height="31.99" rx="1.37" transform="translate(114.87 -199.77) rotate(38.99)"/><rect class="cls-104" x="330.04" y="40.09" width="2.74" height="31.99" rx="1.37" transform="translate(96.2 -184.03) rotate(35.99)"/><rect class="cls-105" x="321.53" y="34.24" width="2.74" height="31.99" rx="1.37" transform="translate(79.41 -167.7) rotate(32.99)"/><rect class="cls-106" x="312.73" y="28.85" width="2.74" height="31.99" rx="1.37" transform="translate(64.46 -150.98) rotate(29.99)"/><rect class="cls-107" x="303.66" y="23.93" width="2.74" height="31.99" rx="1.37" transform="translate(51.33 -134.07) rotate(26.99)"/><rect class="cls-108" x="294.34" y="19.49" width="2.74" height="31.99" rx="1.37" transform="translate(39.96 -117.15) rotate(23.99)"/><rect class="cls-109" x="284.81" y="15.54" width="2.74" height="31.99" rx="1.37" transform="translate(30.28 -100.4) rotate(20.99)"/><rect class="cls-110" x="275.08" y="12.1" width="2.74" height="31.99" rx="1.37" transform="translate(22.19 -83.99) rotate(17.99)"/><rect class="cls-111" x="265.19" y="9.17" width="2.74" height="31.99" rx="1.37" transform="translate(15.57 -68.07) rotate(14.99)"/><rect class="cls-112" x="255.15" y="6.76" width="2.74" height="31.99" rx="1.37" transform="translate(10.32 -52.78) rotate(11.99)"/><rect class="cls-113" x="245" y="4.89" width="2.74" height="31.99" rx="1.37" transform="translate(6.29 -38.23) rotate(8.99)"/><rect class="cls-114" x="234.77" y="3.54" width="2.74" height="31.99" rx="1.37" transform="translate(3.33 -24.52) rotate(5.99)"/><rect class="cls-115" x="224.48" y="2.73" width="2.74" height="31.99" rx="1.37" transform="translate(1.28 -11.74) rotate(2.99)"/><rect class="cls-116" x="214.17" y="2.47" width="2.74" height="31.99" rx="1.37"/><rect class="cls-117" x="203.85" y="2.74" width="2.74" height="31.99" rx="1.37" transform="translate(-0.7 10.81) rotate(-3.01)"/><rect class="cls-118" x="193.56" y="3.55" width="2.74" height="31.99" rx="1.37" transform="translate(-0.98 20.53) rotate(-6.01)"/><rect class="cls-119" x="183.33" y="4.9" width="2.74" height="31.99" rx="1.37" transform="translate(-0.99 29.19) rotate(-9.01)"/><rect class="cls-120" x="173.18" y="6.78" width="2.74" height="31.99" rx="1.37" transform="translate(-0.92 36.83) rotate(-12.01)"/><rect class="cls-121" x="163.15" y="9.19" width="2.74" height="31.99" rx="1.37" transform="translate(-0.91 43.48) rotate(-15.01)"/><rect class="cls-122" x="153.26" y="12.13" width="2.74" height="31.99" rx="1.37" transform="translate(-1.12 49.2) rotate(-18.01)"/><rect class="cls-123" x="143.53" y="15.57" width="2.74" height="31.99" rx="1.37" transform="translate(-1.68 54.06) rotate(-21.01)"/></g></g></g></g></svg>