<svg xmlns="http://www.w3.org/2000/svg" xmlns:xlink="http://www.w3.org/1999/xlink" viewBox="0 0 326.72 330.58"><defs><style>.cls-1{fill:#4d4d4d;}.cls-2{fill:#03fffa;}.cls-3{fill:#fff;}.cls-4{fill:url(#Unbenannter_Verlauf_19);}</style><linearGradient id="Unbenannter_Verlauf_19" x1="-80.14" y1="63.9" x2="94.52" y2="63.9" gradientTransform="translate(197.01)" gradientUnits="userSpaceOnUse"><stop offset="0" stop-color="#f2c35f"/><stop offset="0.19" stop-color="#dbb37f" stop-opacity="0.74"/><stop offset="0.41" stop-color="#c4a29f" stop-opacity="0.48"/><stop offset="0.6" stop-color="#b295b9" stop-opacity="0.27"/><stop offset="0.77" stop-color="#a58bcc" stop-opacity="0.12"/><stop offset="0.91" stop-color="#9d85d7" stop-opacity="0.03"/><stop offset="1" stop-color="#9a83db" stop-opacity="0"/></linearGradient></defs><g id="Ebene_2" data-name="Ebene 2"><g id="Ebene_8" data-name="Ebene 8"><path class="cls-1" d="M305.24,67.69c-2.58-.53-5.56,1.56-8.28,3.46-7.38,5.16-9.69,13.16-10.38,15.66-2.72,9.94,1.31,13.73,1.19,27.48-.07,7-1.18,11.95-2.83,19.21-3.1,13.71-7.51,33.17-23,48.33a63.61,63.61,0,0,1-22,14.56c-14.57,5.57-27,3.54-38.23,13.84-3.75,3.46-3.81,5-3.64,5.82,1.23,5.86,22.56,6.6,35.68,5.47,10.5-.91,31.47-2.71,49.7-17.3,24.84-19.87,28-50.22,30.76-76.27C317,101.37,314,69.5,305.24,67.69Z"/><path class="cls-2" d="M305.46,85.92l-.1,0a64.93,64.93,0,0,0-1-14.24,63.36,63.36,0,0,0-2.26-8.86c6.13-11,8.22-25.31,1.71-37.19-.94-1.73-9.56-16.89-25.48-17.11C265,8.37,256.66,18.85,255.77,20c-8.2,10.69-5.81,23.7-4.37,31.5a56.3,56.3,0,0,0,4.32,13.54,3.64,3.64,0,0,0-3.9,2.4l-21.18,48.67a3.8,3.8,0,0,0-.23,1.55l-37.18,1a3.58,3.58,0,0,0-3.76,3.36l-.1,3.72a3.59,3.59,0,0,0,3.57,3.56l52.91,4.28a3.86,3.86,0,0,0,1.49-.25,2.81,2.81,0,0,0,1.06-.23l20.11-7.05A186,186,0,0,1,251,149.64a109.1,109.1,0,0,1-16.43,15l-60.84,8a16.84,16.84,0,0,0-14.54,15.26,12,12,0,0,0-1.34,2.82l-30.56,110-15,8.53c-.77.3-.76,2.16,0,4.14l1.5,3.88c.77,2,2,3.36,2.8,3.06l18.77-4.26a4.53,4.53,0,0,0,2.51-.57l.09,0a.76.76,0,0,0,.26-.18,10,10,0,0,0,4-5.5l35-96.49v0L234.11,305l-12.52,7.14c-.77.3-.77,2.16,0,4.14l1.51,3.88c.77,2,2,3.36,2.79,3.06l19.88-4.5a4.14,4.14,0,0,0,2.63-.44l5.14-2.91c2.63-1.49,3-5.91.74-9.82l-43.92-85,50-21.9a17,17,0,0,0,7.28-6.07,97.53,97.53,0,0,0,31.6-36.6C315.06,124,307.65,93.77,305.46,85.92ZM260.88,74.09a66.61,66.61,0,0,0,9.27,10.74,46.9,46.9,0,0,0,19.11-7.57,31.17,31.17,0,0,1,1.09,10.3,30.19,30.19,0,0,1-.67,4.8,2.66,2.66,0,0,0-1.37.2l-40.05,22.07Z"/><rect class="cls-1" x="252.76" y="225.37" width="13.65" height="71.36" rx="6.83"/><rect class="cls-1" x="275.61" y="276.5" width="11.91" height="56.08" rx="5.67" transform="translate(-122.96 396.11) rotate(-60)"/><rect class="cls-1" x="253.76" y="259.21" width="11.91" height="56.08" rx="5.67"/><rect class="cls-1" x="233.37" y="276.5" width="11.91" height="56.08" rx="5.67" transform="translate(95.25 664.08) rotate(-120)"/><circle class="cls-3" cx="259.5" cy="314.56" r="7.28"/><circle class="cls-3" cx="303.73" cy="323.3" r="7.28"/><circle class="cls-3" cx="217.08" cy="323.3" r="7.28"/><path class="cls-3" d="M308.1,66.08a8.05,8.05,0,0,0-5.82,2.19,7.87,7.87,0,0,0-1.82,4.91c-.43,4.33-.64,6.49,1.27,11.47,3,7.72,11.59,51.22-4.19,68.81-5.31,5.93-17.13,7.65-40.77,11.1a355.12,355.12,0,0,1-42.42,3.64,7.73,7.73,0,0,0-4.91,8c.53,3.69,4,5.42,4.27,5.56a241.14,241.14,0,0,0,32.13,4.09,238.77,238.77,0,0,0,33.09-.32,58,58,0,0,1-16.52,19.07c-21.31,15.59-49,11.9-59.8,10.47-2.19-.29-4-.6-5.19-.82a15.6,15.6,0,0,0,.37,10.92c3,7,10.13,8.74,10.92,8.92,8.89,2.45,34.32,8.16,61.16-3.82,35.5-15.84,47-50.77,50.79-62.44C337.15,117.58,315.57,66.31,308.1,66.08Z"/><rect y="131.07" width="232.37" height="14.2" rx="7.1"/><rect x="21.5" y="223.16" width="187.18" height="14.2" rx="6.37" transform="translate(345.35 115.16) rotate(90)"/><path d="M43.83,143.63c-.07,1.34,20.46.13,38.91,13.38a64.51,64.51,0,0,1,19,22,66.68,66.68,0,0,1,7.1,38.64q.69-37.41,1.37-74.82C57.52,141.81,43.88,142.54,43.83,143.63Z"/><path d="M186.91,143.63C187,145,166.44,143.76,148,157a64.39,64.39,0,0,0-19,22,66.84,66.84,0,0,0-7.1,38.64q-.67-37.41-1.36-74.82C173.22,141.81,186.85,142.54,186.91,143.63Z"/><rect x="91.75" y="319.57" width="46.97" height="4.28" rx="2.02"/><rect class="cls-3" x="125.04" y="54.96" width="5.3" height="78.88" rx="2.65" transform="translate(-21.99 41.36) rotate(-16.96)"/><rect class="cls-3" x="173.26" y="90.63" width="5.1" height="78.88" rx="2.55" transform="translate(45.74 305.88) rotate(-90)"/><path class="cls-4" d="M116.87,58.43,252,0c8.36,5,22.14,15,31.13,32.49,22,42.73-6.07,88.31-7.92,91.21l-136.8,4.09Z"/></g></g></svg>