<svg xmlns="http://www.w3.org/2000/svg" viewBox="0 0 309.86 309.86"><defs><style>.cls-1{fill:aqua;}.cls-2{fill:#1a1a1a;}</style></defs><g id="Ebene_2" data-name="Ebene 2"><g id="Ebene_3" data-name="Ebene 3"><circle class="cls-1" cx="154.93" cy="154.93" r="154.93"/><path class="cls-2" d="M58.29,90.51h14.1v4.7H63.46v8.69h7.1v4.7h-7.1v10.11h8.93v4.7H58.29Z"/><path class="cls-2" d="M75.35,90.51h5.17v28.2H89v4.7H75.35Z"/><path class="cls-2" d="M91.52,90.51h5.17v32.9H91.52Z"/><path class="cls-2" d="M101.58,121.74a8.82,8.82,0,0,1-1.93-6.13v-1.88h4.89V116c0,2.14.89,3.2,2.68,3.2a2.5,2.5,0,0,0,2-.78,3.71,3.71,0,0,0,.69-2.51,7,7,0,0,0-.94-3.64,17.7,17.7,0,0,0-3.48-3.79,21,21,0,0,1-4.47-5.1,10.42,10.42,0,0,1-1.27-5.14,8.55,8.55,0,0,1,2-6A7.38,7.38,0,0,1,107.45,90a7.12,7.12,0,0,1,5.62,2.14,8.91,8.91,0,0,1,1.9,6.13v1.36h-4.89V98a3.79,3.79,0,0,0-.65-2.46,2.38,2.38,0,0,0-1.93-.78c-1.72,0-2.59,1.05-2.59,3.15a6.18,6.18,0,0,0,1,3.34,18.69,18.69,0,0,0,3.5,3.76,19.19,19.19,0,0,1,4.46,5.12,11.3,11.3,0,0,1,1.23,5.4,8.83,8.83,0,0,1-2,6.21,7.52,7.52,0,0,1-5.81,2.16A7.24,7.24,0,0,1,101.58,121.74Z"/><path class="cls-2" d="M121.88,90.51h7l5.35,32.9h-5.17l-.94-6.53V117h-5.87l-.94,6.44h-4.8Zm5.64,22-2.3-16.27h-.1l-2.25,16.27Z"/><path class="cls-2" d="M136.73,90.51h7.81q4,0,5.82,1.86c1.23,1.23,1.84,3.14,1.84,5.71v1.31a9,9,0,0,1-.83,4.14,4.79,4.79,0,0,1-2.51,2.3v.1q3.85,1.3,3.85,6.86v2.82a7.85,7.85,0,0,1-2,5.8,7.93,7.93,0,0,1-5.86,2h-8.13Zm7.19,13.39a3.12,3.12,0,0,0,2.33-.79,3.78,3.78,0,0,0,.78-2.68V98.59a4.11,4.11,0,0,0-.64-2.58,2.4,2.4,0,0,0-2-.8h-2.5v8.69Zm.94,14.81a2.6,2.6,0,0,0,2-.73,3.78,3.78,0,0,0,.65-2.51V112.6a4.79,4.79,0,0,0-.77-3.13,3.29,3.29,0,0,0-2.56-.87H141.9v10.11Z"/><path class="cls-2" d="M155.72,90.51h14.1v4.7h-8.93v8.69H168v4.7h-7.1v10.11h8.93v4.7h-14.1Z"/><path class="cls-2" d="M176.83,95.21h-5.41v-4.7h16v4.7H182v28.2h-5.17Z"/><path class="cls-2" d="M189.89,90.51h5.17V103.9h5.55V90.51h5.17v32.9h-5.17V108.6h-5.55v14.81h-5.17Z"/><path class="cls-2" d="M58.29,135.62h14.1v4.7H63.46V149h7.1v4.7h-7.1v10.1h8.93v4.7H58.29Z"/><path class="cls-2" d="M75.35,135.62H83q4,0,5.83,1.86t1.83,5.71v2c0,3.42-1.12,5.58-3.38,6.49v.09a4.06,4.06,0,0,1,2.66,2.3,11.74,11.74,0,0,1,.77,4.66v5.78a20,20,0,0,0,.1,2.28,5.57,5.57,0,0,0,.46,1.71H86a7.12,7.12,0,0,1-.37-1.5,20.63,20.63,0,0,1-.1-2.54v-6a5.1,5.1,0,0,0-.73-3.15,3.08,3.08,0,0,0-2.51-.89H80.52v14.1H75.35Zm7.05,14.1a3.08,3.08,0,0,0,2.33-.8,3.75,3.75,0,0,0,.77-2.68v-2.53a4.21,4.21,0,0,0-.63-2.59,2.4,2.4,0,0,0-2-.8H80.52v9.4Z"/><path class="cls-2" d="M94.29,135.62h7.38L105,159.17h.1l3.29-23.55h7.38v32.9h-4.89V143.61h-.1L107,168.52h-4.32L98.9,143.61h-.09v24.91H94.29Z"/><path class="cls-2" d="M119.58,135.62h5.17v32.9h-5.17Z"/><path class="cls-2" d="M129.64,166.85a8.82,8.82,0,0,1-1.93-6.13v-1.88h4.89v2.26c0,2.13.89,3.19,2.68,3.19a2.53,2.53,0,0,0,2-.77A3.76,3.76,0,0,0,138,161a7,7,0,0,0-.94-3.64,17.46,17.46,0,0,0-3.48-3.78,21,21,0,0,1-4.47-5.1,10.48,10.48,0,0,1-1.27-5.15,8.57,8.57,0,0,1,2-6,7.39,7.39,0,0,1,5.73-2.14,7.12,7.12,0,0,1,5.62,2.14,8.93,8.93,0,0,1,1.9,6.13v1.37h-4.88V143.1a3.76,3.76,0,0,0-.66-2.47,2.38,2.38,0,0,0-1.93-.78c-1.72,0-2.59,1.05-2.59,3.15a6.27,6.27,0,0,0,1,3.34,18.43,18.43,0,0,0,3.5,3.76,19.34,19.34,0,0,1,4.46,5.12,11.34,11.34,0,0,1,1.23,5.41,8.82,8.82,0,0,1-2,6.2,7.52,7.52,0,0,1-5.81,2.16A7.24,7.24,0,0,1,129.64,166.85Z"/><path class="cls-2" d="M147.71,166.88a8.48,8.48,0,0,1-2-6V143.24a8.48,8.48,0,0,1,2-6,8.63,8.63,0,0,1,11.33,0,8.48,8.48,0,0,1,2,6v3.47H156.1v-3.8c0-2-.86-3.06-2.59-3.06s-2.58,1-2.58,3.06v18.37c0,2,.86,3,2.58,3s2.59-1,2.59-3v-5H161v4.65a8.48,8.48,0,0,1-2,6,8.66,8.66,0,0,1-11.33,0Z"/><path class="cls-2" d="M164.09,135.62h5.17V149h5.55v-13.4H180v32.9h-5.17v-14.8h-5.55v14.8h-5.17Z"/><path class="cls-2" d="M59.56,196l-2.94-11.6H58.2l1.38,5.87c.35,1.44.66,2.89.86,4h0c.19-1.15.55-2.53.94-4L63,184.37h1.57L66,190.26c.33,1.37.64,2.75.81,4h0c.24-1.27.57-2.56.93-4l1.53-5.85h1.54L67.5,196H65.93l-1.46-6a36.72,36.72,0,0,1-.76-3.79h0a37.15,37.15,0,0,1-.9,3.79l-1.65,6Z"/><path class="cls-2" d="M79.15,191.74A4.07,4.07,0,0,1,75,196.16a4,4,0,0,1-4-4.29,4.07,4.07,0,0,1,4.13-4.42C77.54,187.45,79.15,189.19,79.15,191.74Zm-6.61.08c0,1.83,1,3.2,2.53,3.2s2.53-1.36,2.53-3.23c0-1.41-.7-3.2-2.49-3.2S72.54,190.24,72.54,191.82Z"/><path class="cls-2" d="M81.07,190.24c0-1,0-1.83-.07-2.6h1.32l.05,1.63h.07a2.51,2.51,0,0,1,2.31-1.82,1.88,1.88,0,0,1,.43.05v1.43a2.62,2.62,0,0,0-.52-.05,2.13,2.13,0,0,0-2,1.94,4.88,4.88,0,0,0-.07.71V196H81.07Z"/><path class="cls-2" d="M88.26,191.46h0c.21-.29.5-.65.74-1l2.45-2.87H93.3l-3.22,3.42L93.75,196H91.91L89,192l-.77.86V196h-1.5V183.75h1.5Z"/><path class="cls-2" d="M99.76,196l-.12-1.05h0A3.12,3.12,0,0,1,97,196.16a2.37,2.37,0,0,1-2.55-2.39c0-2,1.79-3.12,5-3.1v-.17a1.72,1.72,0,0,0-1.89-1.93,4.11,4.11,0,0,0-2.17.62l-.35-1a5.16,5.16,0,0,1,2.74-.74c2.55,0,3.17,1.74,3.17,3.41V194a12.13,12.13,0,0,0,.13,2Zm-.23-4.25c-1.65,0-3.52.26-3.52,1.88A1.33,1.33,0,0,0,97.43,195a2.08,2.08,0,0,0,2-1.39,1.67,1.67,0,0,0,.08-.49Z"/><path class="cls-2" d="M103.44,183.75H105V189h0a2.85,2.85,0,0,1,1.08-1.07,3.13,3.13,0,0,1,1.55-.43c1.12,0,2.91.69,2.91,3.56v5H109v-4.79c0-1.34-.5-2.47-1.93-2.47a2.16,2.16,0,0,0-2,1.51,1.77,1.77,0,0,0-.1.72v5h-1.52Z"/><path class="cls-2" d="M120.53,191.74a4.07,4.07,0,0,1-4.14,4.42,4,4,0,0,1-4-4.29,4.07,4.07,0,0,1,4.13-4.42C118.92,187.45,120.53,189.19,120.53,191.74Zm-6.61.08c0,1.83,1,3.2,2.53,3.2s2.53-1.36,2.53-3.23c0-1.41-.7-3.2-2.49-3.2S113.92,190.24,113.92,191.82Z"/><path class="cls-2" d="M122.45,183.75H124V196h-1.51Z"/><path class="cls-2" d="M128.19,185.3a.89.89,0,0,1-1,.93.91.91,0,0,1-.91-.93.93.93,0,0,1,1-1A.9.9,0,0,1,128.19,185.3ZM126.51,196v-8.33H128V196Z"/><path class="cls-2" d="M136.47,195.66a5.49,5.49,0,0,1-2.39.48,4,4,0,0,1-4.15-4.25,4.24,4.24,0,0,1,4.48-4.42,5,5,0,0,1,2.1.43l-.35,1.17a3.46,3.46,0,0,0-1.75-.4,3.14,3.14,0,0,0,0,6.27,4.29,4.29,0,0,0,1.86-.42Z"/><path class="cls-2" d="M137.1,198.09a25.83,25.83,0,0,0,1-4.12l1.69-.17a21.16,21.16,0,0,1-1.64,4.18Z"/><path class="cls-2" d="M145.29,189.89c0-.86,0-1.56-.07-2.25h1.32l.07,1.34h.06a2.85,2.85,0,0,1,2.61-1.53,2.46,2.46,0,0,1,2.36,1.67h0a3.34,3.34,0,0,1,.93-1.08,2.84,2.84,0,0,1,1.84-.59c1.11,0,2.74.72,2.74,3.61V196H155.7v-4.72c0-1.6-.58-2.56-1.81-2.56a2,2,0,0,0-1.79,1.38,2.74,2.74,0,0,0-.12.75V196H150.5v-5c0-1.33-.58-2.29-1.73-2.29a2.07,2.07,0,0,0-1.88,1.51,2.05,2.05,0,0,0-.12.74v5h-1.48Z"/><path class="cls-2" d="M161.33,185.3a.94.94,0,0,1-1.87,0,.92.92,0,0,1,.94-1A.9.9,0,0,1,161.33,185.3ZM159.65,196v-8.33h1.51V196Z"/><path class="cls-2" d="M165.5,185.25v2.39h2.17v1.15H165.5v4.5c0,1,.29,1.61,1.13,1.61a3.47,3.47,0,0,0,.88-.1l.07,1.14a3.74,3.74,0,0,1-1.34.2,2.11,2.11,0,0,1-1.64-.63,3.1,3.1,0,0,1-.58-2.17v-4.55h-1.29v-1.15H164v-2Z"/><path class="cls-2" d="M173.07,184.37h1.5v10.34h5V196h-6.46Z"/><path class="cls-2" d="M182.83,185.3a.94.94,0,0,1-1.87,0,.92.92,0,0,1,.94-1A.9.9,0,0,1,182.83,185.3ZM181.15,196v-8.33h1.51V196Z"/><path class="cls-2" d="M186,192.08a2.66,2.66,0,0,0,2.85,2.89,5.5,5.5,0,0,0,2.31-.43l.26,1.09a6.83,6.83,0,0,1-2.77.51,3.87,3.87,0,0,1-4.1-4.2c0-2.51,1.48-4.49,3.91-4.49,2.72,0,3.44,2.39,3.44,3.92a5.27,5.27,0,0,1,0,.71Zm4.44-1.08a2.17,2.17,0,0,0-2.1-2.47A2.53,2.53,0,0,0,186,191Z"/><path class="cls-2" d="M193.73,196c0-.57.07-1.41.07-2.15V183.75h1.49V189h0a3.1,3.1,0,0,1,2.84-1.53c2.06,0,3.53,1.72,3.51,4.25,0,3-1.88,4.46-3.74,4.46a3,3,0,0,1-2.78-1.57h0L195,196Zm1.56-3.34a3.18,3.18,0,0,0,.07.55,2.34,2.34,0,0,0,2.28,1.77c1.58,0,2.53-1.29,2.53-3.2,0-1.67-.86-3.1-2.48-3.1a2.42,2.42,0,0,0-2.31,1.86,3.41,3.41,0,0,0-.09.62Z"/><path class="cls-2" d="M204.43,192.08a2.67,2.67,0,0,0,2.86,2.89,5.5,5.5,0,0,0,2.31-.43l.26,1.09a6.83,6.83,0,0,1-2.77.51,3.87,3.87,0,0,1-4.1-4.2c0-2.51,1.48-4.49,3.91-4.49,2.71,0,3.44,2.39,3.44,3.92,0,.31,0,.56-.05.71Zm4.44-1.08a2.16,2.16,0,0,0-2.1-2.47,2.52,2.52,0,0,0-2.32,2.47Z"/><path class="cls-2" d="M60.32,215.75l3.77-4.91c.36-.44.71-.84,1.09-1.29v0H60.67V208.3H67l0,.94-3.72,4.84c-.34.46-.69.88-1.06,1.31v0h4.87v1.21H60.32Z"/><path class="cls-2" d="M75.61,214.35c0,.87,0,1.62.07,2.28H74.33l-.08-1.36h0a3.12,3.12,0,0,1-2.75,1.55c-1.31,0-2.88-.73-2.88-3.65V208.3H70.1v4.61c0,1.58.48,2.65,1.86,2.65a2.18,2.18,0,0,0,2-1.38,2.11,2.11,0,0,0,.14-.77V208.3h1.52Z"/><path class="cls-2" d="M83.27,212.12h0c.21-.3.5-.66.74-1l2.45-2.87h1.82l-3.22,3.42,3.67,4.91H86.92l-2.88-4-.77.86v3.14h-1.5V204.41h1.5Z"/><path class="cls-2" d="M97.38,212.39a4.08,4.08,0,0,1-4.15,4.43,4,4,0,0,1-4-4.29,4.07,4.07,0,0,1,4.13-4.42A4,4,0,0,1,97.38,212.39Zm-6.61.09c0,1.82,1,3.2,2.53,3.2s2.53-1.36,2.53-3.24c0-1.41-.7-3.2-2.49-3.2S90.77,210.89,90.77,212.48Z"/><path class="cls-2" d="M99.29,210.55c0-.86,0-1.57-.07-2.25h1.35l.08,1.37h0a3,3,0,0,1,2.75-1.56c1.15,0,2.94.69,2.94,3.54v5h-1.51v-4.81c0-1.34-.5-2.46-1.93-2.46a2.21,2.21,0,0,0-2.13,2.26v5H99.29Z"/><path class="cls-2" d="M110.6,205.9v2.4h2.17v1.15H110.6v4.49c0,1,.3,1.62,1.14,1.62a3.54,3.54,0,0,0,.88-.1l.07,1.13a3.76,3.76,0,0,1-1.35.21,2.11,2.11,0,0,1-1.63-.64,3.1,3.1,0,0,1-.59-2.17v-4.54h-1.29V208.3h1.29v-2Z"/><path class="cls-2" d="M114.48,210.89c0-1,0-1.82-.07-2.59h1.32l0,1.63h.07a2.49,2.49,0,0,1,2.31-1.82,1.45,1.45,0,0,1,.43,0v1.43a2,2,0,0,0-.52-.05,2.12,2.12,0,0,0-2,1.94,4.88,4.88,0,0,0-.07.71v4.44h-1.49Z"/><path class="cls-2" d="M127.47,212.39a4.08,4.08,0,0,1-4.15,4.43,4,4,0,0,1-4-4.29,4.06,4.06,0,0,1,4.13-4.42A4,4,0,0,1,127.47,212.39Zm-6.61.09c0,1.82,1,3.2,2.53,3.2s2.53-1.36,2.53-3.24c0-1.41-.7-3.2-2.49-3.2S120.86,210.89,120.86,212.48Z"/><path class="cls-2" d="M129.38,204.41h1.52v12.22h-1.52Z"/><path class="cls-2" d="M133.44,204.41H135v12.22h-1.52Z"/><path class="cls-2" d="M139.19,206a.89.89,0,0,1-1,.92.9.9,0,0,1-.91-.92.92.92,0,0,1,.94-1A.9.9,0,0,1,139.19,206Zm-1.68,10.67V208.3H139v8.33Z"/><path class="cls-2" d="M142.38,212.74a2.67,2.67,0,0,0,2.86,2.89,5.48,5.48,0,0,0,2.3-.43l.26,1.08a6.71,6.71,0,0,1-2.77.52,3.87,3.87,0,0,1-4.1-4.2c0-2.51,1.48-4.49,3.91-4.49,2.72,0,3.44,2.39,3.44,3.92a5.41,5.41,0,0,1-.05.71Zm4.44-1.09a2.16,2.16,0,0,0-2.1-2.46,2.51,2.51,0,0,0-2.32,2.46Z"/><path class="cls-2" d="M150.16,210.89c0-1,0-1.82-.07-2.59h1.33l.05,1.63h.07a2.48,2.48,0,0,1,2.3-1.82,1.37,1.37,0,0,1,.43,0v1.43a2,2,0,0,0-.51-.05,2.11,2.11,0,0,0-2,1.94,3.79,3.79,0,0,0-.07.71v4.44h-1.5Z"/><path class="cls-2" d="M158,205.9v2.4h2.16v1.15H158v4.49c0,1,.29,1.62,1.13,1.62a3.47,3.47,0,0,0,.88-.1l.07,1.13a3.7,3.7,0,0,1-1.34.21,2.11,2.11,0,0,1-1.64-.64,3.1,3.1,0,0,1-.58-2.17v-4.54h-1.3V208.3h1.3v-2Z"/><path class="cls-2" d="M162.64,212.74a2.67,2.67,0,0,0,2.86,2.89,5.48,5.48,0,0,0,2.3-.43l.26,1.08a6.75,6.75,0,0,1-2.77.52,3.87,3.87,0,0,1-4.1-4.2c0-2.51,1.48-4.49,3.91-4.49,2.72,0,3.44,2.39,3.44,3.92a5.41,5.41,0,0,1,0,.71Zm4.44-1.09a2.16,2.16,0,0,0-2.1-2.46,2.51,2.51,0,0,0-2.32,2.46Z"/><path class="cls-2" d="M170.42,210.55c0-.86,0-1.57-.07-2.25h1.33l.07,1.34h.05a2.87,2.87,0,0,1,2.61-1.53,2.46,2.46,0,0,1,2.36,1.67h0a3.35,3.35,0,0,1,.92-1.09,2.84,2.84,0,0,1,1.85-.58c1.1,0,2.73.72,2.73,3.61v4.91h-1.48v-4.72c0-1.6-.58-2.56-1.8-2.56a2,2,0,0,0-1.79,1.37,2.47,2.47,0,0,0-.12.76v5.15h-1.48v-5c0-1.33-.59-2.29-1.74-2.29a2.06,2.06,0,0,0-1.88,1.51,2.21,2.21,0,0,0-.12.74v5h-1.48Z"/><path class="cls-2" d="M196.58,216.25a7.51,7.51,0,0,1-3.06.55c-3.27,0-5.73-2.07-5.73-5.87a5.77,5.77,0,0,1,6.06-6.09,6.32,6.32,0,0,1,2.75.51l-.36,1.22a5.55,5.55,0,0,0-2.34-.48c-2.72,0-4.53,1.74-4.53,4.79,0,2.84,1.64,4.66,4.46,4.66a6,6,0,0,0,2.44-.48Z"/><path class="cls-2" d="M198.41,204.41h1.51v5.19h0a2.82,2.82,0,0,1,1.08-1.06,3.1,3.1,0,0,1,1.55-.43c1.12,0,2.91.69,2.91,3.56v5H204v-4.79c0-1.34-.49-2.48-1.92-2.48a2.17,2.17,0,0,0-2,1.52,1.73,1.73,0,0,0-.11.72v5h-1.51Z"/><path class="cls-2" d="M212.58,216.63l-.12-1h-.06a3.1,3.1,0,0,1-2.54,1.24,2.38,2.38,0,0,1-2.55-2.4c0-2,1.79-3.11,5-3.1v-.17a1.72,1.72,0,0,0-1.9-1.93,4.11,4.11,0,0,0-2.16.63l-.35-1a5.16,5.16,0,0,1,2.74-.74c2.55,0,3.17,1.74,3.17,3.4v3.12a12.21,12.21,0,0,0,.13,2Zm-.23-4.25c-1.65,0-3.53.25-3.53,1.87a1.35,1.35,0,0,0,1.43,1.45,2.08,2.08,0,0,0,2-1.4,1.56,1.56,0,0,0,.08-.48Z"/><path class="cls-2" d="M223.8,212.39a4.08,4.08,0,0,1-4.15,4.43,4,4,0,0,1-4-4.29,4.06,4.06,0,0,1,4.13-4.42A4,4,0,0,1,223.8,212.39Zm-6.61.09c0,1.82,1.05,3.2,2.53,3.2s2.53-1.36,2.53-3.24c0-1.41-.71-3.2-2.5-3.2S217.19,210.89,217.19,212.48Z"/><path class="cls-2" d="M225.5,215.08a4,4,0,0,0,2,.6c1.1,0,1.62-.55,1.62-1.24s-.43-1.12-1.55-1.53c-1.5-.53-2.21-1.36-2.21-2.36,0-1.34,1.09-2.44,2.88-2.44a4.26,4.26,0,0,1,2,.51l-.38,1.1a3.32,3.32,0,0,0-1.71-.48c-.89,0-1.39.52-1.39,1.14s.5,1,1.58,1.41c1.45.55,2.19,1.27,2.19,2.51,0,1.47-1.14,2.5-3.12,2.5a4.81,4.81,0,0,1-2.34-.57Z"/><path class="cls-2" d="M232,215.73a1,1,0,0,1,1-1.08,1,1,0,0,1,1,1.08,1,1,0,1,1-2,0Z"/></g></g></svg>