<svg xmlns="http://www.w3.org/2000/svg" viewBox="0 0 309.86 309.86"><defs><style>.cls-1{fill:#8161dc;}.cls-2{fill:#1a1a1a;}</style></defs><g id="Ebene_2" data-name="Ebene 2"><g id="Ebene_3" data-name="Ebene 3"><circle class="cls-1" cx="154.93" cy="154.93" r="154.93"/><path class="cls-2" d="M38.26,90.51h14.1v4.7H43.43v8.69h7.1v4.7h-7.1v10.11h8.93v4.7H38.26Z"/><path class="cls-2" d="M54,90.51h5.22L62.56,116h.1L66,90.51h4.75l-5,32.9H58.94Z"/><path class="cls-2" d="M76,90.51h7l5.36,32.9H83.15l-.94-6.53V117H76.33l-.94,6.44H70.6Zm5.64,22L79.29,96.24H79.2l-2.26,16.27Z"/><path class="cls-2" d="M38.26,135.62h5.17V149H49v-13.4h5.17v32.9H49v-14.8H43.43v14.8H38.26Z"/><path class="cls-2" d="M62,135.62h7l5.36,32.9H69.19L68.25,162v.09H62.37l-.93,6.44h-4.8Zm5.64,22-2.3-16.26h-.1L63,157.62Z"/><path class="cls-2" d="M78.54,166.85a8.74,8.74,0,0,1-2-6.13v-25.1h5.17V161.1a3.61,3.61,0,0,0,.68,2.44,2.91,2.91,0,0,0,3.9,0A3.56,3.56,0,0,0,87,161.1V135.62h5v25.1a8.69,8.69,0,0,1-2,6.13A7.41,7.41,0,0,1,84.28,169,7.42,7.42,0,0,1,78.54,166.85Z"/><path class="cls-2" d="M97.25,166.85a8.69,8.69,0,0,1-2-6.13v-17.3a8.71,8.71,0,0,1,2-6.13,8.75,8.75,0,0,1,11.47,0,8.75,8.75,0,0,1,2,6.13v2.82H105.8V143.1c0-2.17-.89-3.25-2.68-3.25s-2.67,1.08-2.67,3.25v18c0,2.13.89,3.19,2.67,3.19s2.68-1.06,2.68-3.19v-6.44h-2.58V150h7.47v10.76a8.74,8.74,0,0,1-2,6.13,8.75,8.75,0,0,1-11.47,0Z"/><path class="cls-2" d="M114,135.62h7.66c2.66,0,4.61.62,5.83,1.86s1.83,3.14,1.83,5.71v2q0,5.13-3.38,6.49v.09a4,4,0,0,1,2.65,2.3,11.55,11.55,0,0,1,.78,4.66v5.78q0,1.41.09,2.28a5.6,5.6,0,0,0,.47,1.71H124.7a7.18,7.18,0,0,1-.38-1.5,23.69,23.69,0,0,1-.09-2.54v-6a5.16,5.16,0,0,0-.73-3.15,3.1,3.1,0,0,0-2.52-.89H119.2v14.1H114Zm7,14.1a3.05,3.05,0,0,0,2.32-.8,3.75,3.75,0,0,0,.78-2.68v-2.53a4.19,4.19,0,0,0-.63-2.59,2.42,2.42,0,0,0-2-.8H119.2v9.4Z"/><path class="cls-2" d="M134.76,166.85a8.69,8.69,0,0,1-2-6.13v-25.1H138V161.1a3.61,3.61,0,0,0,.68,2.44,2.52,2.52,0,0,0,2,.75,2.49,2.49,0,0,0,1.95-.75,3.56,3.56,0,0,0,.69-2.44V135.62h5v25.1a8.69,8.69,0,0,1-2,6.13,8.74,8.74,0,0,1-11.46,0Z"/><path class="cls-2" d="M151.86,135.62h6.49l5,19.69h.09V135.62h4.61v32.9h-5.31l-6.21-24h-.09v24h-4.61Z"/><path class="cls-2" d="M171.93,135.62h7.9q3.85,0,5.78,2.07t1.93,6.06v16.64q0,4-1.93,6.06t-5.78,2.07h-7.9Zm7.81,28.2a2.52,2.52,0,0,0,1.95-.75,3.61,3.61,0,0,0,.68-2.44V143.52a3.64,3.64,0,0,0-.68-2.45,2.52,2.52,0,0,0-1.95-.75H177.1v23.5Z"/><path class="cls-2" d="M47.42,190.88c-.09-1.62-.19-3.57-.17-5h0c-.4,1.36-.88,2.8-1.47,4.4l-2,5.63H42.55l-1.88-5.52c-.55-1.64-1-3.14-1.34-4.51h0c0,1.44-.12,3.39-.23,5.13l-.31,5H37.33l.81-11.6h1.91L42,190c.48,1.43.88,2.7,1.17,3.91h0c.3-1.17.71-2.45,1.23-3.91l2.06-5.61h1.91l.73,11.6H47.71Z"/><path class="cls-2" d="M56.15,196,56,194.92H56a3.14,3.14,0,0,1-2.55,1.24,2.37,2.37,0,0,1-2.55-2.39c0-2,1.79-3.12,5-3.1v-.17A1.72,1.72,0,0,0,54,188.57a4.11,4.11,0,0,0-2.17.62l-.35-1a5.16,5.16,0,0,1,2.74-.74c2.55,0,3.17,1.74,3.17,3.41V194a12.13,12.13,0,0,0,.13,2Zm-.23-4.25c-1.65,0-3.52.26-3.52,1.88A1.33,1.33,0,0,0,53.82,195a2.08,2.08,0,0,0,2-1.39,1.67,1.67,0,0,0,.08-.49Z"/><path class="cls-2" d="M59.83,189.89c0-.86,0-1.56-.07-2.25h1.35l.08,1.38h0A3,3,0,0,1,64,187.45c1.15,0,2.94.69,2.94,3.55v5H65.41v-4.8c0-1.34-.5-2.46-1.93-2.46a2.14,2.14,0,0,0-2,1.55,2.07,2.07,0,0,0-.1.7v5H59.83Z"/><path class="cls-2" d="M74,196l-.12-1.05h0a3.12,3.12,0,0,1-2.55,1.24,2.37,2.37,0,0,1-2.55-2.39c0-2,1.79-3.12,5-3.1v-.17a1.72,1.72,0,0,0-1.89-1.93,4.11,4.11,0,0,0-2.17.62l-.35-1a5.16,5.16,0,0,1,2.74-.74c2.55,0,3.17,1.74,3.17,3.41V194a12.13,12.13,0,0,0,.13,2Zm-.23-4.25c-1.65,0-3.52.26-3.52,1.88A1.33,1.33,0,0,0,71.67,195a2.08,2.08,0,0,0,2-1.39,1.67,1.67,0,0,0,.08-.49Z"/><path class="cls-2" d="M84.86,187.64c0,.6-.07,1.27-.07,2.29v4.83c0,1.92-.38,3.09-1.19,3.81a4.41,4.41,0,0,1-3,1,5.34,5.34,0,0,1-2.77-.69l.38-1.15a4.73,4.73,0,0,0,2.44.65c1.55,0,2.69-.81,2.69-2.91v-.93h0a3,3,0,0,1-2.66,1.4c-2.06,0-3.54-1.76-3.54-4.07,0-2.82,1.84-4.42,3.75-4.42a2.77,2.77,0,0,1,2.6,1.45h0l.06-1.26Zm-1.57,3.29a2.11,2.11,0,0,0-.08-.69,2.19,2.19,0,0,0-2.12-1.6c-1.45,0-2.48,1.22-2.48,3.15,0,1.63.83,3,2.46,3a2.2,2.2,0,0,0,2.1-1.55,2.53,2.53,0,0,0,.12-.81Z"/><path class="cls-2" d="M88.15,192.08A2.66,2.66,0,0,0,91,195a5.5,5.5,0,0,0,2.31-.43l.26,1.09a6.79,6.79,0,0,1-2.77.51,3.87,3.87,0,0,1-4.1-4.2c0-2.51,1.48-4.49,3.91-4.49,2.72,0,3.44,2.39,3.44,3.92a5.27,5.27,0,0,1,0,.71ZM92.59,191a2.16,2.16,0,0,0-2.1-2.47A2.53,2.53,0,0,0,88.16,191Z"/><path class="cls-2" d="M95.93,189.89c0-.86,0-1.56-.07-2.25h1.32l.07,1.34h.06a2.85,2.85,0,0,1,2.61-1.53,2.46,2.46,0,0,1,2.36,1.67h0a3.34,3.34,0,0,1,.93-1.08,2.84,2.84,0,0,1,1.84-.59c1.11,0,2.74.72,2.74,3.61V196h-1.48v-4.72c0-1.6-.58-2.56-1.81-2.56a2,2,0,0,0-1.79,1.38,2.74,2.74,0,0,0-.12.75V196h-1.48v-5c0-1.33-.58-2.29-1.74-2.29a2.25,2.25,0,0,0-2,2.25v5H95.93Z"/><path class="cls-2" d="M111.13,192.08A2.66,2.66,0,0,0,114,195a5.5,5.5,0,0,0,2.31-.43l.26,1.09a6.79,6.79,0,0,1-2.77.51,3.87,3.87,0,0,1-4.1-4.2c0-2.51,1.48-4.49,3.91-4.49,2.72,0,3.44,2.39,3.44,3.92a5.27,5.27,0,0,1,0,.71Zm4.44-1.08a2.16,2.16,0,0,0-2.1-2.47,2.52,2.52,0,0,0-2.32,2.47Z"/><path class="cls-2" d="M118.91,189.89c0-.86,0-1.56-.07-2.25h1.34l.09,1.38h0a3.07,3.07,0,0,1,2.76-1.57c1.15,0,2.94.69,2.94,3.55v5h-1.52v-4.8c0-1.34-.49-2.46-1.92-2.46a2.13,2.13,0,0,0-2,1.55,2.06,2.06,0,0,0-.11.7v5h-1.51Z"/><path class="cls-2" d="M130.22,185.25v2.39h2.17v1.15h-2.17v4.49c0,1,.29,1.62,1.13,1.62a3.47,3.47,0,0,0,.88-.1l.07,1.14a3.74,3.74,0,0,1-1.34.2,2.11,2.11,0,0,1-1.64-.63,3.1,3.1,0,0,1-.58-2.17v-4.55h-1.29v-1.15h1.29v-2Z"/><path class="cls-2" d="M137.79,184.37h1.5v10.34h5V196h-6.46Z"/><path class="cls-2" d="M146.47,192.08a2.66,2.66,0,0,0,2.85,2.89,5.5,5.5,0,0,0,2.31-.43l.26,1.09a6.79,6.79,0,0,1-2.77.51,3.87,3.87,0,0,1-4.1-4.2c0-2.51,1.48-4.49,3.91-4.49,2.72,0,3.44,2.39,3.44,3.92a5.27,5.27,0,0,1-.05.71Zm4.44-1.08a2.17,2.17,0,0,0-2.1-2.47,2.53,2.53,0,0,0-2.33,2.47Z"/><path class="cls-2" d="M158.86,196l-.12-1.05h-.05a3.12,3.12,0,0,1-2.55,1.24,2.37,2.37,0,0,1-2.55-2.39c0-2,1.79-3.12,5-3.1v-.17a1.72,1.72,0,0,0-1.89-1.93,4.11,4.11,0,0,0-2.17.62l-.34-1a5.1,5.1,0,0,1,2.73-.74c2.55,0,3.17,1.74,3.17,3.41V194a11.07,11.07,0,0,0,.14,2Zm-.22-4.25c-1.66,0-3.53.26-3.53,1.88a1.33,1.33,0,0,0,1.43,1.44,2.07,2.07,0,0,0,2-1.39,1.69,1.69,0,0,0,.09-.49Z"/><path class="cls-2" d="M169.74,183.75v10.07c0,.74,0,1.58.07,2.15h-1.36l-.07-1.45h0a3.08,3.08,0,0,1-2.84,1.64c-2,0-3.56-1.7-3.56-4.23,0-2.78,1.71-4.48,3.74-4.48a2.79,2.79,0,0,1,2.51,1.27h0v-5ZM168.22,191a2.33,2.33,0,0,0-.07-.64,2.21,2.21,0,0,0-2.18-1.75c-1.57,0-2.5,1.37-2.5,3.22,0,1.68.83,3.08,2.47,3.08a2.39,2.39,0,0,0,2.28-2.46Z"/><path class="cls-2" d="M183.1,183.75v10.07c0,.74,0,1.58.06,2.15h-1.35l-.07-1.45h0a3.08,3.08,0,0,1-2.84,1.64c-2,0-3.56-1.7-3.56-4.23,0-2.78,1.7-4.48,3.73-4.48a2.79,2.79,0,0,1,2.52,1.27h0v-5ZM181.58,191a2.79,2.79,0,0,0-.07-.64,2.22,2.22,0,0,0-2.18-1.75c-1.57,0-2.5,1.37-2.5,3.22,0,1.68.83,3.08,2.46,3.08a2.27,2.27,0,0,0,2.22-1.81,2.7,2.7,0,0,0,.07-.65Z"/><path class="cls-2" d="M187.3,185.3a.94.94,0,0,1-1.88,0,.93.93,0,0,1,1-1A.9.9,0,0,1,187.3,185.3ZM185.61,196v-8.33h1.52V196Z"/><path class="cls-2" d="M190.48,192.08a2.67,2.67,0,0,0,2.86,2.89,5.53,5.53,0,0,0,2.31-.43l.25,1.09a6.75,6.75,0,0,1-2.77.51,3.86,3.86,0,0,1-4.09-4.2c0-2.51,1.48-4.49,3.9-4.49,2.72,0,3.45,2.39,3.45,3.92a4.93,4.93,0,0,1-.06.71Zm4.44-1.08a2.16,2.16,0,0,0-2.1-2.47A2.52,2.52,0,0,0,190.5,191Z"/><path class="cls-2" d="M202.51,187.64l1.1,4.23c.25.93.47,1.79.62,2.65h.06c.19-.84.46-1.73.74-2.63l1.36-4.25h1.27l1.29,4.17c.31,1,.55,1.87.74,2.71h.05a24.66,24.66,0,0,1,.64-2.7l1.19-4.18h1.5L210.38,196H209l-1.27-4a26.7,26.7,0,0,1-.74-2.73h0a23.4,23.4,0,0,1-.75,2.75l-1.34,4h-1.38L201,187.64Z"/><path class="cls-2" d="M215.25,192.08a2.67,2.67,0,0,0,2.86,2.89,5.53,5.53,0,0,0,2.31-.43l.25,1.09a6.75,6.75,0,0,1-2.77.51,3.86,3.86,0,0,1-4.09-4.2c0-2.51,1.48-4.49,3.9-4.49,2.72,0,3.45,2.39,3.45,3.92a4.93,4.93,0,0,1-.06.71Zm4.44-1.08a2.16,2.16,0,0,0-2.1-2.47,2.52,2.52,0,0,0-2.32,2.47Z"/><path class="cls-2" d="M224.72,185.3a.89.89,0,0,1-1,.93.91.91,0,0,1-.92-.93.93.93,0,0,1,.95-1A.9.9,0,0,1,224.72,185.3ZM223,196v-8.33h1.52V196Z"/><path class="cls-2" d="M227.06,196v-7.78c0-2,.46-3.06,1.22-3.75a3.61,3.61,0,0,1,2.53-.88,2.86,2.86,0,0,1,3.07,2.91,2.66,2.66,0,0,1-.4,1.41c-.77.33-1.24.81-1.24,1.39s.34.95.88,1.5a3.6,3.6,0,0,1,1.39,2.65c0,1.62-1.17,2.74-3.08,2.74a4.11,4.11,0,0,1-1.82-.36l.27-1.16a3.14,3.14,0,0,0,1.45.35,1.49,1.49,0,0,0,1.69-1.45,2.26,2.26,0,0,0-.93-1.77,3.21,3.21,0,0,1-1.35-2.29,2.41,2.41,0,0,1,1.53-2.12,1.76,1.76,0,0,0,.16-.74,1.7,1.7,0,0,0-1.79-1.87c-1.33,0-2.07.93-2.07,3.37V196Z"/><path class="cls-2" d="M235.32,198.09a24.79,24.79,0,0,0,1-4.12l1.68-.17a20.6,20.6,0,0,1-1.63,4.18Z"/><path class="cls-2" d="M38.19,208.3l1.11,4.23c.24.93.46,1.79.62,2.65h0c.19-.84.46-1.74.74-2.63l1.36-4.25h1.27l1.29,4.16c.31,1,.55,1.88.74,2.72h.05a24.66,24.66,0,0,1,.64-2.7l1.19-4.18h1.5l-2.69,8.33H44.68l-1.27-4c-.29-.93-.53-1.76-.74-2.74h0a26.36,26.36,0,0,1-.76,2.76l-1.35,4H39.16l-2.51-8.33Z"/><path class="cls-2" d="M52,206a.94.94,0,0,1-1.88,0,.92.92,0,0,1,1-.94A.89.89,0,0,1,52,206Zm-1.69,10.68V208.3h1.52v8.33Z"/><path class="cls-2" d="M55.13,212.74A2.68,2.68,0,0,0,58,215.63a5.53,5.53,0,0,0,2.31-.43l.25,1.08a6.71,6.71,0,0,1-2.77.52,3.87,3.87,0,0,1-4.09-4.2c0-2.51,1.48-4.49,3.9-4.49,2.72,0,3.45,2.39,3.45,3.92a5.08,5.08,0,0,1-.06.71Zm4.44-1.09a2.15,2.15,0,0,0-2.1-2.46,2.51,2.51,0,0,0-2.32,2.46Z"/><path class="cls-2" d="M66.56,210.55c0-.86,0-1.57-.07-2.25h1.33l.07,1.34h0a2.87,2.87,0,0,1,2.62-1.53,2.46,2.46,0,0,1,2.35,1.67h0a3.37,3.37,0,0,1,.93-1.09,2.83,2.83,0,0,1,1.84-.58c1.1,0,2.73.72,2.73,3.61v4.91H77v-4.72c0-1.6-.59-2.56-1.81-2.56a2,2,0,0,0-1.79,1.37,2.47,2.47,0,0,0-.12.76v5.15H71.78v-5c0-1.33-.59-2.29-1.74-2.29a2.06,2.06,0,0,0-1.88,1.51,2.21,2.21,0,0,0-.12.74v5H66.56Z"/><path class="cls-2" d="M85.53,216.63l-.12-1h0a3.12,3.12,0,0,1-2.55,1.24,2.38,2.38,0,0,1-2.55-2.4c0-2,1.79-3.11,5-3.09v-.18a1.72,1.72,0,0,0-1.89-1.93,4.18,4.18,0,0,0-2.17.63l-.34-1a5.13,5.13,0,0,1,2.73-.74c2.55,0,3.17,1.74,3.17,3.4v3.12a11.14,11.14,0,0,0,.14,2Zm-.22-4.25c-1.66,0-3.53.25-3.53,1.87a1.34,1.34,0,0,0,1.43,1.45,2.07,2.07,0,0,0,2-1.4,1.57,1.57,0,0,0,.09-.48Z"/><path class="cls-2" d="M89.22,210.55c0-.86,0-1.57-.07-2.25h1.34l.08,1.37h0a3.06,3.06,0,0,1,2.75-1.56c1.16,0,3,.69,3,3.54v5H94.79v-4.81c0-1.34-.5-2.46-1.93-2.46a2.21,2.21,0,0,0-2.13,2.26v5H89.22Z"/><path class="cls-2" d="M102.42,210.55c0-.86,0-1.57-.07-2.25h1.32l.07,1.34h.06a2.85,2.85,0,0,1,2.61-1.53,2.46,2.46,0,0,1,2.36,1.67h0a3.5,3.5,0,0,1,.93-1.09,2.83,2.83,0,0,1,1.84-.58c1.11,0,2.74.72,2.74,3.61v4.91h-1.48v-4.72c0-1.6-.58-2.56-1.81-2.56a2,2,0,0,0-1.79,1.37,2.82,2.82,0,0,0-.12.76v5.15h-1.48v-5c0-1.33-.58-2.29-1.73-2.29a2.06,2.06,0,0,0-1.88,1.51,2,2,0,0,0-.12.74v5h-1.48Z"/><path class="cls-2" d="M118.46,206a.89.89,0,0,1-1,.93.9.9,0,0,1-.92-.93.92.92,0,0,1,1-.94A.89.89,0,0,1,118.46,206Zm-1.69,10.68V208.3h1.52v8.33Z"/><path class="cls-2" d="M122.63,205.9v2.4h2.17v1.15h-2.17v4.49c0,1,.29,1.62,1.13,1.62a3.47,3.47,0,0,0,.88-.1l.07,1.13a3.7,3.7,0,0,1-1.34.21,2.11,2.11,0,0,1-1.64-.64,3.1,3.1,0,0,1-.58-2.17v-4.54h-1.29V208.3h1.29v-2Z"/><path class="cls-2" d="M130,214.8a5.26,5.26,0,0,0,2.69.76c1.53,0,2.43-.81,2.43-2s-.62-1.7-2.19-2.31c-1.89-.67-3.06-1.65-3.06-3.28,0-1.81,1.49-3.15,3.75-3.15a5.27,5.27,0,0,1,2.56.56l-.41,1.23a4.57,4.57,0,0,0-2.2-.55c-1.59,0-2.19.94-2.19,1.73,0,1.09.71,1.62,2.31,2.24,2,.76,3,1.71,3,3.41s-1.33,3.34-4.06,3.34a6.07,6.07,0,0,1-3-.74Z"/><path class="cls-2" d="M140.41,205.9v2.4h2.17v1.15h-2.17v4.49c0,1,.29,1.62,1.13,1.62a3.47,3.47,0,0,0,.88-.1l.07,1.13a3.7,3.7,0,0,1-1.34.21,2.11,2.11,0,0,1-1.64-.64,3.1,3.1,0,0,1-.58-2.17v-4.54h-1.29V208.3h1.29v-2Z"/><path class="cls-2" d="M151.25,214.35c0,.87,0,1.62.07,2.28H150l-.09-1.36h0a3.15,3.15,0,0,1-2.76,1.55c-1.3,0-2.87-.73-2.87-3.65V208.3h1.51v4.61c0,1.58.49,2.65,1.86,2.65a2.2,2.2,0,0,0,2-1.38,2.11,2.11,0,0,0,.14-.77V208.3h1.51Z"/><path class="cls-2" d="M153.77,210.89c0-1,0-1.82-.07-2.59H155l0,1.63h.07a2.49,2.49,0,0,1,2.31-1.82,1.45,1.45,0,0,1,.43,0v1.43a2,2,0,0,0-.52-.06,2.13,2.13,0,0,0-2,1.95,4.88,4.88,0,0,0-.07.71v4.44h-1.49Z"/><path class="cls-2" d="M161,212.12h0c.21-.3.5-.66.74-1l2.45-2.87H166l-3.22,3.42,3.67,4.91h-1.84l-2.88-4-.77.86v3.14h-1.5V204.41H161Z"/><path class="cls-2" d="M175.07,212.39a4.07,4.07,0,0,1-4.14,4.43,4,4,0,0,1-4-4.29,4.07,4.07,0,0,1,4.14-4.42A3.94,3.94,0,0,1,175.07,212.39Zm-6.6.09c0,1.82,1.05,3.2,2.53,3.2s2.53-1.36,2.53-3.24c0-1.41-.71-3.2-2.5-3.2S168.47,210.89,168.47,212.48Zm.06-6.54a.89.89,0,0,1,.88-.88.85.85,0,0,1,.85.88.86.86,0,0,1-.85.88A.88.88,0,0,1,168.53,205.94Zm3.21,0a.86.86,0,0,1,.86-.88.84.84,0,0,1,.84.88.85.85,0,1,1-1.7,0Z"/><path class="cls-2" d="M177,211c0-1.06,0-1.92-.07-2.71h1.36l.07,1.42h0a3.28,3.28,0,0,1,3-1.61c2,0,3.53,1.7,3.53,4.23,0,3-1.82,4.48-3.79,4.48a2.93,2.93,0,0,1-2.56-1.31h0V220H177Zm1.49,2.23a3.66,3.66,0,0,0,.07.61,2.34,2.34,0,0,0,2.27,1.78c1.61,0,2.54-1.31,2.54-3.22,0-1.67-.88-3.1-2.48-3.1a2.41,2.41,0,0,0-2.29,1.88,2.52,2.52,0,0,0-.11.62Z"/><path class="cls-2" d="M186.94,216.63v-7.18h-1.17V208.3h1.17v-.4a3.91,3.91,0,0,1,1-2.91,2.89,2.89,0,0,1,2-.77,3.52,3.52,0,0,1,1.29.24l-.21,1.17a2.13,2.13,0,0,0-1-.19c-1.29,0-1.62,1.13-1.62,2.41v.45h2v1.15h-2v7.18Z"/><path class="cls-2" d="M192.43,212.74a2.67,2.67,0,0,0,2.85,2.89,5.5,5.5,0,0,0,2.31-.43l.26,1.08a6.75,6.75,0,0,1-2.77.52,3.87,3.87,0,0,1-4.1-4.2c0-2.51,1.48-4.49,3.91-4.49,2.72,0,3.44,2.39,3.44,3.92a5.41,5.41,0,0,1-.05.71Zm4.44-1.09a2.16,2.16,0,0,0-2.1-2.46,2.52,2.52,0,0,0-2.33,2.46Z"/><path class="cls-2" d="M200.21,210.55c0-.86,0-1.57-.07-2.25h1.34l.09,1.37h0a3.07,3.07,0,0,1,2.76-1.56c1.15,0,2.94.69,2.94,3.54v5h-1.52v-4.81c0-1.34-.5-2.46-1.92-2.46a2.17,2.17,0,0,0-2,1.55,2.48,2.48,0,0,0-.1.71v5h-1.51Z"/><path class="cls-2" d="M220.38,214.35c0,.87,0,1.62.07,2.28h-1.34l-.09-1.36h0a3.15,3.15,0,0,1-2.76,1.55c-1.3,0-2.87-.73-2.87-3.65V208.3h1.51v4.61c0,1.58.49,2.65,1.86,2.65a2.2,2.2,0,0,0,2-1.38,2.11,2.11,0,0,0,.14-.77V208.3h1.51Z"/><path class="cls-2" d="M222.9,210.55c0-.86,0-1.57-.07-2.25h1.32l.07,1.34h.05a2.88,2.88,0,0,1,2.62-1.53,2.48,2.48,0,0,1,2.36,1.67h0a3.5,3.5,0,0,1,.93-1.09,2.83,2.83,0,0,1,1.84-.58c1.1,0,2.74.72,2.74,3.61v4.91h-1.48v-4.72c0-1.6-.59-2.56-1.81-2.56a2,2,0,0,0-1.79,1.37,2.47,2.47,0,0,0-.12.76v5.15h-1.48v-5c0-1.33-.59-2.29-1.74-2.29a2.06,2.06,0,0,0-1.87,1.51,2,2,0,0,0-.13.74v5H222.9Z"/><path class="cls-2" d="M244.43,208.3c0,.6-.07,1.27-.07,2.29v4.83c0,1.91-.38,3.08-1.19,3.8a4.41,4.41,0,0,1-3,1,5.44,5.44,0,0,1-2.77-.68l.38-1.16a4.63,4.63,0,0,0,2.44.66c1.55,0,2.69-.81,2.69-2.91v-.93h0a3,3,0,0,1-2.66,1.39c-2.06,0-3.54-1.75-3.54-4.06,0-2.82,1.84-4.42,3.75-4.42a2.76,2.76,0,0,1,2.6,1.44h0l.07-1.25Zm-1.57,3.28a2.19,2.19,0,0,0-2.2-2.29c-1.45,0-2.48,1.23-2.48,3.15,0,1.64.83,3,2.46,3a2.22,2.22,0,0,0,2.1-1.55,2.53,2.53,0,0,0,.12-.81Z"/><path class="cls-2" d="M247.72,212.74a2.67,2.67,0,0,0,2.85,2.89,5.5,5.5,0,0,0,2.31-.43l.26,1.08a6.75,6.75,0,0,1-2.77.52,3.87,3.87,0,0,1-4.1-4.2c0-2.51,1.48-4.49,3.91-4.49,2.72,0,3.44,2.39,3.44,3.92a5.41,5.41,0,0,1-.05.71Zm4.44-1.09a2.16,2.16,0,0,0-2.1-2.46,2.52,2.52,0,0,0-2.33,2.46Z"/><path class="cls-2" d="M255.5,204.41H257v5.19h0a2.82,2.82,0,0,1,1.08-1.06,3.1,3.1,0,0,1,1.55-.43c1.12,0,2.91.69,2.91,3.56v5h-1.52v-4.79c0-1.34-.5-2.48-1.92-2.48a2.19,2.19,0,0,0-2,1.52,1.93,1.93,0,0,0-.1.72v5H255.5Z"/><path class="cls-2" d="M266.81,205.9v2.4H269v1.15h-2.17v4.49c0,1,.29,1.62,1.13,1.62a3.47,3.47,0,0,0,.88-.1l.07,1.13a3.7,3.7,0,0,1-1.34.21,2.11,2.11,0,0,1-1.64-.64,3.1,3.1,0,0,1-.58-2.17v-4.54H264V208.3h1.3v-2Z"/><path class="cls-2" d="M270.27,215.73a1,1,0,1,1,1,1.09A1,1,0,0,1,270.27,215.73Z"/></g></g></svg>