<svg xmlns="http://www.w3.org/2000/svg" viewBox="0 0 309.86 309.86"><defs><style>.cls-1{fill:#617edc;}.cls-2{fill:#1a1a1a;}</style></defs><g id="Ebene_2" data-name="Ebene 2"><g id="Ebene_3" data-name="Ebene 3"><circle class="cls-1" cx="154.93" cy="154.93" r="154.93"/><path class="cls-2" d="M36.38,90.51H44q3.85,0,5.78,2.07t1.93,6.06v3.24q0,4-1.93,6.07C48.49,109.33,46.56,110,44,110H41.55v13.4H36.38ZM44,105.31a2.45,2.45,0,0,0,1.91-.7,3.6,3.6,0,0,0,.63-2.4v-3.9a3.6,3.6,0,0,0-.63-2.4,2.45,2.45,0,0,0-1.91-.7H41.55v10.1Z"/><path class="cls-2" d="M54.52,90.51h5.17V103.9h5.55V90.51h5.17v32.9H65.24V108.6H59.69v14.81H54.52Z"/><path class="cls-2" d="M76.05,121.74a8.69,8.69,0,0,1-2-6.13V90.51h5.17V116a3.57,3.57,0,0,0,.69,2.45,2.49,2.49,0,0,0,1.95.75,2.52,2.52,0,0,0,2-.75,3.62,3.62,0,0,0,.68-2.45V90.51h5v25.1a8.74,8.74,0,0,1-2,6.13,7.42,7.42,0,0,1-5.74,2.14A7.39,7.39,0,0,1,76.05,121.74Z"/><path class="cls-2" d="M94.8,121.72a8.6,8.6,0,0,1-2-6.11V98.31a8.6,8.6,0,0,1,2-6.11A7.6,7.6,0,0,1,100.63,90a7.6,7.6,0,0,1,5.83,2.16,8.64,8.64,0,0,1,2,6.11v17.3a8.64,8.64,0,0,1-2,6.11,7.6,7.6,0,0,1-5.83,2.16A7.6,7.6,0,0,1,94.8,121.72Zm8.51-5.78V98c0-2.16-.89-3.24-2.68-3.24S98,95.82,98,98v18c0,2.16.89,3.24,2.68,3.24S103.31,118.1,103.31,115.94Z"/><path class="cls-2" d="M112,90.51h6.48l5,19.69h.1V90.51h4.6v32.9h-5.31l-6.2-24h-.1v24H112Z"/><path class="cls-2" d="M133.62,121.74a8.74,8.74,0,0,1-2-6.13V98.31a8.74,8.74,0,0,1,2-6.13,8.75,8.75,0,0,1,11.47,0,8.69,8.69,0,0,1,2,6.13v2.82h-4.89V98c0-2.16-.89-3.24-2.68-3.24s-2.68,1.08-2.68,3.24v18c0,2.13.89,3.2,2.68,3.2s2.68-1.07,2.68-3.2v-6.44h-2.59v-4.7h7.48v10.77a8.69,8.69,0,0,1-2,6.13,8.75,8.75,0,0,1-11.47,0Z"/><path class="cls-2" d="M159.61,123.41h-1.69v-5h5v4.46L160,129.05h-2.4Zm7,0h-1.69v-5h5v4.46L167,129.05H164.6Z"/><path class="cls-2" d="M173.72,90.51h5.17v13.86l6.58-13.86h5.17l-6.16,12.08,6.25,20.82h-5.41L181,108.74l-2.06,4.19v10.48h-5.17Z"/><path class="cls-2" d="M193.17,90.51h5.17v32.9h-5.17Z"/><path class="cls-2" d="M206.24,95.21h-5.41v-4.7h16v4.7h-5.41v28.2h-5.17Z"/><path class="cls-2" d="M223.82,95.21h-5.41v-4.7h16v4.7H229v28.2h-5.17Z"/><path class="cls-2" d="M241.82,109.4l-6.25-18.89h5.5l3.52,12.08h.1l3.52-12.08h5L247,109.4v14h-5.17Z"/><path class="cls-2" d="M254.65,96.67l2.87-6.16h2.39l-2,5.64h1.69v5h-5Zm7,0,2.86-6.16h2.4l-2,5.64h1.69v5h-5Z"/><path class="cls-2" d="M47.28,168.43a9.59,9.59,0,0,1-3.43.56A7.6,7.6,0,0,1,38,166.83a8.64,8.64,0,0,1-2-6.11v-17.3a8.64,8.64,0,0,1,2-6.11,7.6,7.6,0,0,1,5.83-2.16,7.6,7.6,0,0,1,5.83,2.16,8.6,8.6,0,0,1,2,6.11v17.3a9.32,9.32,0,0,1-1.46,5.4,1.35,1.35,0,0,0,.71.62,4.2,4.2,0,0,0,1.22.14H53v4.7H51.61Q48.08,171.58,47.28,168.43Zm-.75-7.38v-18c0-2.16-.89-3.24-2.68-3.24s-2.68,1.08-2.68,3.24v18c0,2.16.9,3.24,2.68,3.24S46.53,163.21,46.53,161.05Z"/><path class="cls-2" d="M57,166.85a8.74,8.74,0,0,1-2-6.13v-25.1h5.17V161.1a3.61,3.61,0,0,0,.68,2.44,2.52,2.52,0,0,0,1.95.75,2.49,2.49,0,0,0,1.95-.75,3.56,3.56,0,0,0,.69-2.44V135.62h5v25.1a8.69,8.69,0,0,1-2,6.13A7.38,7.38,0,0,1,62.7,169,7.42,7.42,0,0,1,57,166.85Z"/><path class="cls-2" d="M78,135.62h7l5.36,32.9H85.17L84.23,162v.09H78.35l-.94,6.44H72.62Zm5.64,22-2.3-16.27h-.09L79,157.62Z"/><path class="cls-2" d="M94.35,166.88a8.48,8.48,0,0,1-1.95-6V143.23a8.47,8.47,0,0,1,1.95-6,8.63,8.63,0,0,1,11.33,0,8.47,8.47,0,0,1,1.95,6v3.48h-4.89v-3.8q0-3.06-2.58-3.06c-1.72,0-2.59,1-2.59,3.06v18.37c0,2,.87,3,2.59,3s2.58-1,2.58-3v-5h4.89v4.66a8.48,8.48,0,0,1-1.95,6A7.32,7.32,0,0,1,100,169,7.33,7.33,0,0,1,94.35,166.88Z"/><path class="cls-2" d="M110.73,135.62h5.17V149h5.55v-13.4h5.17v32.9h-5.17v-14.8H115.9v14.8h-5.17Z"/><path class="cls-2" d="M37.26,184.37v6.87c0,2.6,1.15,3.7,2.7,3.7,1.72,0,2.82-1.14,2.82-3.7v-6.87H44.3v6.76c0,3.57-1.88,5-4.39,5s-4.17-1.36-4.17-5v-6.83Z"/><path class="cls-2" d="M46.85,189.89c0-.86,0-1.56-.07-2.25h1.34l.09,1.38h0A3.07,3.07,0,0,1,51,187.45c1.16,0,2.95.69,2.95,3.55v5H52.42v-4.8c0-1.34-.5-2.46-1.93-2.46a2.15,2.15,0,0,0-2,1.55,2.36,2.36,0,0,0-.1.7v5H46.85Z"/><path class="cls-2" d="M56.19,194.42a4,4,0,0,0,2,.6c1.1,0,1.62-.55,1.62-1.24s-.43-1.11-1.55-1.53c-1.5-.53-2.2-1.36-2.2-2.36,0-1.34,1.08-2.44,2.87-2.44a4.14,4.14,0,0,1,2,.52l-.38,1.1a3.22,3.22,0,0,0-1.7-.48c-.9,0-1.4.51-1.4,1.13s.5,1,1.58,1.41c1.45.55,2.19,1.28,2.19,2.52,0,1.46-1.14,2.49-3.12,2.49a4.71,4.71,0,0,1-2.34-.57Z"/><path class="cls-2" d="M64.06,192.08A2.66,2.66,0,0,0,66.92,195a5.48,5.48,0,0,0,2.3-.43l.26,1.09a6.75,6.75,0,0,1-2.77.51,3.87,3.87,0,0,1-4.1-4.2c0-2.51,1.48-4.49,3.91-4.49,2.72,0,3.44,2.39,3.44,3.92a5.27,5.27,0,0,1,0,.71ZM68.5,191a2.16,2.16,0,0,0-2.1-2.47A2.52,2.52,0,0,0,64.08,191Z"/><path class="cls-2" d="M71.84,190.24c0-1,0-1.83-.07-2.6H73.1l.05,1.63h.07a2.51,2.51,0,0,1,2.3-1.82,1.75,1.75,0,0,1,.43.05v1.43a2.51,2.51,0,0,0-.51-.05,2.12,2.12,0,0,0-2,1.94,3.79,3.79,0,0,0-.07.71V196h-1.5Z"/><path class="cls-2" d="M78.14,192.08A2.67,2.67,0,0,0,81,195a5.45,5.45,0,0,0,2.3-.43l.26,1.09a6.75,6.75,0,0,1-2.77.51,3.86,3.86,0,0,1-4.09-4.2c0-2.51,1.48-4.49,3.9-4.49,2.72,0,3.44,2.39,3.44,3.92a5.27,5.27,0,0,1-.05.71ZM82.58,191a2.16,2.16,0,0,0-2.1-2.47A2.52,2.52,0,0,0,78.16,191Z"/><path class="cls-2" d="M89.62,184.37h1.5V190h0c.31-.44.62-.86.91-1.24l3.55-4.35h1.86l-4.2,4.92L97.82,196H96l-3.82-5.7-1.1,1.28V196h-1.5Z"/><path class="cls-2" d="M105.77,193.7c0,.86,0,1.62.07,2.27h-1.35l-.08-1.36h0a3.12,3.12,0,0,1-2.75,1.55c-1.31,0-2.87-.72-2.87-3.65v-4.87h1.51v4.61c0,1.59.48,2.65,1.86,2.65a2.2,2.2,0,0,0,2-1.37,2.41,2.41,0,0,0,.13-.78v-5.11h1.52Zm-5.91-8.42a.89.89,0,0,1,.88-.88.88.88,0,0,1,0,1.76A.87.87,0,0,1,99.86,185.28Zm3.21,0a.86.86,0,0,1,.86-.88.88.88,0,0,1,0,1.76A.85.85,0,0,1,103.07,185.28Z"/><path class="cls-2" d="M108.28,189.89c0-.86,0-1.56-.07-2.25h1.35l.08,1.38h0a3.06,3.06,0,0,1,2.75-1.57c1.15,0,2.94.69,2.94,3.55v5h-1.51v-4.8c0-1.34-.5-2.46-1.93-2.46a2.14,2.14,0,0,0-2,1.55,2.07,2.07,0,0,0-.1.7v5h-1.52Z"/><path class="cls-2" d="M117.63,194.42a4,4,0,0,0,2,.6c1.1,0,1.61-.55,1.61-1.24s-.43-1.11-1.55-1.53c-1.49-.53-2.2-1.36-2.2-2.36a2.57,2.57,0,0,1,2.87-2.44,4.08,4.08,0,0,1,2,.52l-.38,1.1a3.16,3.16,0,0,0-1.7-.48c-.89,0-1.39.51-1.39,1.13s.5,1,1.58,1.41c1.45.55,2.19,1.28,2.19,2.52,0,1.46-1.14,2.49-3.12,2.49a4.71,4.71,0,0,1-2.34-.57Z"/><path class="cls-2" d="M126.48,185.25v2.39h2.17v1.15h-2.17v4.49c0,1,.29,1.62,1.13,1.62a3.47,3.47,0,0,0,.88-.1l.07,1.14a3.74,3.74,0,0,1-1.34.2,2.11,2.11,0,0,1-1.64-.63,3.1,3.1,0,0,1-.58-2.17v-4.55h-1.3v-1.15H125v-2Z"/><path class="cls-2" d="M130.35,183.75h1.51V196h-1.51Z"/><path class="cls-2" d="M135.25,192.08a2.67,2.67,0,0,0,2.86,2.89,5.5,5.5,0,0,0,2.31-.43l.26,1.09a6.83,6.83,0,0,1-2.77.51,3.87,3.87,0,0,1-4.1-4.2c0-2.51,1.48-4.49,3.91-4.49,2.72,0,3.44,2.39,3.44,3.92,0,.31,0,.56,0,.71ZM139.7,191a2.17,2.17,0,0,0-2.1-2.47,2.52,2.52,0,0,0-2.33,2.47Z"/><path class="cls-2" d="M143,190.24c0-1,0-1.83-.07-2.6h1.32l.05,1.63h.07a2.51,2.51,0,0,1,2.31-1.82,1.88,1.88,0,0,1,.43.05v1.43a2.62,2.62,0,0,0-.52-.05,2.13,2.13,0,0,0-2,1.94,4.88,4.88,0,0,0-.07.71V196H143Z"/><path class="cls-2" d="M150.42,185.3a.89.89,0,0,1-1,.93.91.91,0,0,1-.92-.93.93.93,0,0,1,1-1A.9.9,0,0,1,150.42,185.3ZM148.73,196v-8.33h1.52V196Z"/><path class="cls-2" d="M152.56,194.42a3.94,3.94,0,0,0,2,.6c1.1,0,1.62-.55,1.62-1.24s-.43-1.11-1.55-1.53c-1.5-.53-2.2-1.36-2.2-2.36,0-1.34,1.08-2.44,2.87-2.44a4.08,4.08,0,0,1,2.05.52l-.38,1.1a3.22,3.22,0,0,0-1.7-.48c-.9,0-1.4.51-1.4,1.13s.5,1,1.59,1.41c1.44.55,2.18,1.28,2.18,2.52,0,1.46-1.13,2.49-3.11,2.49a4.68,4.68,0,0,1-2.34-.57Z"/><path class="cls-2" d="M165.52,195.66a5.58,5.58,0,0,1-2.4.48,4,4,0,0,1-4.14-4.25,4.23,4.23,0,0,1,4.47-4.42,5,5,0,0,1,2.1.43l-.34,1.17a3.47,3.47,0,0,0-1.76-.4,3.14,3.14,0,0,0,0,6.27,4.29,4.29,0,0,0,1.86-.42Z"/><path class="cls-2" d="M167.29,183.75h1.52V189h0a2.85,2.85,0,0,1,1.08-1.07,3.1,3.1,0,0,1,1.55-.43c1.12,0,2.91.69,2.91,3.56v5h-1.51v-4.78c0-1.35-.5-2.48-1.93-2.48a2.17,2.17,0,0,0-2,1.51,1.77,1.77,0,0,0-.1.72v5h-1.52Z"/><path class="cls-2" d="M177.69,192.08a2.66,2.66,0,0,0,2.85,2.89,5.5,5.5,0,0,0,2.31-.43l.26,1.09a6.79,6.79,0,0,1-2.77.51,3.87,3.87,0,0,1-4.1-4.2c0-2.51,1.48-4.49,3.91-4.49,2.72,0,3.44,2.39,3.44,3.92a5.27,5.27,0,0,1-.05.71Zm4.44-1.08a2.16,2.16,0,0,0-2.1-2.47A2.53,2.53,0,0,0,177.7,191Z"/><path class="cls-2" d="M199,190.88c-.09-1.62-.19-3.57-.18-5h-.05c-.39,1.36-.88,2.8-1.46,4.4l-2,5.63h-1.14l-1.87-5.52c-.55-1.64-1-3.14-1.34-4.51h0c0,1.44-.12,3.39-.22,5.13l-.31,5h-1.43l.81-11.6h1.91l2,5.61c.48,1.43.88,2.7,1.17,3.91h.05c.29-1.17.71-2.45,1.22-3.91l2.07-5.61H200l.72,11.6h-1.46Z"/><path class="cls-2" d="M210,193.7c0,.86,0,1.62.07,2.27H208.7l-.08-1.36h0a3.12,3.12,0,0,1-2.75,1.55c-1.31,0-2.87-.72-2.87-3.65v-4.87h1.51v4.61c0,1.59.48,2.65,1.86,2.65a2.19,2.19,0,0,0,2-1.37,2.41,2.41,0,0,0,.13-.78v-5.11H210Z"/><path class="cls-2" d="M212.29,194.42a4,4,0,0,0,2,.6c1.1,0,1.62-.55,1.62-1.24s-.43-1.11-1.55-1.53c-1.5-.53-2.2-1.36-2.2-2.36,0-1.34,1.08-2.44,2.87-2.44a4.08,4.08,0,0,1,2,.52l-.38,1.1a3.22,3.22,0,0,0-1.7-.48c-.9,0-1.4.51-1.4,1.13s.5,1,1.59,1.41c1.44.55,2.18,1.28,2.18,2.52,0,1.46-1.13,2.49-3.11,2.49a4.68,4.68,0,0,1-2.34-.57Z"/><path class="cls-2" d="M220.15,192.08A2.67,2.67,0,0,0,223,195a5.53,5.53,0,0,0,2.31-.43l.25,1.09a6.75,6.75,0,0,1-2.77.51,3.86,3.86,0,0,1-4.09-4.2c0-2.51,1.48-4.49,3.9-4.49,2.72,0,3.45,2.39,3.45,3.92a4.93,4.93,0,0,1-.06.71Zm4.44-1.08a2.16,2.16,0,0,0-2.1-2.47,2.52,2.52,0,0,0-2.32,2.47Z"/><path class="cls-2" d="M239.12,191.74a4.07,4.07,0,0,1-4.15,4.42,4,4,0,0,1-4-4.29,4.07,4.07,0,0,1,4.13-4.42A4,4,0,0,1,239.12,191.74Zm-6.61.08c0,1.83,1.05,3.2,2.53,3.2s2.53-1.36,2.53-3.23c0-1.41-.7-3.2-2.49-3.2S232.51,190.24,232.51,191.82Z"/><path class="cls-2" d="M241,183.75h1.52V189h0a2.81,2.81,0,0,1,1.09-1.07,3.07,3.07,0,0,1,1.54-.43c1.12,0,2.91.69,2.91,3.56v5h-1.51v-4.78c0-1.35-.5-2.48-1.93-2.48a2.18,2.18,0,0,0-2,1.51,1.77,1.77,0,0,0-.1.72v5H241Z"/><path class="cls-2" d="M250.59,189.89c0-.86,0-1.56-.07-2.25h1.34L252,189h0a3.07,3.07,0,0,1,2.75-1.57c1.16,0,3,.69,3,3.55v5h-1.52v-4.8c0-1.34-.5-2.46-1.92-2.46a2.16,2.16,0,0,0-2,1.55,2.36,2.36,0,0,0-.1.7v5h-1.51Z"/><path class="cls-2" d="M261,192.08a2.67,2.67,0,0,0,2.86,2.89,5.53,5.53,0,0,0,2.31-.43l.25,1.09a6.75,6.75,0,0,1-2.77.51,3.86,3.86,0,0,1-4.09-4.2c0-2.51,1.48-4.49,3.91-4.49,2.71,0,3.44,2.39,3.44,3.92,0,.31,0,.56-.05.71Zm4.44-1.08a2.16,2.16,0,0,0-2.1-2.47A2.52,2.52,0,0,0,261,191Z"/><path class="cls-2" d="M35.76,205H42v1.25H37.26v3.86h4.39v1.24H37.26v5.25h-1.5Z"/><path class="cls-2" d="M50.46,214.35c0,.87,0,1.62.07,2.28H49.19l-.09-1.36h0a3.15,3.15,0,0,1-2.76,1.55c-1.31,0-2.87-.73-2.87-3.65V208.3H45v4.61c0,1.58.48,2.65,1.86,2.65a2.2,2.2,0,0,0,2-1.38,2.34,2.34,0,0,0,.14-.77V208.3h1.51Z"/><path class="cls-2" d="M53,210.9c0-1,0-1.83-.07-2.6h1.33l.05,1.63h.07a2.49,2.49,0,0,1,2.31-1.82,1.45,1.45,0,0,1,.43,0v1.43a2,2,0,0,0-.52-.06,2.13,2.13,0,0,0-2,1.95,4.88,4.88,0,0,0-.07.71v4.44H53Z"/><path class="cls-2" d="M64.37,216.32a5.69,5.69,0,0,1-2.39.48,4,4,0,0,1-4.15-4.25,4.23,4.23,0,0,1,4.47-4.43,5.14,5.14,0,0,1,2.1.43l-.34,1.17a3.6,3.6,0,0,0-1.76-.39,2.88,2.88,0,0,0-2.94,3.15,2.85,2.85,0,0,0,2.89,3.11,4.31,4.31,0,0,0,1.86-.41Z"/><path class="cls-2" d="M66.14,204.41h1.52v5.19h0a2.78,2.78,0,0,1,1.09-1.06,3.07,3.07,0,0,1,1.55-.43c1.11,0,2.9.69,2.9,3.56v5H71.72v-4.79c0-1.34-.5-2.48-1.93-2.48a2.18,2.18,0,0,0-2,1.52,1.74,1.74,0,0,0-.1.72v5H66.14Z"/><path class="cls-2" d="M77.45,205.9v2.4h2.17v1.15H77.45v4.49c0,1,.3,1.62,1.14,1.62a3.54,3.54,0,0,0,.88-.1l.06,1.13a3.66,3.66,0,0,1-1.34.21,2.11,2.11,0,0,1-1.63-.64A3.1,3.1,0,0,1,76,214v-4.54H74.68V208.3H76v-2Z"/><path class="cls-2" d="M85.56,208.3,87.2,213c.27.75.49,1.44.67,2.13h0c.19-.69.43-1.38.7-2.13l1.62-4.68h1.58l-3.26,8.33H87.11l-3.17-8.33Z"/><path class="cls-2" d="M100.62,212.39a4.08,4.08,0,0,1-4.15,4.43,4,4,0,0,1-4-4.29,4.06,4.06,0,0,1,4.13-4.42A4,4,0,0,1,100.62,212.39Zm-6.61.09c0,1.82,1,3.2,2.53,3.2s2.53-1.36,2.53-3.24c0-1.41-.7-3.2-2.49-3.2S94,210.9,94,212.48Z"/><path class="cls-2" d="M102.53,210.9c0-1,0-1.83-.07-2.6h1.33l0,1.63h.07a2.49,2.49,0,0,1,2.31-1.82,1.45,1.45,0,0,1,.43,0v1.43a2,2,0,0,0-.52-.06,2.13,2.13,0,0,0-2,1.95,3.79,3.79,0,0,0-.07.71v4.44h-1.5Z"/><path class="cls-2" d="M111.81,210.55c0-.86,0-1.57-.07-2.25h1.34l.09,1.37h0a3.08,3.08,0,0,1,2.76-1.56c1.15,0,2.94.69,2.94,3.54v5h-1.51v-4.81c0-1.34-.5-2.46-1.93-2.46a2.21,2.21,0,0,0-2.13,2.26v5h-1.52Z"/><path class="cls-2" d="M128.9,212.39a4.07,4.07,0,0,1-4.14,4.43,4,4,0,0,1-4-4.29,4.07,4.07,0,0,1,4.13-4.42A3.94,3.94,0,0,1,128.9,212.39Zm-6.61.09c0,1.82,1,3.2,2.53,3.2s2.53-1.36,2.53-3.24c0-1.41-.7-3.2-2.49-3.2S122.29,210.9,122.29,212.48Z"/><path class="cls-2" d="M136.75,216.32a5.65,5.65,0,0,1-2.39.48,4,4,0,0,1-4.15-4.25,4.24,4.24,0,0,1,4.48-4.43,5.22,5.22,0,0,1,2.1.43l-.35,1.17a3.58,3.58,0,0,0-1.75-.39,2.89,2.89,0,0,0-2.95,3.15,2.85,2.85,0,0,0,2.9,3.11,4.26,4.26,0,0,0,1.85-.41Z"/><path class="cls-2" d="M138.53,204.41H140v5.19h0a2.82,2.82,0,0,1,1.08-1.06,3.1,3.1,0,0,1,1.55-.43c1.12,0,2.91.69,2.91,3.56v5H144.1v-4.79c0-1.34-.5-2.48-1.92-2.48a2.19,2.19,0,0,0-2,1.52,1.93,1.93,0,0,0-.1.72v5h-1.51Z"/><path class="cls-2" d="M151.52,215.08a4,4,0,0,0,2,.6c1.1,0,1.62-.55,1.62-1.24s-.43-1.12-1.55-1.53c-1.5-.53-2.2-1.36-2.2-2.36,0-1.34,1.08-2.44,2.87-2.44a4.26,4.26,0,0,1,2.05.51l-.38,1.1a3.31,3.31,0,0,0-1.7-.48c-.9,0-1.4.52-1.4,1.14s.5,1,1.58,1.41c1.45.55,2.19,1.27,2.19,2.51,0,1.47-1.14,2.5-3.11,2.5a4.83,4.83,0,0,1-2.35-.57Z"/><path class="cls-2" d="M166.08,212.39a4.07,4.07,0,0,1-4.14,4.43,4,4,0,0,1-4-4.29,4.07,4.07,0,0,1,4.13-4.42A3.94,3.94,0,0,1,166.08,212.39Zm-6.6.09c0,1.82,1.05,3.2,2.53,3.2s2.53-1.36,2.53-3.24c0-1.41-.71-3.2-2.5-3.2S159.48,210.9,159.48,212.48Z"/><path class="cls-2" d="M178.82,208.3c0,.6-.07,1.27-.07,2.29v4.83c0,1.91-.37,3.08-1.18,3.81a4.45,4.45,0,0,1-3,1,5.44,5.44,0,0,1-2.77-.68l.38-1.16a4.63,4.63,0,0,0,2.44.66c1.55,0,2.68-.81,2.68-2.91v-.93h0a3,3,0,0,1-2.65,1.39c-2.07,0-3.55-1.75-3.55-4.06,0-2.82,1.85-4.42,3.76-4.42a2.75,2.75,0,0,1,2.59,1.44h0l.07-1.25Zm-1.56,3.28a2.08,2.08,0,0,0-.09-.68,2.19,2.19,0,0,0-2.12-1.61c-1.44,0-2.48,1.23-2.48,3.15,0,1.64.83,3,2.47,3a2.22,2.22,0,0,0,2.1-1.55,2.84,2.84,0,0,0,.12-.81Z"/><path class="cls-2" d="M182.11,212.74a2.67,2.67,0,0,0,2.86,2.89,5.53,5.53,0,0,0,2.31-.43l.25,1.08a6.71,6.71,0,0,1-2.77.52,3.87,3.87,0,0,1-4.09-4.2c0-2.51,1.48-4.49,3.9-4.49,2.72,0,3.45,2.39,3.45,3.92a5.08,5.08,0,0,1-.06.71Zm4.44-1.09a2.15,2.15,0,0,0-2.1-2.46,2.51,2.51,0,0,0-2.32,2.46Z"/><path class="cls-2" d="M190.49,208.3l1.11,4.23c.24.93.46,1.79.62,2.65h.05c.19-.84.46-1.74.74-2.63l1.36-4.25h1.27l1.29,4.16c.31,1,.55,1.88.74,2.72h.05a24.66,24.66,0,0,1,.64-2.7l1.19-4.18h1.5l-2.69,8.33H197l-1.27-4c-.29-.93-.53-1.75-.74-2.74h0a26.36,26.36,0,0,1-.76,2.76l-1.34,4h-1.38L189,208.3Z"/><path class="cls-2" d="M207.1,216.63l-.12-1h0a3.11,3.11,0,0,1-2.55,1.24,2.37,2.37,0,0,1-2.54-2.4c0-2,1.79-3.11,5-3.09v-.18a1.71,1.71,0,0,0-1.9-1.92,4.17,4.17,0,0,0-2.17.62l-.34-1a5.16,5.16,0,0,1,2.74-.74c2.54,0,3.16,1.74,3.16,3.4v3.12a12.14,12.14,0,0,0,.14,2Zm-.22-4.25c-1.65,0-3.53.25-3.53,1.87a1.35,1.35,0,0,0,1.43,1.45,2.07,2.07,0,0,0,2-1.4,1.32,1.32,0,0,0,.09-.48Z"/><path class="cls-2" d="M218,208.3c0,.6-.07,1.27-.07,2.29v4.83c0,1.91-.38,3.08-1.19,3.81a4.45,4.45,0,0,1-3,1,5.44,5.44,0,0,1-2.77-.68l.38-1.16a4.63,4.63,0,0,0,2.44.66c1.55,0,2.69-.81,2.69-2.91v-.93h0a3,3,0,0,1-2.65,1.39c-2.06,0-3.54-1.75-3.54-4.06,0-2.82,1.84-4.42,3.75-4.42a2.77,2.77,0,0,1,2.6,1.44h0l.07-1.25Zm-1.57,3.28a2.08,2.08,0,0,0-.09-.68,2.18,2.18,0,0,0-2.11-1.61c-1.45,0-2.48,1.23-2.48,3.15,0,1.64.82,3,2.46,3a2.22,2.22,0,0,0,2.1-1.55,2.84,2.84,0,0,0,.12-.81Z"/><path class="cls-2" d="M222.24,205.9v2.4h2.16v1.15h-2.16v4.49c0,1,.29,1.62,1.13,1.62a3.47,3.47,0,0,0,.88-.1l.07,1.13a3.7,3.7,0,0,1-1.34.21,2.11,2.11,0,0,1-1.64-.64,3.1,3.1,0,0,1-.59-2.17v-4.54h-1.29V208.3h1.29v-2Z"/><path class="cls-2" d="M226.85,212.74a2.67,2.67,0,0,0,2.85,2.89,5.5,5.5,0,0,0,2.31-.43l.26,1.08a6.75,6.75,0,0,1-2.77.52,3.87,3.87,0,0,1-4.1-4.2c0-2.51,1.48-4.49,3.91-4.49,2.72,0,3.44,2.39,3.44,3.92a5.41,5.41,0,0,1-.05.71Zm4.44-1.09a2.16,2.16,0,0,0-2.1-2.46,2.52,2.52,0,0,0-2.33,2.46Z"/><path class="cls-2" d="M234.63,210.55c0-.86,0-1.57-.07-2.25h1.34l.09,1.37h0a3.08,3.08,0,0,1,2.76-1.56c1.15,0,2.94.69,2.94,3.54v5H240.2v-4.81c0-1.34-.49-2.46-1.92-2.46a2.25,2.25,0,0,0-2.14,2.26v5h-1.51Z"/><path class="cls-2" d="M249.38,205v11.6h-1.5V205Z"/><path class="cls-2" d="M259.14,204.41v10.07c0,.74,0,1.58.07,2.15h-1.36l-.07-1.45h0a3.09,3.09,0,0,1-2.84,1.64c-2,0-3.57-1.71-3.57-4.24,0-2.77,1.71-4.47,3.74-4.47a2.79,2.79,0,0,1,2.51,1.27h0v-5Zm-1.51,7.28a2.79,2.79,0,0,0-.07-.64,2.24,2.24,0,0,0-2.19-1.76c-1.57,0-2.5,1.38-2.5,3.22,0,1.69.83,3.08,2.47,3.08a2.28,2.28,0,0,0,2.22-1.8,2.78,2.78,0,0,0,.07-.66Z"/><path class="cls-2" d="M262.5,212.74a2.67,2.67,0,0,0,2.85,2.89,5.5,5.5,0,0,0,2.31-.43l.26,1.08a6.75,6.75,0,0,1-2.77.52,3.87,3.87,0,0,1-4.1-4.2c0-2.51,1.48-4.49,3.91-4.49,2.72,0,3.44,2.39,3.44,3.92a5.41,5.41,0,0,1,0,.71Zm4.44-1.09a2.16,2.16,0,0,0-2.1-2.46,2.52,2.52,0,0,0-2.33,2.46Z"/><path class="cls-2" d="M271.12,212.74a2.67,2.67,0,0,0,2.86,2.89,5.45,5.45,0,0,0,2.3-.43l.26,1.08a6.71,6.71,0,0,1-2.77.52,3.87,3.87,0,0,1-4.09-4.2c0-2.51,1.48-4.49,3.9-4.49,2.72,0,3.45,2.39,3.45,3.92a5.08,5.08,0,0,1-.06.71Zm4.44-1.09a2.15,2.15,0,0,0-2.1-2.46,2.51,2.51,0,0,0-2.32,2.46Z"/><path class="cls-2" d="M278.9,210.55c0-.86,0-1.57-.07-2.25h1.35l.08,1.37h0a3,3,0,0,1,2.75-1.56c1.15,0,2.94.69,2.94,3.54v5h-1.51v-4.81c0-1.34-.5-2.46-1.93-2.46a2.21,2.21,0,0,0-2.13,2.26v5H278.9Z"/><path class="cls-2" d="M288.09,215.73a1,1,0,0,1,1-1.08,1,1,0,0,1,1,1.08,1,1,0,0,1-1,1.09A1,1,0,0,1,288.09,215.73Z"/></g></g></svg>