<svg xmlns="http://www.w3.org/2000/svg" xmlns:xlink="http://www.w3.org/1999/xlink" viewBox="0 0 1218.71 718.42"><defs><style>.cls-1{fill:url(#linear-gradient);filter:url(#luminosity-noclip);}.cls-2{isolation:isolate;}.cls-3{fill:#4d4d4d;}.cls-4{fill:#1a1a1a;}.cls-5{fill:#b1b7bb;}.cls-6{fill:url(#Unbenannter_Verlauf_8);}.cls-7{mask:url(#mask);}.cls-8{fill:#333;}.cls-9{mix-blend-mode:hard-light;opacity:0.12;fill:url(#linear-gradient-2);}</style><linearGradient id="linear-gradient" x1="606.01" y1="697.88" x2="606.01" y2="717.6" gradientUnits="userSpaceOnUse"><stop offset="0" stop-color="#fff"/><stop offset="1"/></linearGradient><linearGradient id="Unbenannter_Verlauf_8" x1="609.36" y1="700.28" x2="609.36" y2="684.5" gradientUnits="userSpaceOnUse"><stop offset="0" stop-color="#2b2c2e"/><stop offset="0.12" stop-color="#3c3d40"/><stop offset="0.34" stop-color="#5f6064"/><stop offset="0.73" stop-color="#333"/><stop offset="1" stop-color="#333"/></linearGradient><filter id="luminosity-noclip" x="-12.49" y="689.91" width="1237.01" height="35.17" filterUnits="userSpaceOnUse" color-interpolation-filters="sRGB"><feFlood flood-color="#fff" result="bg"/><feBlend in="SourceGraphic" in2="bg"/></filter><mask id="mask" x="-12.49" y="689.91" width="1237.01" height="35.17" maskUnits="userSpaceOnUse"><rect class="cls-1" x="-12.49" y="689.91" width="1237.01" height="35.17"/></mask><linearGradient id="linear-gradient-2" x1="588.67" y1="332.91" x2="1101.49" y2="332.91" gradientUnits="userSpaceOnUse"><stop offset="0" stop-color="#e0e5e6"/><stop offset="1" stop-color="gray"/></linearGradient></defs><g class="cls-2"><g id="Ebene_2" data-name="Ebene 2"><g id="Ebene_8" data-name="Ebene 8"><rect x="117.22" width="984.27" height="665.83" rx="28.95"/><rect class="cls-3" x="121.56" y="4.34" width="975.58" height="657.14" rx="26.05"/><rect class="cls-4" x="124.46" y="7.24" width="969.79" height="651.35" rx="23.16"/><rect class="cls-5" x="153.41" y="36.19" width="911.89" height="593.45"/><rect x="156.3" y="39.08" width="906.1" height="587.67"/><rect class="cls-4" y="661.88" width="1218.71" height="22.63"/><path class="cls-4" d="M688.49,676.36h-159a13.26,13.26,0,0,1-8.06-5.64,14.34,14.34,0,0,1-2.76-8.84H700.1s-.62,6-3.91,9.69A14.92,14.92,0,0,1,688.49,676.36Z"/><path class="cls-6" d="M0,684.5S7,690.26,26.79,696c16.48,4.74,44.73,4.32,44.73,4.32H1147.19s28.25.42,44.73-4.32c19.79-5.69,26.79-11.45,26.79-11.45Z"/><g class="cls-7"><path class="cls-8" d="M0,718.42s7-6.62,26.79-13.16c16.48-5.45,44.73-5,44.73-5H1147.19s28.25-.48,44.73,5c19.79,6.54,26.79,13.16,26.79,13.16Z"/></g><path class="cls-9" d="M588.67,0h483.87a29,29,0,0,1,29,29V636.88a29,29,0,0,1-29,29H726.87Z"/></g></g></g></svg>