<?xml version="1.0" encoding="utf-8"?>
<!-- Generator: Adobe Illustrator 25.3.1, SVG Export Plug-In . SVG Version: 6.00 Build 0)  -->
<svg version="1.1" id="Ebene_1" xmlns="http://www.w3.org/2000/svg" xmlns:xlink="http://www.w3.org/1999/xlink" x="0px" y="0px"
	 viewBox="0 0 996.4 964.4" style="enable-background:new 0 0 996.4 964.4;" xml:space="preserve">
<style type="text/css">
	.st0{fill:#1A1A1A;}
	.st1{fill:#7E77FF;}
	.st2{fill:#8D86FF;}
</style>
<polygon class="st0" points="904,1234 75,1298.2 75,776 904,297 "/>
<g id="Ebene_2_1_">
	<g id="Ebene_8">
		<circle class="st1" cx="485" cy="477.2" r="213.3"/>
		<path class="st0" d="M379.8,462.8c-2.5-2.7-3.8-6.7-3.8-11.8v-48.2h9.9v48.9c0,2.2,0.4,3.7,1.3,4.7c2.1,1.9,5.4,1.9,7.5,0
			c0.9-1,1.3-2.5,1.3-4.7v-48.9h9.6V451c0,5.1-1.3,9-3.8,11.8c-2.5,2.7-6.2,4.1-11,4.1S382.3,465.5,379.8,462.8z"/>
		<path class="st0" d="M412.6,402.8h12.5l9.6,37.8h0.2v-37.8h8.8V466h-10.2l-11.9-46.1h-0.2V466h-8.8V402.8z"/>
		<path class="st0" d="M453.1,462.8c-2.5-2.7-3.7-6.7-3.7-11.8v-3.6h9.4v4.3c0,4.1,1.7,6.1,5.1,6.1c1.4,0.1,2.8-0.4,3.8-1.5
			c0.9-1,1.3-2.6,1.3-4.8c0.1-2.5-0.6-4.9-1.8-7c-1.9-2.7-4.1-5.2-6.7-7.3c-4.1-3.6-6.9-6.9-8.6-9.8c-1.6-3-2.5-6.4-2.4-9.9
			c0-5,1.3-8.9,3.8-11.6s6.2-4.1,11-4.1c4.8,0,8.3,1.4,10.8,4.1s3.7,6.7,3.7,11.8v2.6h-9.4v-3.2c0.1-1.7-0.3-3.4-1.3-4.7
			c-0.9-1-2.3-1.6-3.7-1.5c-3.3,0-5,2-5,6c0,2.3,0.6,4.5,1.9,6.4c1.9,2.7,4.1,5.1,6.7,7.2c4.2,3.6,7,6.9,8.6,9.8
			c1.6,3.2,2.5,6.8,2.4,10.4c0,5.2-1.3,9.1-3.8,11.9s-6.3,4.1-11.2,4.1C459.2,466.9,455.6,465.5,453.1,462.8z"/>
		<path class="st0" d="M484.7,402.8h27.1v9h-17.1v16.7h13.6v9h-13.6v19.4h17.1v9h-27.1V402.8z"/>
		<path class="st0" d="M517.4,402.8h14.7c5.1,0,8.8,1.2,11.2,3.6c2.3,2.4,3.5,6,3.5,11v3.9c0,6.6-2.2,10.7-6.5,12.5v0.2
			c2.3,0.6,4.2,2.2,5.1,4.4c1.1,2.8,1.6,5.9,1.5,8.9v11.1c0,1.5,0,2.9,0.2,4.4c0.1,1.1,0.4,2.2,0.9,3.3h-10.1
			c-0.3-0.9-0.6-1.9-0.7-2.9c-0.2-1.6-0.2-3.2-0.2-4.9v-11.6c0-2.9-0.5-4.9-1.4-6s-2.5-1.7-4.8-1.7h-3.4V466h-9.9V402.8z M531,429.9
			c1.6,0.1,3.3-0.4,4.5-1.5c1-1,1.5-2.7,1.5-5.1v-4.9c0-2.3-0.4-3.9-1.2-5c-1-1.1-2.4-1.7-3.8-1.5h-4.5v18L531,429.9z"/>
		<path class="st0" d="M553.8,402.8h27.1v9h-17.1v16.7h13.6v9h-13.6v19.4h17.2v9h-27.1V402.8z"/>
		<path class="st0" d="M376.3,484h9.9v54.1h16.3v9h-26.2V484z"/>
		<path class="st0" d="M410.2,543.9c-2.6-2.8-3.9-6.7-3.9-11.7V499c0-5.1,1.3-9,3.9-11.7c2.6-2.8,6.3-4.2,11.2-4.1
			c4.9,0,8.6,1.4,11.2,4.1s3.9,6.7,3.9,11.7v33.2c0,5.1-1.3,9-3.9,11.7c-2.6,2.8-6.3,4.2-11.2,4.2
			C416.4,548.1,412.7,546.7,410.2,543.9z M410,470.6h8.8v9.2H410V470.6z M426.5,532.8v-34.5c0-4.2-1.7-6.2-5.1-6.2s-5.1,2.1-5.1,6.2
			v34.5c0,4.2,1.7,6.2,5.1,6.2S426.5,537,426.5,532.8L426.5,532.8z M423.9,470.6h8.9v9.2h-8.9V470.6z"/>
		<path class="st0" d="M445.1,544c-2.5-2.7-3.7-6.7-3.7-11.8v-3.6h9.4v4.3c0,4.1,1.7,6.1,5.1,6.1c1.4,0.1,2.8-0.4,3.8-1.5
			c0.9-1,1.3-2.6,1.3-4.8c0-2.5-0.6-4.9-1.8-7c-1.9-2.7-4.1-5.2-6.7-7.3c-4.1-3.6-6.9-6.9-8.6-9.8c-1.6-3-2.5-6.4-2.4-9.9
			c0-5,1.3-8.9,3.8-11.6s6.2-4.1,11-4.1c4.8,0,8.3,1.4,10.8,4.1s3.7,6.7,3.7,11.8v2.6h-9.4v-3.2c0.1-1.7-0.3-3.4-1.3-4.7
			c-0.9-1-2.3-1.6-3.7-1.5c-3.3,0-5,2-5,6c0,2.3,0.6,4.5,1.9,6.4c1.9,2.7,4.1,5.1,6.7,7.2c4.1,3.6,7,6.9,8.6,9.8
			c1.7,3.2,2.5,6.8,2.4,10.3c0,5.2-1.3,9.1-3.8,11.9s-6.3,4.2-11.1,4.2S447.5,546.7,445.1,544z"/>
		<path class="st0" d="M480.1,544c-2.5-2.7-3.8-6.7-3.8-11.8V484h9.9v48.9c0,2.2,0.4,3.7,1.3,4.7c2.1,1.9,5.4,1.9,7.5,0
			c0.9-1,1.3-2.5,1.3-4.7V484h9.6v48.2c0,5.1-1.3,9-3.8,11.8c-2.5,2.7-6.2,4.1-11,4.1C486.3,548.1,482.6,546.7,480.1,544z"/>
		<path class="st0" d="M512.9,484h12.5l9.6,37.8h0.2V484h8.8v63.2h-10.2l-11.9-46.1h-0.2v46.1h-8.8L512.9,484z"/>
		<path class="st0" d="M554.5,544c-2.5-2.7-3.8-6.7-3.8-11.8V499c0-5.1,1.3-9,3.8-11.8c2.5-2.7,6.2-4.1,11-4.1c4.8,0,8.5,1.4,11,4.1
			s3.8,6.7,3.8,11.8v5.4h-9.4v-6c0-4.2-1.7-6.2-5.1-6.2c-3.4,0-5.1,2.1-5.1,6.2v34.5c0,4.1,1.7,6.1,5.1,6.1c3.4,0,5.1-2,5.1-6.1
			v-12.4h-5v-9h14.3v20.7c0,5.1-1.3,9-3.8,11.8s-6.2,4.1-11,4.1C560.7,548.1,557,546.7,554.5,544z"/>
		
			<image style="overflow:visible;enable-background:new    ;" width="399" height="413" xlink:href="348B72C.png"  transform="matrix(1 0 0 1 532.53 64.26)">
		</image>
		
			<image style="overflow:visible;enable-background:new    ;" width="1079" height="1078" xlink:href="348B72B.png"  transform="matrix(0.4905 0 0 0.4905 470.11 2.392578e-04)">
		</image>
		<path class="st2" d="M184.6,551c0.8,0.7,0.1-0.4-0.3-1.4L184.6,551z"/>
		<path class="st2" d="M184.2,549.6l-0.2-1C184,548.9,184.1,549.3,184.2,549.6z"/>
		<path class="st2" d="M182.1,540.1c0.9,2.1,1,4.8,2,5.9C183.9,543.8,183,540.5,182.1,540.1z"/>
		<polygon class="st2" points="182.5,543.5 182.9,543.7 181.9,541.9 		"/>
		<path class="st2" d="M182.6,544.9l0.1-0.3l-1.1-2.9C181.9,542.8,182.2,543.8,182.6,544.9z"/>
		<path class="st2" d="M180.7,532.7l0.6,2.2c0,2.2-0.9-1.2-1,0.2c0.6,2.7,1.2,0.7,1.8,4.1c0.4-0.4-1.3-5.4-0.4-5
			C181.3,531.3,181.3,534.2,180.7,532.7z"/>
		<path class="st2" d="M174.8,398.6c0.1-0.1,0.1-0.2,0.1-0.3C174.8,398.4,174.7,398.5,174.8,398.6z"/>
		<path class="st2" d="M183.3,362.3c0.2-0.5,0.4-0.9,0.6-1.4c-0.1,0.2-0.3,0.3-0.4,0.5L183.3,362.3z"/>
		<path class="st2" d="M172.7,421.8c-0.1,0.5-0.2,1-0.3,1.4C172.6,422.8,172.7,422.3,172.7,421.8z"/>
		<path class="st2" d="M285.8,222.8c0,0.1,0,0.2,0,0.3h0.1l0.2-0.4L285.8,222.8z"/>
		<path class="st2" d="M197.7,323c0.2-0.5,0.5-1.1,0.7-1.5C198.1,321.9,197.9,322.5,197.7,323z"/>
		<path class="st2" d="M171.6,435.1c0-0.2,0-0.4,0-0.5c0,0.2-0.1,0.4-0.1,0.7L171.6,435.1L171.6,435.1z"/>
		<path class="st2" d="M178.9,373.7c0.2-0.5,0.4-0.9,0.5-1.3C179.2,372.9,179,373.3,178.9,373.7z"/>
		<path class="st2" d="M176.1,499c0-0.5-0.1-1.1-0.2-1.6C175.8,497.9,175.9,498.5,176.1,499z"/>
		<path class="st2" d="M174.8,485.9C174.8,485.9,174.8,485.9,174.8,485.9C174.8,486,174.9,485.9,174.8,485.9z"/>
		<path class="st2" d="M174.4,477.5v0.1C174.4,477.6,174.5,477.5,174.4,477.5z"/>
		<path class="st2" d="M175.8,497.4c0.2-1.1,1.1-1.5-0.1-2.8l-0.1,0.3c0.1-0.9-0.4-2.1-0.5-3c-0.1,0.1-0.2,0.2-0.2,0.4
			c0,0.5,0.1,1.1,0.1,2.1C175,495.5,175.5,496.2,175.8,497.4z"/>
		<path class="st2" d="M174.9,398.8C174.7,398.8,174.7,399.8,174.9,398.8z"/>
		<path class="st2" d="M173.8,410.2l0.2-1.1C173.9,409.4,173.8,409.8,173.8,410.2z"/>
		<path class="st2" d="M170,453.1c0-0.1,0-0.1,0.1-0.2S169.9,453,170,453.1z"/>
		<path class="st2" d="M174.1,408l-0.2,1C174.1,408.7,174.1,408.3,174.1,408z"/>
		<path class="st2" d="M171,440.2c0-0.1,0-0.1,0-0.2C171,440.1,171,440.1,171,440.2z"/>
		<path class="st2" d="M447.3,162.8c-0.7,0.1-1.5,0-2.2-0.1c-1.7,0.8,3.7-0.3,1.1,0.5c0.7-0.1,1.3-0.2,2-0.4l-1.2-0.5
			C445.5,162.7,448.1,162.4,447.3,162.8z"/>
		<path class="st2" d="M295.1,217.4l-0.3,0.2c0.4,0.1,0.2,0.3,1.5-0.4c0.7-1.1-1.2-0.5,0.2-2.1c-0.4,0.3-0.8,0.6-1.3,0.9
			C296.1,215.8,295.6,216.6,295.1,217.4z"/>
		<path class="st2" d="M295.1,216L295.1,216c-0.2,0-0.3,0-0.4,0.1c-0.2,0.2-0.5,0.3-0.7,0.4C294.4,216.4,294.8,216.2,295.1,216z"/>
		<path class="st2" d="M419.3,166.3l-0.9,0.1C418.6,166.4,419,166.4,419.3,166.3z"/>
		<path class="st2" d="M203.7,328.8c-0.1,0.4-0.2,0.7-0.3,1.1C203.6,329.6,203.7,329.2,203.7,328.8z"/>
		<path class="st2" d="M278.7,229.4c-0.3,0.2-0.6,0.4-0.8,0.6l-0.5,0.4L278.7,229.4z"/>
		<path class="st2" d="M332.2,187c-0.3,1,0.5-0.3,2-0.6l1.1-0.9C334.2,185.9,333.2,186.4,332.2,187z"/>
		<path class="st2" d="M448.3,162.9C448.3,162.9,448.3,162.8,448.3,162.9l-0.1-0.1L448.3,162.9z"/>
		<path class="st2" d="M369.3,170.9l0.7-0.1C369.7,170.8,369.5,170.8,369.3,170.9z"/>
		<path class="st2" d="M288.5,220.5l-4,3.1l1.3-0.8C286.1,222.1,288.2,221.2,288.5,220.5z"/>
		<path class="st2" d="M312.6,197.4l-0.6-0.1c-2.1,1.7-4.3,3.2-6.6,4.5c-1.1,0.6-2.2,1.3-3.2,2.1c-0.9,0.7-1.8,1.5-2.5,2.4
			c-3,1.1-3.7,2-4.3,2.8s-1.1,1.7-3.8,2.9l0.3,0.1c-7.8,5.4-15.6,11.4-23,17.6l-5.4,4.8c-1.8,1.6-3.5,3.3-5.1,4.9
			c-3.4,3.2-6.5,6.6-9.4,10l-0.2-0.2c-1.3,1.2-2.5,2.6-3.7,3.9l-3.6,4c-1.2,1.3-2.4,2.7-3.5,4l-3.4,4.1c-1.2,1.3-2.2,2.8-3.3,4.2
			l-3.2,4.2l-3.2,4.2c-1.1,1.4-2,2.9-3,4.4c-2,2.9-4,5.8-5.9,8.8l-5.6,9l-1.4,2.3l-1.3,2.3l-2.6,4.6l-2.6,4.6
			c-0.8,1.6-1.6,3.2-2.4,4.8c-0.9,2.5,0.4,1.4-0.3,3.6c-0.5,0.9-1.4,2.9-1.8,2.8c0.7-1.8-0.1-1,0-1.6c-1.4,2.9-3.4,6.5-4.2,9.3
			l1.4-2c-0.4,1.2-0.9,2.4-1.5,3.5c-0.1-0.5-1.1,0.6-0.9-0.2c-1.3,6-2.4,4.1-3.8,9c0.3,0.7,0.1,2.5-0.3,4.8
			c-0.2,1.1-0.4,2.3-0.7,3.5s-0.4,2.4-0.6,3.4l-0.9,2c0.9-2.7-0.7-0.2,0.5-3.6c-1.2,2.8-1.7,5.5-2.8,8.2c0.4-0.4,0.7-0.2,0.4,0.9
			c-0.7,1.6-1.2,1.6-1.8,3.5l0.2-2c-0.7,1.2-0.6,2.4-0.9,3.6c-0.5,0.3-1.4,3.1-1.7,2.5c-0.1,1.1-0.2,2.1-0.5,3.2
			c-0.3,1.1-0.5,2.2-0.6,3.3c1.2-2.8,0.4,0.9,0.8,0.7c0.2-1.1,0.4-2.2,0.7-3.3c-0.8,2.3-0.7,1.9-0.5,1s0.5-2.4,0.1-2.3
			c1-2.1,0.3,3.3,1.2-0.4c-0.2,1.1-0.4,2-0.6,2.8l-0.5,2.1c-0.4,1.6-0.6,3.3-0.8,5c0.5-2.7,0.3,0.6,0.9-0.8
			c-0.8,3.4-0.5,0.8-1.2,1.7c-0.4,1.9-1,2.4-0.9,4.3c-0.9,3-0.4-0.6-1.1,0.9c-0.3-1.3,2.7-8.2,0.9-7.8c0.4-1.6,0.3-3.7,0.9-5.9
			c-1,2.3-1.8,4.7-2.2,7.2l0.9,0.3c-0.4,1.9,0.1,2.4-0.4,3.7c-0.1-0.8-0.8,0.4-1,2c0.2-0.4,0.3-1,0.4-0.8c-0.5,2.8,0,3.3-0.5,6.7
			c0.8-2.7,1.2-3.2,2.1-5.7c0.5,0.8-0.3,1.8-0.5,3.3c0-0.2,0-0.6-0.2-0.1v1.7c-1,3.4-0.8-0.6-1.7,2.1c-0.9,1.9-0.3,2.7-0.8,4.2
			c0.1-0.1,0.1-0.2,0.2-0.3c-0.1,0.3-0.1,0.6-0.2,0.7h0.1c-0.2,1.8-0.6,3.8-0.2,4.4c-0.2,0.1-0.2,1.6-0.2,2.2c0,1,0.1,3.5-0.8,5
			c0,0,0-0.1,0-0.1c-0.4,2.3-0.9,4-1.1,3.5l-0.7,3.6l-0.6-0.5c-0.3,3.4,0.1,3.1,0.5,5.5c-0.5,2.7-0.8,5.5-0.7,8.2
			c-0.1,0.4-0.1,0.9-0.1,1.3c0.1-0.5,0.2-0.9,0.4-1.4c-0.2,2.6,0.1,2.3,0,4.1c0.1-0.4,0.1-0.4,0,0.5c0,0.3-0.1,0.6-0.1,1
			c-0.1-0.3-0.1-0.6,0-0.9l-0.2,0.3c-0.8,2.1,0.1,3.2-0.2,5.5c0-0.3,0-0.5,0-0.8c-0.3,1.2-1.2,3-0.7,3.6c0,0.4,0,0.8,0.1,1.2
			l-0.1,0.9c0.1-0.4,0.1-0.7,0.1-0.9c0.2,0.6,0.4,1.1,0.2,1.2l-0.2,3.2c-0.1,0.7-0.1,1.4,0,2.1l-0.3,0.5c0,1.2-0.1,1.2-0.2,1
			c-0.4,1.7-0.4,3.5-0.2,5.2c0.2,1.8,0.1,3.7-0.1,5.5c0.4,0.8,0.6-1,0.8-1.1c0.4,1.5,0.7,3,0.9,4.5c-0.3,1-0.5,3-0.8,4.6
			s-0.5,2.9-1,2.5c0.1,3.6,0.5-1.2,0.9,0.7v0.4c0-1,0.2-2,0.6-3c0.4-0.3,0.7,2.9,0.6,3.9l-0.7-0.7c0.4,3.3,1.3,2.6,2.1,4.6
			c-0.1,2.7-0.8,1.2-1.3,1.8l0.4,2.8h-0.5c0.3,1.8,0.7,2.2,0.7,4.7c-0.6-1.8-0.1,3.8-1,1.4c0,1.4,1,1.7,0.4,2.5
			c0.6,0.9,0.1-1.3,0.2-2c0.7-0.6,0.6,3,1,4.7c-0.4,0.2-0.6-1.1-0.6,0.9c0.5,0.8,0.7,1.8,0.5,2.8c0.5,0,0.4,2.2,0.5,3.3
			c0-1.3,0.1-3.1,0.6-2.4c0.4,1.3,0.6,2.6,0.7,4l0.1-1.5c0.9,1.9-0.1,3.3,0.5,5.9c-0.4-1.1-0.6-1.8-1-2.7c0.4,1.2,1.1,3.5,1.6,5.4
			c-0.1,0.8-0.2,1.5-0.4,2.3c0.4,0.2,0.4,2.5,0.9,2.4c0.1,2.8-0.9-2.1-1.3-2.3c0.2,3.5,1.2,2.7,1.1,6.1l-0.6-1
			c0.2,1.1,0.8,3.3,0.6,3.5c0.2,0,0-0.6-0.1-1.3c1.1,0.5,1.6,5,2.5,4.4l-0.2-1.5c0.6,2.3,1.6,3.8,1.6,5.6c-0.1,1.4-0.9-0.8-1.3-1.6
			c0.4,2.2,1.4,1.5,1.9,4.2c-0.1-1.4,0.3-1.2,0.7-0.5c-0.3-1.5-0.7-4.7-1-4v0.6c-0.3-0.1-0.5-0.9-0.8-1.3c-0.4-2,0.3-1,0.4-1.5
			c-0.5-3.5-1.1-0.1-1.6-3.2l0.1-0.5c-0.5-1.5-1-3.8-1.6-4.1c0.4-1.5-0.8-3.5-0.7-5.1c1.4-0.5,0.7,5.4,1.8,7c0-1.7,0.9,0.8,1.3,1.5
			c-0.5-1.7-1-3.4-1.5-5.1c0.1-0.5,0.6-2.1-0.1-3v0.4c-0.5-2-1-1.4-1-3.2c0.1-0.3,0.4,0.2,0.5,0.3c-0.1-1.7-0.5-1.3-0.8-2.4
			c-0.1-1.7,0.7,0.7,0.7-0.7c-0.8-1.8-0.3-3-0.5-4.7c-0.7,0.8-1.9-6.5-2.2-2.8c-0.3-1.3-0.7-2.6-1-4c0.3-1.3,1.4,2.6,2,1.5l0.3,3.2
			c0.5-0.3,0.1-2-0.2-3.8s-0.7-3.9-0.2-5c-0.2-1.5-0.2-3,0-4.5l-0.9,0.6c0.1-1.7,0.6-2.3,0.7-2.4c-0.1-0.9-0.2-1.8-0.2-2.8
			c0.2,0.4,0.3,0.7,0.4,1.1c0.4-1.3,0.2-1.6-0.1-2.1c-0.3-0.9-0.4-1.8-0.4-2.8c0.1,0.3,0.2,0.6,0.4,0.9c-0.1-0.6-0.2-1.4-0.4-1.5
			c0-0.4-0.1-0.8-0.1-1.2c-0.5,0.8-0.7,1.6-0.8,2.5c0.2-3.9-0.2-7,0.5-10.3c0.3,0.1,0.6,1.5,0.6,1.1c0.1-1.7-0.4-3.5-0.8-3.3
			c0-0.4,0-0.7,0-0.9c0.3-0.4,0.5-1,0.5-1.5c0.1-0.3,0.2-0.7,0.2-1.1c-0.7-0.5-0.4-3.7-0.7-4.4c-0.1,0.9-0.1,1.7,0,2.6
			c-0.5-1.3-1-2.5-0.6-3.6c0.4,2.5,0.8-2.6,0.9,1.1c0.9-2.6-0.6-1.4-0.3-4.2l0.4-1.8c0.5,0.3,0.2,2.9,0.4,2.5v-1.2
			c0.4,1.3,0,6,0.7,8.9c0-1.9,0.1-3.9,0.3-5.8c-0.1-1.8-0.2-3.8-0.2-5.8s0.1-4,0.1-6s0.1-4,0.1-5.8c0-1.7,0-3.5-0.2-5.2v0.3
			c0-0.1-0.1-0.2-0.3-0.3l0.1-0.3l-0.3-1.3c0.3-0.9,0.6-1.8,0.7-2.8c0.2-1.1,0.5-2.3,0.8-3.4c-0.5,1.4-0.5,1.4-0.9,1.5
			c-0.5-0.3-0.7-0.6-0.3-2.6c0.4,0,0.2,1.3,0.7-0.2c-0.3,0.8-0.4,0-0.4-0.9c0.4-1.1,0.6-3.1,1-3.1c0,0.5-0.1,0.9-0.2,1.3
			c0,0.5,0.6-2.2,0.7-0.5l0.1-2.1c0.4-1.2,0.4,0.9,0.7,0.4c0.1-3.5-0.4-5.4-0.2-8.6c0.2,0.1,0.5,0.2,0.8,0.3
			c0.2-1.3,0.3-2.6,0.2-3.9c-0.1-1.4-0.1-2.8,0.1-4.2c0.1,0.8,0,1.5-0.1,2.3c1.7-8.4,3.1-15.2,5.7-22.8l-0.3-2.2l1.1-1.9
			c0.7-2,1.1-3.9,1.7-5.7s1.1-3.6,1.5-5.4l1.4-5.3c0.5-1.8,1.1-3.6,1.6-5.5c0.8-2.4,1.1-1.2,1.6-2.2c0.5-1.3,0.8-2.3,1-3.3
			s0.5-1.8,0.6-2.6c0.4-1.9,0.9-3.9,1.5-5.7c0,0.8,0.2,2.2,1.1,0.1c-0.2-0.7-0.1-1.5,0.3-2.1v0.8c0.8-1.1,0.9-2.4,2.2-4.7
			c0.9-2.1,1.7-4.3,2.4-6.5c0.3-1.1,0.6-2.1,0.9-3.1s0.6-2,0.8-3c1.9-3.7,0.6,0.8,1.2,0.2c-1.6,2.5-0.8,1.9-0.8,2.6
			c0.5-1.5,1.2-3.3,2.1-3.7c0.8-1.6,1.5-3.2,2-4.9c-0.3,1.1-1,1.8-0.8,0.7c0.5-0.8,1.2-2.2,1.8-3.3s1.3-2,1.6-1.7
			c2.5-4.5,5-9.4,8-14c1.5-2.4,2.9-4.7,4.4-7.1l4.7-6.9c0.7-1.8-0.9,1.1-0.6,0.1c1.1-2.5,1.4-1.6,2.3-3.6l-0.2,1
			c0.5-0.7,0.9-1.4,1.3-2.1c0.4-0.7,0.9-1.4,1.3-2.1c0.8-1.5,1.6-2.9,2.4-4.3c0.1,0.7,1.9-1.8,0.5,0.4c0.9-1.3,3.7-1.4,4-2.6
			l-2.6,0.1c-0.1-0.2,1.3-1.8,1.1-1.7c1.1-0.8,2.1-1.6,3.1-2.5c0.7,0-0.9,1.7-1.6,2.7c0.3,0.3,1-0.4,1.6-1s1.2-1,0.9-0.1
			c1.6-2.2-0.6,0,0.2-1.4l1.6-1.7l-1.4,1.2c1.1-1.7,1-2.6,3.1-4.3l1.1-2.6c0.7,0.2,1.4-1.4,2.5-2.4l-0.3,0.9c0.8-1,1.7-1.8,2.8-2.6
			c-0.3,1.2-1.2,1.2-1.1,1.9l1.5-1.4c-0.3-0.2,0.4-1.4-0.8-0.5c0.3-0.9,0.7-1.8,1.2-2.7c0.9-1.4,1.9-2.7,3.2-3.8
			c2-1.1-1.2,2.1-0.1,1.9c3.6-3.4,3-5.5,5.1-7.6c2.9-2.4,2.3-2.7,5-5.3c-0.6,1.1,2.2-1.5,3-1.7c-0.3,0.4-0.5,0.9-0.8,1.4
			c0.7-0.9,1.7-1.5,1.6-1c-0.5-0.3,3.3-3.7,5-5.6l-0.7-0.1c1.6-1.8,3.3-3.4,5.1-4.8c2.4-2.2,1.5-2.1,3.1-4.1c1.3-0.5,1.6,0,1.5,0.7
			c-1,0.7-2,1.4-3,2.2c-1.4,1.5-2.6,2.9-3.7,4.3c-1.2,1.5-2.5,2.8-4,4c-0.5,2.1,1.9-1.9,3.7-2.9c0,0.1-0.1,0.2-0.2,0.3
			c0.1-0.1,0.3-0.2,0.4-0.3c-1,1.1-2.6,2.8-2.5,3.5c1.7-1.7,0.5-2.1,3.1-3.7c1.5-1.7,3.5-2.1,4.6-2.9c0.9-1.3,0.2-2.1,3.2-4.2
			c-0.3,0.5-0.6,1-0.8,1.5c3.2-2.6,0.9-2,3.9-4.3c-1.1,0.8,0.6-1.3-1.4,0.2c1.4-1.6,2.9-2.9,4.7-4c0.4-0.4,0-0.2-0.1-0.5
			c-2.1,1-2.6,2.6-4.5,3.2l-0.8,1.6c-1.9,1.1-2.4,0.8-1.5-0.2c-0.4,0.4-0.8,0.7-1.2,1c-1-0.6,2.3-1.3,2.3-2.5l-1.2,1
			c-1-0.1,2.4-2.7,4-3.9c1.9-1.1,3.7-2.2,4.1-1.9c-0.8,0.6-1.5,1.3-2.2,2c1.5-0.6,2.9-2.4,4.3-3.5c0.2,0,0.3-0.1,0.5-0.1
			c-0.1,0-0.2,0-0.2,0c0.3-0.2,0.6-0.3,0.9-0.4c1.3-1.1,2.7-2.1,4.1-3.1l-0.4-0.3v0.3c-1.1,0.8-2.8,1.7-2.2,0.8
			c0.7-0.8,1.7-1.3,2.7-1.6c0.5-0.1,1-0.1,1.6-0.1c-0.2,1-2.5,1.7-3.7,2.9c0.8-0.2,1.5-0.5,2.1-1.1c1.1-0.8,2.2-1.5,3.5-2.1
			c-0.6,1.4-3.1,2.1-3.3,3.1c2.2-1.4,2.5-2.2,4.9-3.6c-0.1,0.5-2.3,2-1.9,2.3l1.6-0.8c-3.5,2.4,1.2,0.4-1.5,2.4
			c1.5-0.6,1.5-1.8,3.6-2.6c-0.7,0.1-2.5,0.6-0.9-0.9l2.1-1.2c1-0.3-1.6,2.1-0.2,1.5l2-1.6c-0.2-0.1-1.3,0.4-0.8-0.2
			c1.4-0.6,1.6-2,2.9-3.2c0.8-0.6,1.7-1,2.7-1.3c2.6-2.5,6.5-4.6,8.9-6.8c-1.7,1.5,0.5,0.6,1.8,0.3c-2.1,1.4-1.8,2-1.4,2.3
			c1.3-0.8,1.8-2,1-1.8c2.4-1,1.3-1.3,3.5-2c1.4-0.5-0.3,1,0.3,1c2.5-1.3,0.2-1.1,3-2.4c-0.1,0.2-0.3,0.3-0.1,0.3
			c1.2-0.5,2.2-1.2,3-2.2c1.9,0,4.3-2.2,4.4-1.3c3.4-1.9-0.7-0.2-0.2-0.8c1.5-1,3.2-1.8,5-2.4c-0.8,0.5-1.7,1-2.7,1.4l1,0.2
			c4.6-1.8,2.2-2.6,6.7-4.1c-2.1,1.3-0.5,0.8-1.5,1.7c0.6-0.4,4-1.8,1.8-1.3c1.6-0.7,2.8-1.1,4-1.5c1.3-0.7,2.4-1.5,3.5-2.4
			c1.7-0.6,3.6-1.1,5.4-1.4c2.3-1.1,4.7-2,7.1-2.8c1.2-0.4,2.4-0.8,3.6-1.3s2.5-0.9,3.7-1.4l-0.4,0.1c4.1-1.2-2.1-0.2,2.2-1.6
			c-0.3,0.9,2.7-0.3,4.2-0.4c2.4-0.6,4.7-1.3,7-2.2c1.1-0.4,2.1-0.8,3.3-1.1c1.2-0.3,2.3-0.6,3.5-0.8c0,0.2-0.3,0.4-1.2,0.7
			c1.9-0.4,3.5-0.8,5.2-1.2l2.4-0.6l2.5-0.6l-0.1,0.1c2.7-0.3,5.3-0.9,7.9-1.6c2.6-0.6,5.2-1.4,8-2c-0.4,0.2-0.5,0.5-0.8,0.7
			c2.8-0.4,7.4-0.9,9.3-2c3.5,0.2,2.2-0.6,6.7-0.4c0.3,0.1-0.4,0.2-0.7,0.2c2.2,0,3.7-0.3,5.9-0.4c2.4-0.6,3.8-1,5.4-1.4
			c2-0.5,4-0.8,6.1-0.8c0.4,1-3.4,0.6-3.5,1.4c1.2-0.4,2.4-0.5,3.6-0.5c-0.9,0.5-0.2,0.3-0.8,0.7c1.2,0.1,4.7-1.4,4.6-1.3
			c0.1-0.2-0.4-0.3-1.5-0.2c1.3-0.7,5.5-0.4,8.2-0.8c-0.9,0-3.7,0-2.6-0.6c3.6,0,4.8-1,7.4-1.5c3.4,0.4-2.5,0.9-1.8,1.7
			c0.6,0.3,1.9,0.8,0.5,1.1c3,0.1,5.2-0.6,7.9-0.8l-0.1,0.2c3.8,0,7.8-0.9,10.9-0.4c-0.6-0.1-1.1-0.2-1.7-0.3c1.2,0,2.4-0.1,3.6-0.4
			c-0.1,0.3,2.3,0.8,1.3,1c0.9-0.5,3-0.6,5.2-0.6s4.4,0,5.4-0.5c1,0.4,0.1,0.7-0.2,1c-2.4-0.3-3.2-0.6-4.4-0.2
			c2,0.1,3.4,0.5,3.1,0.8c2-0.5,6.8-0.4,7.8-1c1.4,0.5,2.8,0.8,2.2,1.4c6.1,0.3-2.8-2.1,4-1.3c3,0.9-3.1,0.4,1.1,1.1h-0.8
			c2.9,1.9,2.3-0.8,5.8-0.3c0.4,0.9-2.5,0.2-0.2,1.1c3.2,0.3,4.8-0.7,8,0l-0.5,0.3c2.1,0.2,6,1.1,8,1.4c0.1,0.2-0.2,0.1-0.6,0.1
			c3.7,1,1.7-0.1,4.6,1l1-0.2c-2.1-0.8-4.2-1.3-6.5-1.4c2-0.1-2.9-1.6-1.8-2.1l-0.4,0.2c-2.7-1.1-5.6-1.9-8.5-2.5
			c-3.1-0.8-6.4-1.3-9.7-1.9c-1.9,0.1-3.8,0-5.7-0.4c-1.9-0.4-3.9-0.5-5.9-0.5c-0.8,0.9-0.9,0.1-4.7,0c2,0,0.3-0.7-1-0.9
			c-0.9,0.2-1.7,0.3-2.6,0.3c-0.8-0.3-5.6-1.4-7.4-0.8c-2.3-0.3,0.6-0.3,1.1-0.5c-0.9-0.5-1.9,0.4-2.7,0c0,0,0-0.1,0.3-0.1
			c-3.6,0-5.8-0.3-9.5-0.4c-0.3,0.9-3.7,0.4-5.4,0.8c0.5-0.3-2.1-0.3-3.2-0.5c-0.7,0.2-1.3,0.5-2,0.8c-2,0.7-2.8-0.3-5.3,0.2
			l0.6,0.1c-1.4,0.2-2.9,0.2-4.4,0.1c-1.5,0-2.9-0.1-4.4-0.3c-2.1,0.4-4.2,0.8-6.1,1s-3.8,0.6-5.6,0.8s-3.5,0.4-5.3,0.5
			s-3.4,0.4-5.1,0.5l-5.2,0.5c-1.8,0.2-3.5,0.4-5.4,0.7s-3.8,0.6-5.8,0.9s-4.1,0.9-6.3,1.5c-1.1,0.5,1,0.3,0.1,0.9
			c-1.8,0.5-2.2,0.5-3.9,1c1.5-0.1,1.2-0.4,1.1-0.1l2.5-0.8c0.1,0-0.1,0.1,0.1,0.2c0.9-0.4,1.9-0.7,2.9-0.9c-1.5,0.6-1.8,1.4-4,1.6
			c0.3-0.2,0.6-0.3,1-0.4c-1.8,0.3-1.8,0.7-3.1,0.8c-1.6,0.3-1.2,0.4-1.5,0.1l-5.1,0.9c-1.2,0.7-2.4,1.1-3.7,1.3
			c-1.2,0.2-2.2,0.3-2.6,0.4c0.4-0.7,3.2-1.2,4.3-2h-1.9v0.5l-2.6,0.6l0.1-0.1c-0.3,0.4-0.7,0.6-1.2,0.6c-0.1,0-0.4-0.1-0.1-0.2
			l-1.7,0.8c0.9-0.8-1.6,0.3-1.5-0.3c-2.3,0.6-4.5,1.3-6.6,2.3c-2,0.9-4,1.5-6.1,1.8c0.9,0-1.3,1.5-2.9,1.9c-1,0.2-1.2,0.2-0.7-0.3
			l-2,1c-1.4,0.1-2.9,0.4-4.2,1c-1.4,0.6-2.9,1.3-4.9,1.9l0.1-0.3c-1.5,1-3.1,1.8-4.8,2.4l0.2-0.6c-2.7,0.8-1.5,1.9-4.4,2.8
			c0.2,0.5,2.1,0,2.6,0.3c-0.9-0.2-3.9,1-3,1.1c-2.7,1.4-1.9,0.8-2.2,0.8l-1.5,1c-1.9,0.9-0.9-0.4-0.4-1c-1.5,1.4-3.6,2-5.7,2.9
			l0.7-0.6l-2.7,1.2c-0.9,0.7-1.8,1.3-2.8,1.8c-1.1,0.6-2.2,1.2-3.4,1.7l1.2-1.4c-1.7,0.5-0.7,0.6-1,1c-1.3,1-2.9,1.6-4.5,1.8
			c-1.8,1.3-3.7,2.3-5.8,3.1C315.9,194.8,314.1,195.9,312.6,197.4z M170.3,452l0.1-0.4C170.6,452.6,170.7,453.1,170.3,452z M172,428
			c0,2.9-0.3,2-0.5,2.2c0.5-2.8,0.4-4.4,0.9-6.9c-0.1,0.2-0.3,0.4-0.5,0.6c0-0.8,0.3-1.6,0.8-2.3C173.3,422.8,171.4,429.2,172,428z
			 M174.8,482c-0.1-0.1-0.1-0.2-0.2-0.3l0,0L174.8,482z M173.6,467.8c0.2-0.3,0.3-0.6,0.3-1C173.6,467.1,173.5,467.4,173.6,467.8
			L173.6,467.8z M175,439.5c0.3-1,0.4-2.1,0.4-3.2C175.2,436.8,175.1,437.7,175,439.5L175,439.5z M235.4,274.5
			c-0.4,0.8-1.2,2.2-0.1,1.2c0.2-0.7,1.4-1.5,1.4-2.2c0.1-0.1,0.1-0.1,0.1-0.1C236.4,273.7,235.9,274,235.4,274.5L235.4,274.5z
			 M294.3,214.4c0,0.3-0.3,1,0.2,0.9l-0.2,0.1c0.2,0,0.4-0.1,0.3,0.1c0.6-0.3,1.1-0.7,1.5-1.1C295.7,213.5,296.8,212.5,294.3,214.4
			L294.3,214.4z"/>
		<path class="st2" d="M274.7,235l0.6-0.5L274.7,235z"/>
		<path class="st2" d="M296,214.5c-0.6,0.2-1.1,0.5-1.6,0.8C295,215.1,295.5,214.9,296,214.5z"/>
		<path class="st2" d="M177.4,528.6l-0.3-0.8v1.7c0.9,2.7,1.3,2.7,2,3.3c-1-2.3-1-3.9-1.8-7L177.4,528.6z"/>
		<path class="st2" d="M180.4,526.5c0.1-0.5,0.2-1,0.2-1.5l-0.4-0.3L180.4,526.5z"/>
		<path class="st2" d="M177.1,493.8v2.6C177.4,497.3,177.6,494.2,177.1,493.8z"/>
		<path class="st2" d="M173.3,506.1l0.5,1.3c0.1-1.3-0.2-3-0.6-3.2C173.6,505.9,173.1,504.7,173.3,506.1z"/>
		<path class="st2" d="M176.6,486.8c-0.6-0.8,0.1-2.6-0.5-3.1C176.3,484.3,176,486.7,176.6,486.8z"/>
		<path class="st2" d="M171.1,489.1c-0.5,0.9,0.1,2.2,0.2,3.9C171.1,491.6,171.6,489.6,171.1,489.1z"/>
		<path class="st2" d="M174.1,472.8c0.4,0.1,0.4,1.2,0.4,2.5c-0.2-0.4-0.3-0.8-0.4-1.2c0.4,2.1,0.4,2.2,0.6,3.9
			c0.2-1.7,0.3-4.2,0.8-3.9C175.1,472.8,174.4,471.2,174.1,472.8z"/>
		<path class="st2" d="M170.8,485c-0.2,1.3-0.3,2.7-0.2,4c0.3-0.3,0.7-0.9,0.4-2.9l0.5,0.7C171.7,485,170.9,487.6,170.8,485z"/>
		<path class="st2" d="M175.1,465.1l-0.2,0.8c0.4,1.9,0.3,4.4,0.9,5.5C175.7,469.3,175.5,467.2,175.1,465.1z"/>
		<path class="st2" d="M171.2,478.1l-0.7-0.2c0,2,0.2-0.1,0.4,0.5c-0.1,0.6-0.1,1.2,0.1,1.8C170.8,478,171.6,480.1,171.2,478.1z"/>
		<path class="st2" d="M170.2,471.7c-0.1-0.8-0.2-1.7-0.4-2.5l-0.7,2C169.5,474.1,169.6,471.3,170.2,471.7z"/>
		<path class="st2" d="M170.6,468.6l0.1-0.3l-1.1-3.8C169.8,465.9,170.2,467.3,170.6,468.6z"/>
		<path class="st2" d="M176.9,423.4c-0.2-0.5-0.8,1.7-0.4,0.8C176.7,424.6,177.4,421.8,176.9,423.4z"/>
		<path class="st2" d="M170.6,431.8c0.2-2,0.3-4.1,0.2-6.2C170.7,427.5,170.1,432,170.6,431.8z"/>
		<path class="st2" d="M170.7,425c0,0.1,0,0.4,0,0.6C170.8,425.4,170.8,425.2,170.7,425z"/>
		<path class="st2" d="M182.4,360.8c0-0.2,0.1-0.3,0.1-0.5C182.5,360.5,182.5,360.6,182.4,360.8z"/>
		<path class="st2" d="M182.1,362.3c-0.4,1.1-0.7,2.3-0.6,3.5c0.3-1.6,0.6-3.1,0.9-5C182.2,361.5,181.8,362.3,182.1,362.3z"/>
		<path class="st2" d="M187.2,348.2c-0.1,0.8-0.6,1.8-0.2,1.6C187.2,349.4,187.5,347.8,187.2,348.2z"/>
		<path class="st2" d="M244.7,266.7c1-1,1.4-1.7,0.9-1.7C244.6,266.2,245.3,265.7,244.7,266.7z"/>
		<polygon class="st2" points="246.7,263.6 246.9,263.6 247.8,263.1 		"/>
		<path class="st2" d="M253.6,256.8c0,0.2-0.1,0.4-0.2,0.6C253.7,256.9,253.9,256.5,253.6,256.8z"/>
		<path class="st2" d="M253.2,257.6l0.2-0.2L253.2,257.6z"/>
		<path class="st2" d="M252.7,258l0.1,0.2c0.1-0.1,0.3-0.4,0.4-0.6C253,257.8,252.8,258,252.7,258z"/>
		<path class="st2" d="M255.7,254.7l-1.8,0.9c-1.1,1.6,1.8-1.3,1,0.5L255.7,254.7z"/>
		<path class="st2" d="M260,250c1.4-1.1,2.5-3.6,3.8-3.8c3.3-3.8-1.7-0.1,2.2-4.3c-4.2,3.5-1,3-4.7,6
			C263.3,246.7,260.4,249.3,260,250z"/>
		<path class="st2" d="M258.5,249.7c0.1,0.5,1.6-1.1,2-1.8C260,248.3,258.8,248.8,258.5,249.7z"/>
		<polygon class="st2" points="266.8,242.9 268.1,242.1 268.2,241.6 		"/>
		<path class="st2" d="M271.1,239.1l-0.8,1.3C270.6,240,272.2,238.5,271.1,239.1z"/>
		<path class="st2" d="M277.5,234.2c1.2-0.8,1.5-2.4-0.6-0.3l0.5-0.4C277.4,233.7,278.9,232.9,277.5,234.2z"/>
		<path class="st2" d="M291.1,221.2c-0.8,0.6-1.6,1.4-1.3,1.4c0.7-0.6,1.3-1.2,2-1.8L291.1,221.2z"/>
		<path class="st2" d="M289.2,219.4c-1.1,0.1-2,1.6-3.5,2.5C287,221.1,288.1,220.3,289.2,219.4z"/>
		<path class="st2" d="M294,220.1c-0.6,0.6-1.2,1.1-2,1.5C292.5,221.7,294,220.6,294,220.1z"/>
		<path class="st2" d="M297.3,217.4c0.9-0.3,0,0.4,0.7,0.1c0.8-0.4,1.6-0.9,2.3-1.4c0.6-0.4,1.1-0.9,1.6-1.4
			c-0.6,0.1-1.5-0.2-1.1-0.9c-0.9,0.8-1.8,1.6-2.5,2.6c-0.5,0.7-1.2,1.1-2,1.3l-1.4,2.3C297,218.8,296,218.4,297.3,217.4z"/>
		<path class="st2" d="M291.2,219.3l1.5-0.6c-0.5-0.1,0.5-0.9,1.1-1.5C293,216.8,291.9,218.7,291.2,219.3z"/>
		<polygon class="st2" points="310.7,207.9 313.4,205.9 312.5,206.4 		"/>
		<polygon class="st2" points="312.6,206.9 312.8,207.1 314.8,205.4 		"/>
		<polygon class="st2" points="315.8,205.3 315.4,205.5 313.8,206.7 		"/>
		<path class="st2" d="M321.9,201.9h-0.7c-0.7,0.5-2.4,1-2,1.3C320,202.6,320.9,202.1,321.9,201.9z"/>
		<path class="st2" d="M338.7,183.3c-0.5,0.5,0,0.5,0.4,0.5l0.6-1C339.4,183,339.1,183.2,338.7,183.3z"/>
		<path class="st2" d="M342.9,182.3l2.1-1.6c-2.7,1.1-2.9,1.7-5.2,2.9c1-0.3,2.2-1.3,3.6-1.8L342.9,182.3z"/>
		<path class="st2" d="M391.1,165.2c-0.1,0.5,0.4,0.2-1.3,1c2.4-1,4.6-1.4,7.5-2.2c-0.5-0.1,1.5-1.1,0.4-0.7l-3.2,1.1l0.4-0.4
			C392.6,164.3,393.6,164.8,391.1,165.2z"/>
		<path class="st2" d="M522.9,162.2c-0.3,0.1,0,0.4,0.4,0.6C525.2,162.9,522.5,162.2,522.9,162.2z"/>
		
			<image style="overflow:visible;enable-background:new    ;" width="411" height="397" xlink:href="348B734.png"  transform="matrix(1 0 0 1 46.53 525.26)">
		</image>
		
			<image style="overflow:visible;enable-background:new    ;" width="971" height="970" xlink:href="348B737.png"  transform="matrix(0.5005 0 0 0.5005 0 479.5602)">
		</image>
	</g>
</g>
</svg>
