<svg xmlns="http://www.w3.org/2000/svg" xmlns:xlink="http://www.w3.org/1999/xlink" viewBox="0 0 557.91 404.43"><defs><style>.cls-1{fill:url(#linear-gradient);filter:url(#luminosity-noclip);}.cls-2{isolation:isolate;}.cls-3,.cls-6{fill:#4d4d4d;}.cls-3{opacity:0.05;}.cls-4{fill:#333;}.cls-5{fill:#78ff80;}.cls-7{fill:#8161dc;}.cls-8{fill:#e7ffac;}.cls-9{fill:#1a1a1a;}.cls-10{fill:#b1b7bb;}.cls-11{fill:url(#Unbenannter_Verlauf_8);}.cls-12{mask:url(#mask);}.cls-13{mix-blend-mode:hard-light;opacity:0.12;fill:url(#linear-gradient-2);}.cls-14{fill:#e6e6e6;}</style><linearGradient id="linear-gradient" x1="277.43" y1="395.03" x2="277.43" y2="404.06" gradientUnits="userSpaceOnUse"><stop offset="0" stop-color="#fff"/><stop offset="1"/></linearGradient><linearGradient id="Unbenannter_Verlauf_8" x1="278.96" y1="396.13" x2="278.96" y2="388.9" gradientUnits="userSpaceOnUse"><stop offset="0" stop-color="#2b2c2e"/><stop offset="0.12" stop-color="#3c3d40"/><stop offset="0.34" stop-color="#5f6064"/><stop offset="0.73" stop-color="#333"/><stop offset="1" stop-color="#333"/></linearGradient><filter id="luminosity-noclip" x="-5.72" y="391.38" width="566.29" height="16.1" filterUnits="userSpaceOnUse" color-interpolation-filters="sRGB"><feFlood flood-color="#fff" result="bg"/><feBlend in="SourceGraphic" in2="bg"/></filter><mask id="mask" x="-5.72" y="391.38" width="566.29" height="16.1" maskUnits="userSpaceOnUse"><rect class="cls-1" x="-5.72" y="391.38" width="566.29" height="16.1"/></mask><linearGradient id="linear-gradient-2" x1="269.49" y1="227.95" x2="504.25" y2="227.95" gradientUnits="userSpaceOnUse"><stop offset="0" stop-color="#e0e5e6"/><stop offset="1" stop-color="gray"/></linearGradient></defs><g class="cls-2"><g id="Ebene_2" data-name="Ebene 2"><g id="Ebene_8" data-name="Ebene 8"><circle class="cls-3" cx="420.89" cy="30.16" r="30.16"/><rect class="cls-4" x="219.43" y="55.38" width="15.23" height="4.01" rx="1.19"/><rect class="cls-4" x="296.77" y="55.38" width="15.23" height="4.01" rx="1.19"/><rect class="cls-4" x="381.04" y="55.38" width="15.23" height="4.01" rx="1.19"/><rect class="cls-4" x="413.28" y="55.38" width="15.23" height="4.01" rx="1.19"/><circle class="cls-5" cx="459.98" cy="30.16" r="30.16"/><circle class="cls-6" cx="343.96" cy="30.16" r="30.16"/><circle class="cls-3" cx="388.65" cy="30.16" r="30.16"/><circle class="cls-3" cx="304.39" cy="30.16" r="30.16"/><circle class="cls-3" cx="227.04" cy="30.16" r="30.16"/><circle class="cls-7" cx="266.61" cy="30.16" r="30.16"/><circle class="cls-6" cx="189.26" cy="30.16" r="30.16"/><circle class="cls-5" cx="150.59" cy="30.16" r="30.16"/><circle class="cls-8" cx="111.92" cy="30.16" r="30.16"/><rect x="53.66" y="75.55" width="450.59" height="304.81" rx="13.25"/><rect class="cls-6" x="55.65" y="77.54" width="446.61" height="300.83" rx="11.93"/><rect class="cls-9" x="56.98" y="78.86" width="443.96" height="298.18" rx="10.6"/><rect class="cls-10" x="70.23" y="92.11" width="417.45" height="271.68"/><rect x="71.55" y="93.44" width="414.8" height="269.03"/><rect class="cls-9" y="378.55" width="557.91" height="10.36"/><path class="cls-9" d="M315.18,385.18h-72.8a6,6,0,0,1-3.69-2.59,6.58,6.58,0,0,1-1.27-4H320.5a9.15,9.15,0,0,1-1.79,4.44A6.87,6.87,0,0,1,315.18,385.18Z"/><path class="cls-11" d="M0,388.9s3.21,2.64,12.27,5.24c7.54,2.17,20.47,2,20.47,2H525.17s12.93.19,20.48-2c9.06-2.6,12.26-5.24,12.26-5.24Z"/><g class="cls-12"><path class="cls-4" d="M0,404.43s3.21-3,12.27-6c7.54-2.5,20.47-2.28,20.47-2.28H525.17s12.93-.22,20.48,2.28c9.06,3,12.26,6,12.26,6Z"/></g><path class="cls-13" d="M269.49,75.55H491A13.25,13.25,0,0,1,504.25,88.8V367.1A13.26,13.26,0,0,1,491,380.36H332.75Z"/><rect class="cls-4" x="56.98" y="57.38" width="444.22" height="33.31" rx="14.78"/><rect x="60.73" y="60.32" width="434" height="27.43" rx="11.24"/><path class="cls-14" d="M147.53,164.65H136v-10h34v10h-11.5v60h-11Z"/><path class="cls-14" d="M175.33,154.65h30v10h-19v18.5h15.1v10h-15.1v21.5h19v10h-30Z"/><path class="cls-14" d="M220.13,154.65H235l11.4,70h-11l-2-13.9v.2h-12.5l-2,13.7h-10.2Zm12,46.8-4.9-34.6H227l-4.8,34.6Z"/><path class="cls-14" d="M251.73,154.65h15.7l7,50.1h.2l7-50.1h15.7v70h-10.4v-53h-.2l-8,53h-9.2l-8-53h-.2v53h-9.6Z"/><path class="cls-14" d="M147.53,237.55H136v-10h34v10h-11.5v60h-11Z"/><path class="cls-14" d="M175.33,227.55h11v28.5h11.8v-28.5h11v70h-11v-31.5h-11.8v31.5h-11Z"/><path class="cls-14" d="M217.33,227.55h30v10h-19v18.5h15.1v10h-15.1v21.5h19v10h-30Z"/><path class="cls-14" d="M253.63,227.55h16.3q8.51,0,12.4,3.95t3.9,12.15V248q0,10.91-7.2,13.8v.2a8.57,8.57,0,0,1,5.65,4.9,24.69,24.69,0,0,1,1.65,9.9v12.3a48,48,0,0,0,.2,4.85,12.2,12.2,0,0,0,1,3.65h-11.2a15.75,15.75,0,0,1-.8-3.2,49,49,0,0,1-.2-5.4v-12.8q0-4.8-1.55-6.7c-1-1.27-2.82-1.9-5.35-1.9h-3.8v30h-11Zm15,30a6.62,6.62,0,0,0,4.95-1.7q1.65-1.69,1.65-5.7v-5.4c0-2.53-.45-4.37-1.35-5.5a5.11,5.11,0,0,0-4.25-1.7h-5v20Z"/><path class="cls-14" d="M302.43,227.55h14.9l11.4,70h-11l-2-13.9v.2h-12.5l-2,13.7H291Zm12,46.8-4.9-34.6h-.2l-4.8,34.6Z"/><path class="cls-14" d="M334,227.55h16.2q8.19,0,12.3,4.4t4.1,12.9v6.9q0,8.5-4.1,12.9t-12.3,4.4H345v28.5H334Zm16.2,31.5a5.17,5.17,0,0,0,4-1.5q1.35-1.5,1.35-5.1v-8.3q0-3.6-1.35-5.1a5.17,5.17,0,0,0-4-1.5H345v21.5Z"/><path class="cls-14" d="M372.63,227.55h11v70h-11Z"/><path class="cls-14" d="M391.83,227.55h30v10h-19v18.5h15.1v10h-15.1v21.5h19v10h-30Z"/></g></g></g></svg>