<svg xmlns="http://www.w3.org/2000/svg" xmlns:xlink="http://www.w3.org/1999/xlink" viewBox="0 0 326.72 330.58"><defs><style>.cls-1{fill:#4d4d4d;}.cls-2{fill:#8161dc;}.cls-3{fill:#fff;}.cls-4{fill:url(#Unbenannter_Verlauf_19);}</style><linearGradient id="Unbenannter_Verlauf_19" x1="19221.49" y1="63.9" x2="19396.16" y2="63.9" gradientTransform="matrix(-1, 0, 0, 1, 19431.35, 0)" gradientUnits="userSpaceOnUse"><stop offset="0" stop-color="#f2c35f"/><stop offset="0.19" stop-color="#dbb37f" stop-opacity="0.74"/><stop offset="0.41" stop-color="#c4a29f" stop-opacity="0.48"/><stop offset="0.6" stop-color="#b295b9" stop-opacity="0.27"/><stop offset="0.77" stop-color="#a58bcc" stop-opacity="0.12"/><stop offset="0.91" stop-color="#9d85d7" stop-opacity="0.03"/><stop offset="1" stop-color="#9a83db" stop-opacity="0"/></linearGradient></defs><g id="Ebene_2" data-name="Ebene 2"><g id="Ebene_8" data-name="Ebene 8"><path class="cls-1" d="M21.48,67.69c2.58-.53,5.56,1.56,8.28,3.46,7.39,5.16,9.7,13.16,10.38,15.66,2.72,9.94-1.31,13.73-1.18,27.48.06,7,1.17,11.95,2.82,19.21,3.11,13.71,7.51,33.17,23,48.33a63.54,63.54,0,0,0,22,14.56c14.58,5.57,27.06,3.54,38.23,13.84,3.75,3.46,3.81,5,3.64,5.82-1.23,5.86-22.56,6.6-35.68,5.47-10.5-.91-31.47-2.71-49.69-17.3C18.49,184.35,15.3,154,12.56,128,9.77,101.37,12.7,69.5,21.48,67.69Z"/><path class="cls-2" d="M27.45,156a97.63,97.63,0,0,0,31.61,36.6,16.89,16.89,0,0,0,7.27,6.07l50,21.9-43.92,85c-2.21,3.91-1.88,8.33.74,9.82l5.14,2.91a4.17,4.17,0,0,0,2.64.44l19.87,4.5c.77.3,2-1.07,2.8-3.06l1.5-3.88c.77-2,.77-3.84,0-4.14L92.61,305l56.76-91.68,0,0,35,96.49a9.94,9.94,0,0,0,4,5.5.64.64,0,0,0,.25.18l.1,0a4.48,4.48,0,0,0,2.5.57l18.77,4.26c.77.3,2-1.08,2.8-3.06l1.51-3.88c.77-2,.77-3.84,0-4.14l-15-8.53-30.56-110a11.3,11.3,0,0,0-1.34-2.82A16.84,16.84,0,0,0,153,172.62l-60.84-8a108.75,108.75,0,0,1-16.44-15A186,186,0,0,1,58.21,126.1l20.12,7.05a2.73,2.73,0,0,0,1.06.23,3.78,3.78,0,0,0,1.48.25l52.91-4.28a3.58,3.58,0,0,0,3.57-3.56l-.1-3.72a3.58,3.58,0,0,0-3.75-3.36l-37.19-1a3.8,3.8,0,0,0-.23-1.55L74.9,67.46A3.63,3.63,0,0,0,71,65.06a56.75,56.75,0,0,0,4.32-13.54C76.76,43.72,79.15,30.71,71,20c-.9-1.17-9.22-11.65-22.58-11.46C32.47,8.78,23.84,23.94,22.9,25.67c-6.51,11.88-4.42,26.15,1.71,37.19a66.28,66.28,0,0,0-2.26,8.86,65.56,65.56,0,0,0-1,14.24l-.1,0C19.08,93.77,11.67,124,27.45,156Zm51-41.38-40-22.07a2.63,2.63,0,0,0-1.36-.2,31,31,0,0,1,.41-15.1,46.87,46.87,0,0,0,19.12,7.57,66.64,66.64,0,0,0,9.26-10.74Z"/><rect class="cls-1" x="60.31" y="225.37" width="13.65" height="71.36" rx="6.83" transform="translate(134.27 522.09) rotate(-180)"/><rect class="cls-1" x="39.2" y="276.5" width="11.91" height="56.08" rx="5.67" transform="translate(-196 495.92) rotate(-120)"/><rect class="cls-1" x="61.05" y="259.21" width="11.91" height="56.08" rx="5.67" transform="translate(134.01 574.5) rotate(-180)"/><rect class="cls-1" x="81.44" y="276.5" width="11.91" height="56.08" rx="5.67" transform="translate(-220.05 227.96) rotate(-60)"/><circle class="cls-3" cx="67.23" cy="314.56" r="7.28"/><circle class="cls-3" cx="22.99" cy="323.3" r="7.28"/><circle class="cls-3" cx="109.64" cy="323.3" r="7.28"/><path class="cls-3" d="M18.62,66.08a8.06,8.06,0,0,1,5.83,2.19,7.92,7.92,0,0,1,1.82,4.91c.42,4.33.63,6.49-1.28,11.47-3,7.72-11.59,51.22,4.19,68.81,5.31,5.93,17.14,7.65,40.78,11.1a355,355,0,0,0,42.41,3.64,7.74,7.74,0,0,1,4.92,8c-.53,3.69-4,5.42-4.28,5.56a241.14,241.14,0,0,1-32.13,4.09,238.77,238.77,0,0,1-33.09-.32,58.08,58.08,0,0,0,16.52,19.07c21.31,15.59,49,11.9,59.8,10.47,2.19-.29,4-.6,5.19-.82a15.58,15.58,0,0,1-.36,10.92c-3,7-10.14,8.74-10.93,8.92-8.88,2.45-34.32,8.16-61.16-3.82-35.5-15.84-47-50.77-50.79-62.44C-10.43,117.58,11.15,66.31,18.62,66.08Z"/><rect x="94.35" y="131.07" width="232.37" height="14.2" rx="7.1" transform="translate(421.07 276.34) rotate(-180)"/><rect x="118.04" y="223.16" width="187.18" height="14.2" rx="6.37" transform="translate(441.89 18.63) rotate(90)"/><path d="M282.9,143.63C283,145,262.43,143.76,244,157a64.39,64.39,0,0,0-19,22,66.76,66.76,0,0,0-7.1,38.64q-.69-37.41-1.37-74.82C269.21,141.81,282.84,142.54,282.9,143.63Z"/><path d="M139.81,143.63c-.06,1.34,20.47.13,38.92,13.38a64.51,64.51,0,0,1,19,22,66.68,66.68,0,0,1,7.1,38.64q.69-37.41,1.37-74.82C153.51,141.81,139.87,142.54,139.81,143.63Z"/><rect x="188.01" y="319.57" width="46.97" height="4.28" rx="2.02" transform="translate(422.98 643.42) rotate(180)"/><rect class="cls-3" x="196.38" y="54.96" width="5.3" height="78.88" rx="2.65" transform="translate(361.87 242.76) rotate(-163.04)"/><rect class="cls-3" x="148.36" y="90.63" width="5.1" height="78.88" rx="2.55" transform="translate(20.85 280.98) rotate(-90)"/><path class="cls-4" d="M209.85,58.43,74.69,0C66.34,5,52.56,15,43.56,32.49c-22,42.73,6.07,88.31,7.92,91.21l136.8,4.09Z"/></g></g></svg>